<svg width="94" height="25" viewBox="0 0 94 25" fill="none" xmlns="http://www.w3.org/2000/svg">
<g clip-path="url(#clip0_428_59313)">
<g clip-path="url(#clip1_428_59313)">
<g clip-path="url(#clip2_428_59313)">
<path d="M80.25 0.550781H12.25C5.62258 0.550781 0.25 5.92336 0.25 12.5508C0.25 19.1782 5.62258 24.5508 12.25 24.5508H80.25C86.8774 24.5508 92.25 19.1782 92.25 12.5508C92.25 5.92336 86.8774 0.550781 80.25 0.550781Z" fill="#FAE733"/>
<path fill-rule="evenodd" clip-rule="evenodd" d="M32.036 16.9094C32.2259 16.9094 32.4286 16.8851 32.6455 16.838C32.8618 16.7902 33.0752 16.7238 33.2864 16.6396C33.4977 16.5554 33.6975 16.4555 33.8881 16.3391C34.0779 16.2228 34.2414 16.0965 34.3784 15.9595V13.9647H32.8903C32.131 13.9647 31.5771 14.0946 31.2289 14.3529C30.8806 14.6113 30.7064 15.0095 30.7064 15.5477C30.7064 15.9909 30.8199 16.3284 31.0469 16.5611C31.2738 16.793 31.6036 16.9094 32.036 16.9094ZM29.4404 15.6112C29.4404 14.7562 29.7173 14.1124 30.2711 13.6799C30.8249 13.2474 31.64 13.0305 32.7169 13.0305H34.3784V12.3503C34.3784 11.6859 34.2356 11.2134 33.9509 10.9344C33.6661 10.6546 33.2443 10.5147 32.6848 10.5147C32.2944 10.5147 31.8933 10.5675 31.4815 10.6724C31.0704 10.7781 30.6957 10.9101 30.3582 11.0685L29.9628 10.1343C30.3839 9.89169 30.8356 9.7047 31.3159 9.57267C31.7955 9.44135 32.263 9.37498 32.7169 9.37498C33.7082 9.37498 34.4469 9.61763 34.9322 10.1029C35.4175 10.5882 35.6602 11.359 35.6602 12.4138V17.8593H34.6796L34.5211 16.9408C34.1093 17.2783 33.6576 17.5367 33.168 17.7166C32.6769 17.895 32.2202 17.9849 31.7984 17.9849C31.0597 17.9849 30.4823 17.7765 30.0656 17.3597C29.648 16.9436 29.4404 16.3605 29.4404 15.6112ZM43.2745 9.28006L44.3194 10.0558L41.5817 13.4744L44.7469 17.2569L43.702 18.0805L40.0144 13.5379L43.2745 9.28006ZM39.4292 17.8586H38.0996V6.01921L39.4292 5.71875V17.8586ZM48.3082 16.9094C48.498 16.9094 48.7007 16.8851 48.9177 16.838C49.1339 16.7902 49.3473 16.7238 49.5586 16.6396C49.7698 16.5554 49.9696 16.4555 50.1602 16.3391C50.35 16.2228 50.5135 16.0965 50.6505 15.9595V13.9647H49.1625C48.4024 13.9647 47.8486 14.0946 47.4996 14.3529C47.152 14.6113 46.9786 15.0095 46.9786 15.5477C46.9786 15.9909 47.0913 16.3284 47.3183 16.5611C47.5452 16.793 47.8757 16.9094 48.3082 16.9094ZM45.7118 15.6112C45.7118 14.7562 45.9887 14.1124 46.5425 13.6799C47.0963 13.2474 47.9114 13.0305 48.9876 13.0305H50.6498V12.3503C50.6498 11.6859 50.5071 11.2134 50.2223 10.9344C49.9375 10.6546 49.5157 10.5147 48.9562 10.5147C48.5658 10.5147 48.1647 10.5675 47.7536 10.6724C47.3418 10.7781 46.9672 10.9101 46.6296 11.0685L46.2342 10.1343C46.6553 9.89169 47.107 9.7047 47.5873 9.57267C48.0677 9.44135 48.5344 9.37498 48.9876 9.37498C49.9796 9.37498 50.7183 9.61763 51.2036 10.1029C51.6889 10.5882 51.9316 11.359 51.9316 12.4138V17.8593H50.9503L50.7925 16.9408C50.3807 17.2783 49.9297 17.5367 49.4394 17.7166C48.9484 17.895 48.4916 17.9849 48.0698 17.9849C47.3311 17.9849 46.753 17.7765 46.337 17.3597C45.9202 16.9436 45.7118 16.3605 45.7118 15.6112ZM57.357 10.4669C56.6184 10.4669 56.0453 10.7438 55.6399 11.2983C55.2331 11.8522 55.0304 12.6565 55.0304 13.712C55.0304 14.7669 55.2331 15.5662 55.6399 16.11C56.0453 16.6532 56.6177 16.9251 57.357 16.9251C58.095 16.9251 58.6681 16.6539 59.0742 16.1093C59.4803 15.5669 59.6837 14.7676 59.6837 13.7113C59.6837 12.6565 59.4803 11.8522 59.0742 11.2983C58.6674 10.7438 58.095 10.4669 57.357 10.4669ZM57.357 9.37498C58.5175 9.37498 59.4246 9.74681 60.0791 10.4905C60.7335 11.2348 61.0604 12.3089 61.0604 13.712C61.0604 15.1045 60.7357 16.1707 60.0869 16.9094C59.4375 17.6473 58.5282 18.017 57.357 18.017C56.1959 18.017 55.2888 17.6473 54.6343 16.9094C53.9799 16.1707 53.653 15.1045 53.653 13.712C53.653 12.3089 53.9827 11.2348 54.6422 10.4905C55.3016 9.74681 56.2066 9.37498 57.357 9.37498ZM66.2097 10.9736C65.9991 10.9736 65.7743 11.0022 65.5374 11.0607C65.2997 11.1185 65.0913 11.1899 64.9122 11.2748V16.4498C64.9857 16.4712 65.0942 16.4847 65.2362 16.4897C65.3789 16.4947 65.5238 16.4969 65.6715 16.4969C66.5051 16.4969 67.0932 16.2314 67.4365 15.6975C67.7791 15.1651 67.9511 14.445 67.9511 13.5379C67.9511 13.1475 67.9247 12.7935 67.8718 12.4774C67.819 12.1605 67.727 11.8921 67.5949 11.6702C67.4629 11.4489 67.2866 11.2776 67.0647 11.1563C66.8434 11.0343 66.5579 10.9736 66.2097 10.9736ZM66.2575 18.0962C66.0362 18.0962 65.8221 18.0855 65.6166 18.0641C65.411 18.0427 65.1762 17.9956 64.9122 17.9214V21.0716H62.7911V9.517H64.2948L64.5482 10.2136C64.8222 9.93951 65.147 9.71255 65.5217 9.53342C65.8956 9.35357 66.3681 9.26436 66.9383 9.26436C67.4865 9.26436 67.9589 9.36213 68.355 9.55697C68.7504 9.75252 69.0773 10.0351 69.3363 10.4041C69.5947 10.7731 69.7874 11.2213 69.9144 11.7494C70.04 12.2775 70.1036 12.8727 70.1036 13.5379C70.1036 14.2345 70.0086 14.8618 69.8188 15.4213C69.6289 15.9809 69.3649 16.4576 69.0273 16.8537C68.6897 17.2491 68.2858 17.5553 67.8169 17.7715C67.3466 17.9878 66.827 18.0962 66.2575 18.0962ZM74.1216 16.4341C74.4913 16.4341 74.8425 16.3655 75.1743 16.2285C75.5069 16.0915 75.7681 15.938 75.9579 15.7696V14.1388H74.8182C73.6577 14.1388 73.0768 14.572 73.0768 15.437C73.0768 15.7432 73.1639 15.9859 73.3387 16.165C73.5121 16.3448 73.7741 16.4341 74.1216 16.4341ZM71.162 15.4527C71.162 14.5663 71.4546 13.899 72.0405 13.4508C72.6257 13.0026 73.4893 12.7778 74.6283 12.7778H75.9579V12.4923C75.9579 12.2611 75.9365 12.0556 75.8944 11.8757C75.8523 11.6966 75.7731 11.546 75.6575 11.4247C75.5412 11.3033 75.3856 11.2106 75.19 11.1478C74.9952 11.0842 74.739 11.0528 74.4228 11.0528C74.0324 11.0528 73.6549 11.0949 73.2909 11.1792C72.9269 11.2641 72.5551 11.4061 72.1747 11.6074L71.5895 10.1508C71.9905 9.87599 72.4673 9.65974 73.0218 9.5013C73.5757 9.34358 74.1273 9.26436 74.6762 9.26436C75.7524 9.26436 76.5646 9.52842 77.1134 10.0558C77.6615 10.5839 77.9363 11.3904 77.9363 12.4774V17.8586H76.4483L76.2113 17.1463C75.7781 17.4839 75.3428 17.7244 74.9053 17.8671C74.4671 18.0092 74.0638 18.0798 73.6948 18.0798C72.8712 18.0798 72.2439 17.8507 71.8107 17.3918C71.3782 16.9329 71.162 16.2863 71.162 15.4527ZM84.5479 16.9879C84.1682 18.0434 83.7307 18.9377 83.2347 19.6714C82.7387 20.4043 82.1585 20.9874 81.4933 21.4199L80.1801 20.2173C80.6333 19.8262 81.008 19.4572 81.3035 19.109C81.599 18.7607 81.868 18.3596 82.1107 17.9064L79.1667 9.78678L81.2721 9.21654L83.1712 15.7853L85.0554 9.20084L87.1436 9.80248L84.5479 16.9879ZM23.1563 5.71875L21.8281 6.0185V17.8586H23.1556L23.1563 5.71875ZM23.7423 13.5379L27.4306 18.0798L28.4755 17.2562L25.3102 13.4737L28.048 10.0551L27.0031 9.28006L23.7423 13.5379Z" fill="#1C1C1C"/>
<path d="M7.7163 8.40231C8.77425 7.3025 10.2668 6.6035 11.9651 6.4126C12.4043 6.36319 13.2306 6.36235 13.6754 6.4108C17.2907 6.80461 19.7734 9.43096 19.1983 12.2531C18.9062 13.6863 17.9008 14.9083 16.3652 15.6968C15.2249 16.2822 14.1072 16.5329 12.7012 16.5186L12.0183 16.5117L10.4042 17.6026C9.51649 18.2025 8.73939 18.7126 8.67727 18.736C8.58953 18.7692 8.54033 18.7652 8.45651 18.7181C8.23913 18.5961 8.24305 18.5634 8.6628 16.9997C8.87641 16.204 9.04574 15.5493 9.03914 15.545L8.66736 15.3006C8.21523 15.0033 7.45428 14.2551 7.16835 13.8267C5.9972 12.0723 6.20973 9.96839 7.7163 8.40231Z" fill="#1C1C1C"/>
</g>
</g>
</g>
<defs>
<clipPath id="clip0_428_59313">
<rect width="93" height="24" fill="white" transform="translate(0.109375 0.550781)"/>
</clipPath>
<clipPath id="clip1_428_59313">
<rect width="93" height="24" fill="white" transform="translate(0.109375 0.550781)"/>
</clipPath>
<clipPath id="clip2_428_59313">
<rect width="93" height="24" fill="white" transform="translate(0.109375 0.550781)"/>
</clipPath>
</defs>
</svg>
