<svg width="40" height="25" viewBox="0 0 40 25" fill="none" xmlns="http://www.w3.org/2000/svg">
<g clip-path="url(#clip0_428_59193)">
<g clip-path="url(#clip1_428_59193)">
<g clip-path="url(#clip2_428_59193)">
<path d="M0.78125 2.47419C0.78125 1.41408 1.64064 0.554688 2.70075 0.554688H37.2517C38.3118 0.554688 39.1712 1.41408 39.1712 2.47419V22.6289C39.1712 23.6891 38.3118 24.5484 37.2517 24.5484H2.70075C1.64064 24.5484 0.78125 23.6891 0.78125 22.6289V2.47419Z" fill="white"/>
<path d="M0.78125 2.47419C0.78125 1.41408 1.64064 0.554688 2.70075 0.554688H37.2517C38.3118 0.554688 39.1712 1.41408 39.1712 2.47419V22.6289C39.1712 23.6891 38.3118 24.5484 37.2517 24.5484H2.70075C1.64064 24.5484 0.78125 23.6891 0.78125 22.6289V2.47419Z" fill="white"/>
<path d="M27.7769 9.79688H25.9099C25.7844 9.79688 25.6755 9.88887 25.6503 10.0143L24.8969 14.7896C24.8801 14.8816 24.9554 14.9652 25.0476 14.9652H26.002C26.0942 14.9652 26.1695 14.8983 26.1779 14.8146L26.3955 13.4599C26.4123 13.3344 26.521 13.2424 26.6552 13.2424H27.2411C28.4717 13.2424 29.1752 12.6486 29.3592 11.4695C29.443 10.9593 29.3592 10.5495 29.1248 10.2652C28.8736 9.95576 28.4048 9.79688 27.7769 9.79688ZM27.9947 11.5364C27.8942 12.2054 27.3834 12.2054 26.8896 12.2054H26.6048L26.8058 10.9593C26.8142 10.8841 26.8812 10.8255 26.9565 10.8255H27.082C27.417 10.8255 27.7351 10.8255 27.9026 11.0179C28.0029 11.1349 28.0281 11.3022 27.9947 11.5364Z" fill="#009CDE"/>
<path d="M14.4879 9.79688H12.6209C12.4953 9.79688 12.3864 9.88887 12.3613 10.0143L11.6078 14.7896C11.5911 14.8816 11.6664 14.9652 11.7585 14.9652H12.646C12.7716 14.9652 12.8804 14.8732 12.9055 14.7477L13.1064 13.4599C13.1232 13.3344 13.232 13.2424 13.366 13.2424H13.952C15.1828 13.2424 15.886 12.6486 16.0702 11.4695C16.1539 10.9593 16.0702 10.5495 15.8358 10.2652C15.5846 9.95576 15.1158 9.79688 14.4879 9.79688ZM14.7055 11.5364C14.6051 12.2054 14.0944 12.2054 13.6004 12.2054H13.3157L13.5167 10.9593C13.5251 10.8841 13.592 10.8255 13.6674 10.8255H13.793C14.1279 10.8255 14.446 10.8255 14.6134 11.0179C14.7139 11.1349 14.739 11.3022 14.7055 11.5364ZM20.0554 11.5113H19.1596C19.0842 11.5113 19.0173 11.5698 19.0089 11.6451L18.967 11.896L18.9084 11.804C18.7158 11.528 18.2888 11.4276 17.8535 11.4276C16.8656 11.4276 16.0283 12.1719 15.8609 13.2173C15.7772 13.7358 15.8944 14.2376 16.1958 14.5889C16.4721 14.9066 16.8572 15.0404 17.3177 15.0404C18.113 15.0404 18.5484 14.5303 18.5484 14.5303L18.5065 14.7812C18.4898 14.8732 18.5651 14.9568 18.6572 14.9568H19.461C19.5866 14.9568 19.6954 14.8648 19.7205 14.7394L20.2061 11.6869C20.2228 11.6033 20.1559 11.5113 20.0554 11.5113ZM18.8163 13.2508C18.7326 13.7609 18.3223 14.1038 17.8116 14.1038C17.5521 14.1038 17.3428 14.0202 17.2088 13.8613C17.0749 13.7024 17.0246 13.4849 17.0665 13.2341C17.1502 12.7323 17.5605 12.3727 18.0628 12.3727C18.314 12.3727 18.5233 12.4563 18.6572 12.6152C18.7996 12.7824 18.8582 12.9999 18.8163 13.2508Z" fill="#003087"/>
<path d="M33.342 11.5133H32.4461C32.3707 11.5133 32.3038 11.5719 32.2954 11.6471L32.2536 11.898L32.1951 11.806C32.0024 11.5301 31.5753 11.4297 31.1401 11.4297C30.1523 11.4297 29.3149 12.174 29.1474 13.2194C29.0637 13.7379 29.181 14.2397 29.4824 14.5909C29.7588 14.9087 30.1439 15.0425 30.6043 15.0425C31.3997 15.0425 31.8349 14.5324 31.8349 14.5324L31.7932 14.7832C31.7764 14.8752 31.8517 14.9589 31.9439 14.9589H32.7477C32.8732 14.9589 32.9821 14.8669 33.007 14.7414L33.4927 11.6889C33.5095 11.6053 33.4425 11.5133 33.342 11.5133ZM32.103 13.2528C32.0192 13.763 31.6089 14.1059 31.0983 14.1059C30.8387 14.1059 30.6293 14.0222 30.4954 13.8633C30.3615 13.7044 30.3113 13.487 30.3531 13.2361C30.4368 12.7343 30.8471 12.3747 31.3493 12.3747C31.6005 12.3747 31.8098 12.4583 31.9439 12.6172C32.0862 12.7845 32.1447 13.0019 32.103 13.2528Z" fill="#009CDE"/>
<path d="M24.8096 11.5117H23.9138C23.8301 11.5117 23.7464 11.5535 23.6961 11.6288L22.4571 13.4519L21.9296 11.7041C21.8961 11.5954 21.7957 11.5201 21.6784 11.5201H20.7994C20.6905 11.5201 20.6152 11.6288 20.6487 11.7292L21.6366 14.6227L20.7073 15.9274C20.6319 16.0277 20.7073 16.1699 20.8329 16.1699H21.7287C21.8124 16.1699 21.8961 16.1281 21.938 16.0612L24.9185 11.7626C25.0106 11.6539 24.9353 11.5117 24.8096 11.5117Z" fill="#003087"/>
<path d="M34.397 9.92288L33.6352 14.7818C33.6184 14.8738 33.6937 14.9574 33.7859 14.9574H34.5561C34.6815 14.9574 34.7905 14.8654 34.8157 14.74L35.5691 9.9647C35.5859 9.8727 35.5105 9.78906 35.4184 9.78906H34.5561C34.4723 9.79744 34.4054 9.84761 34.397 9.92288Z" fill="#009CDE"/>
<path d="M9.57065 10.5041C9.65804 9.95079 9.57065 9.57224 9.27205 9.23009C8.93705 8.85154 8.33987 8.69141 7.57519 8.69141H5.35397C5.20103 8.69141 5.06266 8.80787 5.04083 8.96074L4.10862 14.8282C4.08679 14.9447 4.18147 15.0466 4.29798 15.0466H5.66713L5.57245 15.6436C5.55789 15.7455 5.63801 15.8328 5.73996 15.8328H6.89789C7.03627 15.8328 7.1528 15.7309 7.17464 15.5999L7.1892 15.5416L7.40769 14.1585L7.42225 14.0857C7.44411 13.9474 7.56062 13.8527 7.699 13.8527H7.87379C8.99531 13.8527 9.86923 13.4014 10.1241 12.0838C10.2334 11.5305 10.1751 11.0719 9.89109 10.7516C9.8037 10.6569 9.69446 10.5696 9.57065 10.5041Z" fill="#009CDE"/>
<path d="M9.43016 10.5246C9.51529 9.96507 9.43016 9.58225 9.13924 9.23621C8.81285 8.85336 8.23103 8.69141 7.486 8.69141H5.32186C5.17286 8.69141 5.03806 8.80919 5.01675 8.96381L4.10854 14.8978C4.08726 15.0156 4.17949 15.1187 4.29303 15.1187H5.62699L5.96045 12.91L5.95337 12.9763C5.97466 12.8216 6.10237 12.7039 6.25848 12.7039H6.89707C8.14587 12.7039 9.12506 12.1811 9.40886 10.6571L9.43016 10.5246Z" fill="#012169"/>
<path d="M6.32943 10.532C6.34361 10.4363 6.40038 10.3626 6.47843 10.3185C6.51392 10.3037 6.55648 10.289 6.59197 10.289H8.29488C8.49354 10.289 8.68513 10.3037 8.85542 10.3332C8.90508 10.3405 8.95475 10.3479 8.99734 10.3626C9.04701 10.37 9.08957 10.3847 9.13214 10.3994L9.19601 10.4215C9.28114 10.451 9.35919 10.4878 9.43016 10.5246C9.51529 9.96507 9.43016 9.58225 9.13924 9.23621C8.81285 8.85336 8.23103 8.69141 7.486 8.69141H5.32186C5.17286 8.69141 5.03806 8.80919 5.01675 8.96381L4.10854 14.8978C4.08726 15.0156 4.17949 15.1187 4.29303 15.1187H5.62699L5.96045 12.91L6.32943 10.532Z" fill="#003087"/>
<path fill-rule="evenodd" clip-rule="evenodd" d="M37.2517 1.03456H2.70075C1.90567 1.03456 1.26112 1.6791 1.26112 2.47419V22.6289C1.26112 23.424 1.90567 24.0686 2.70075 24.0686H37.2517C38.0469 24.0686 38.6914 23.424 38.6914 22.6289V2.47419C38.6914 1.6791 38.0469 1.03456 37.2517 1.03456ZM2.70075 0.554688C1.64064 0.554688 0.78125 1.41408 0.78125 2.47419V22.6289C0.78125 23.6891 1.64064 24.5484 2.70075 24.5484H37.2517C38.3118 24.5484 39.1712 23.6891 39.1712 22.6289V2.47419C39.1712 1.41408 38.3118 0.554688 37.2517 0.554688H2.70075Z" fill="#DDDDD8"/>
</g>
</g>
</g>
<defs>
<clipPath id="clip0_428_59193">
<rect width="38.39" height="24" fill="white" transform="translate(0.78125 0.550781)"/>
</clipPath>
<clipPath id="clip1_428_59193">
<rect width="38.39" height="24" fill="white" transform="translate(0.78125 0.550781)"/>
</clipPath>
<clipPath id="clip2_428_59193">
<rect width="38.39" height="23.9937" fill="white" transform="translate(0.78125 0.554688)"/>
</clipPath>
</defs>
</svg>
