<svg width="78" height="25" viewBox="0 0 78 25" fill="none" xmlns="http://www.w3.org/2000/svg">
<g clip-path="url(#clip0_428_59330)">
<g clip-path="url(#clip1_428_59330)">
<g clip-path="url(#clip2_428_59330)">
<path fill-rule="evenodd" clip-rule="evenodd" d="M68.8696 18.8888C68.8717 18.8628 68.902 18.8493 68.9226 18.8653C68.9301 18.8711 68.9374 18.8768 68.9445 18.8822C68.9882 18.916 69.0254 18.9448 69.0621 18.9744C69.8728 19.6259 70.7926 20.0394 71.8282 20.1712C72.5167 20.2589 73.2055 20.2456 73.8616 19.9751C74.593 19.6731 74.9592 19.1012 75.0259 18.3396C75.0506 18.0578 75.0511 17.7739 75.0516 17.4899V17.4889C75.0517 17.3684 75.052 17.2478 75.0541 17.1275C75.0544 17.1051 75.0511 17.0827 75.0473 17.0566C75.0467 17.0521 75.046 17.047 75.0453 17.0423C75.0433 17.0285 75.0282 17.0201 75.0153 17.0255C75.0019 17.0311 74.992 17.0352 74.9857 17.0422C74.5253 17.5628 73.9231 17.8319 73.257 17.963C72.174 18.176 71.1241 18.0607 70.1425 17.5448C69.0922 16.9928 68.4864 16.0951 68.1953 14.9731C68.0812 14.5325 68.0308 14.0828 68.0308 13.6276C68.031 11.6312 68.031 9.63489 68.031 7.63851C68.031 7.46451 68.0311 7.46412 68.2114 7.46412C68.4016 7.46407 68.5919 7.46431 68.7822 7.46455C69.2864 7.46519 69.7907 7.46583 70.2949 7.46099C70.435 7.45962 70.4671 7.5014 70.4666 7.63635C70.4659 7.98615 70.465 8.33597 70.4641 8.68577V8.68727C70.4599 10.3649 70.4556 12.0425 70.4702 13.72C70.4781 14.6525 71.0371 15.5945 72.2231 15.7989C72.9092 15.917 73.5625 15.8093 74.1267 15.3713C74.5528 15.0401 74.7671 14.5872 74.836 14.0654C74.863 13.8616 74.8653 13.6535 74.8657 13.4471C74.8672 11.9426 74.8671 10.4381 74.867 8.93364L74.8669 7.64676C74.8669 7.46451 74.8671 7.46412 75.0524 7.46412C75.2404 7.46407 75.4283 7.46417 75.6163 7.46427C76.105 7.46451 76.5932 7.46477 77.0815 7.46236C77.1857 7.46197 77.2217 7.4908 77.221 7.60026C77.2202 8.75372 77.221 9.90722 77.221 11.0606C77.2217 13.4863 77.2232 15.9119 77.2112 18.3374C77.206 19.3171 76.9127 20.223 76.2377 20.9737C75.6723 21.602 74.953 21.9724 74.143 22.1848C73.6639 22.3103 73.1754 22.3659 72.6805 22.3883C71.3065 22.4502 70.0787 22.0716 69.0013 21.2199C68.9038 21.1432 68.8615 21.062 68.8624 20.9358C68.867 20.4601 68.8666 19.9843 68.8661 19.5084V19.5068C68.8659 19.3222 68.8657 19.1376 68.8658 18.953C68.8658 18.9341 68.8674 18.9152 68.8696 18.8888ZM42.5324 13.4139L42.4724 13.8782C42.3301 14.9852 41.8558 15.9353 41.0789 16.7371C40.288 17.5532 39.3284 18.0629 38.1999 18.2501C36.3895 18.5508 34.2964 17.8148 33.2355 16.171C33.1218 15.9947 33.0355 15.8011 32.9494 15.6075C32.911 15.5212 32.8726 15.4349 32.8317 15.3502C32.7973 15.279 32.8099 15.2205 32.8657 15.1562C33.0237 14.9744 33.1766 14.7883 33.3295 14.6022L33.4378 14.4704C33.4502 14.4554 33.4593 14.4375 33.4716 14.4131C33.4812 14.3941 33.5082 14.396 33.5152 14.4161C33.5318 14.4629 33.547 14.5072 33.5614 14.5495C33.5994 14.6603 33.6327 14.7578 33.6747 14.8514C34.2757 16.1931 35.3087 17.0042 36.7664 17.2511C38.8765 17.6078 40.8946 16.1992 41.3758 14.2032C41.451 13.8917 41.4855 13.5659 41.4976 13.2454C41.5136 12.8285 41.5027 12.4094 41.4781 11.9927C41.4312 11.1988 41.1376 10.4905 40.6496 9.86529C39.9371 8.95194 39.0013 8.39447 37.8415 8.26142C36.6886 8.12927 35.6658 8.47607 34.7739 9.20207C33.8443 9.95844 33.041 10.8389 32.2697 11.7481C32.0277 12.0332 31.793 12.3242 31.5583 12.6153L31.5577 12.6161C31.4443 12.7568 31.3309 12.8974 31.2166 13.0374C31.2028 13.0544 31.188 13.0703 31.1689 13.0907L31.148 13.113C31.1426 13.1189 31.1329 13.1154 31.1323 13.1075C31.1316 13.0961 31.1308 13.0859 31.1302 13.0766C31.1284 13.0533 31.1271 13.0346 31.1271 13.0165L31.1269 12.7564C31.1264 12.4205 31.126 12.0845 31.1295 11.7486C31.1301 11.6906 31.1481 11.6213 31.183 11.5764C31.7992 10.7864 32.4378 10.0154 33.1556 9.31194C33.6865 8.79189 34.2626 8.32622 34.8923 7.92935C35.4706 7.56488 36.1096 7.35812 36.787 7.27005C39.4756 6.92009 41.8183 8.80367 42.3704 11.1145C42.4138 11.2958 42.4381 11.4816 42.4623 11.6675L42.4624 11.6684C42.474 11.7578 42.4858 11.8477 42.4996 11.9366C42.5062 11.9795 42.5143 12.0222 42.5224 12.0649C42.529 12.1006 42.5324 12.137 42.5324 12.1733V13.4139ZM49.9771 11.8703C49.8796 11.8694 49.7822 11.8685 49.6849 11.8685C49.576 11.8685 49.4671 11.8682 49.3583 11.868C49.0726 11.8674 48.7869 11.8667 48.5011 11.8704C48.3908 11.8718 48.352 11.8398 48.3524 11.7257C48.3556 10.3239 48.3554 8.92194 48.3526 7.52013C48.3524 7.42165 48.3827 7.38419 48.4831 7.38458C48.7637 7.38528 49.0444 7.38478 49.3249 7.38429C49.8335 7.38339 50.3422 7.3825 50.8507 7.3887C51.2174 7.39321 51.5792 7.44735 51.9257 7.58408C52.4808 7.80319 52.8497 8.19182 53.0168 8.75754C53.1889 9.34052 53.1853 9.92822 52.9883 10.5051C52.742 11.2265 52.2071 11.6325 51.4729 11.7849C51.2047 11.8404 50.9259 11.8541 50.6509 11.8653C50.4266 11.8746 50.2018 11.8725 49.9771 11.8703ZM48.1914 18.112C48.2815 18.112 48.3544 18.039 48.3544 17.949V17.9382V14.2016C48.3544 14.0234 48.3548 14.0224 48.5334 14.0222L48.9913 14.022C49.6012 14.0218 50.2112 14.0216 50.8212 14.0224C51.3127 14.0229 51.798 13.9733 52.2736 13.85C53.6808 13.4839 54.6919 12.6692 55.1787 11.2859C55.5022 10.3661 55.5226 9.42017 55.3378 8.46992C55.1923 7.72139 54.8715 7.05424 54.3277 6.50616C53.4606 5.63264 52.3644 5.27248 51.1679 5.24404C50.0074 5.21655 48.8462 5.222 47.685 5.22745C47.1892 5.22978 46.6936 5.23211 46.1979 5.23188C46.0205 5.23168 46.0199 5.23227 46.0199 5.4096C46.0197 6.76745 46.0197 8.12552 46.0197 9.48332L46.0198 10.8368V10.8437C46.0198 13.2095 46.02 15.5753 46.0171 17.9411C46.0171 18.0729 46.0462 18.1175 46.1898 18.1159C46.6846 18.1097 47.1794 18.1105 47.6742 18.1114C47.8466 18.1117 48.019 18.112 48.1914 18.112ZM64.2289 12.3945C64.2179 12.1325 64.207 11.8705 64.1601 11.6148C63.9935 10.7091 63.4795 10.0612 62.5971 9.73284C62.0452 9.52742 61.4743 9.51174 60.8972 9.61239C59.8259 9.79974 59.0005 10.631 58.8398 11.6935C58.7499 12.2873 58.7518 12.8861 58.815 13.4799C58.9206 14.471 59.4285 15.2015 60.3449 15.6289C60.916 15.8951 61.5196 15.92 62.1394 15.8364C63.1163 15.705 63.8468 15.0859 64.1111 14.1455C64.2148 13.777 64.2262 13.4027 64.2377 13.0262C64.2405 12.9353 64.2433 12.8442 64.2474 12.7532C64.2389 12.6341 64.2339 12.5141 64.2289 12.3945ZM64.224 17.2521C64.2232 17.165 64.1149 17.1206 64.0501 17.1789C63.5512 17.6282 62.9671 17.886 62.3139 18.0146C61.7719 18.1216 61.2258 18.1145 60.6784 18.0584C60.0135 17.99 59.3806 17.8157 58.7938 17.4956C57.7037 16.901 57.0388 15.9793 56.7055 14.8072C56.5584 14.2903 56.4922 13.7609 56.4902 13.2255C56.4899 13.1448 56.4894 13.0641 56.4888 12.9833C56.4857 12.5473 56.4826 12.1097 56.5198 11.6766C56.6905 9.68199 57.829 8.02247 60.0495 7.50087C61.2101 7.22801 62.3741 7.25175 63.5056 7.64094C65.0308 8.16587 65.9613 9.24242 66.3547 10.784C66.4704 11.238 66.5229 11.7005 66.5224 12.1694C66.5214 13.4515 66.5215 14.7336 66.5216 16.0157V16.0965L66.5217 17.7934C66.5217 17.9834 66.5215 17.9837 66.3292 17.9838C66.1604 17.9838 65.9917 17.9837 65.8228 17.9835C65.3426 17.983 64.8625 17.9825 64.3825 17.986C64.2628 17.9868 64.2141 17.9603 64.2195 17.8295C64.2271 17.6374 64.2256 17.4445 64.224 17.2521ZM7.08458 12.0311C7.08671 12.0602 7.11092 12.0829 7.14011 12.0829H11.3062C11.3359 12.0829 11.3608 12.1055 11.3643 12.1349C11.3681 12.167 11.3716 12.196 11.3716 12.2251L11.3717 12.4498C11.3725 13.6877 11.3733 14.9257 11.3682 16.1636C11.3678 16.2345 11.3284 16.3261 11.2753 16.3714C11.0973 16.5234 10.9139 16.6733 10.7159 16.7983C9.99119 17.2557 9.18502 17.4795 8.33849 17.5758C7.61885 17.6579 6.90003 17.6727 6.18735 17.5223C4.42455 17.1503 3.13463 16.163 2.32333 14.5722C1.95283 13.8458 1.77857 13.0676 1.7455 12.2524C1.71956 11.6107 1.75204 10.9787 1.93124 10.36C2.28512 9.13847 2.99305 8.15409 4.00633 7.38633C5.07486 6.57676 6.28319 6.13854 7.63331 6.12147C8.085 6.11598 8.53829 6.13991 8.98897 6.17522C9.61139 6.22425 10.2118 6.37197 10.7773 6.64248C10.8521 6.67816 10.9258 6.7158 11.0058 6.7566C11.0574 6.78297 11.1184 6.74544 11.1181 6.68745C11.1177 6.6333 11.1172 6.57964 11.1167 6.52638C11.1146 6.30177 11.1125 6.08424 11.1229 5.86743C11.1298 5.72188 11.0737 5.66559 10.9464 5.6187C10.3219 5.3884 9.67529 5.26796 9.01349 5.21676C8.33947 5.16438 7.66638 5.1383 6.99113 5.21244C6.07032 5.31327 5.19941 5.5726 4.38515 6.00593C2.84908 6.82295 1.72134 8.01111 1.10015 9.63812C0.627861 10.8753 0.60093 12.1556 0.873013 13.4305C1.3354 15.5963 2.6067 17.1527 4.63406 18.0837C5.79051 18.6149 7.01647 18.7277 8.27474 18.5926C9.01409 18.5129 9.72802 18.3421 10.407 18.0416C11.1266 17.7232 11.7807 17.3093 12.2985 16.7096C12.346 16.6544 12.3785 16.5666 12.3787 16.4938C12.3811 15.5206 12.3817 14.5475 12.3822 13.5742C12.3826 12.7895 12.3831 12.0044 12.3844 11.2196C12.3847 11.1007 12.3486 11.0666 12.2292 11.0681C11.8641 11.0726 11.4989 11.0719 11.1337 11.0712C10.9996 11.0709 10.8654 11.0707 10.7314 11.0707H7.27271C7.07905 11.0707 7.07905 11.0708 7.07905 11.2559L7.07897 11.3402C7.07877 11.5367 7.07858 11.7337 7.07944 11.9303C7.07958 11.9627 7.08195 11.9951 7.08458 12.0311ZM26.7812 17.0074C26.8058 16.9993 26.8311 17.0176 26.8311 17.0435C26.8312 17.1026 26.8313 17.1613 26.8315 17.2195C26.8321 17.4636 26.8327 17.7 26.8265 17.9362C26.8255 17.9719 26.7655 18.026 26.7235 18.0374C26.6385 18.0606 26.5535 18.086 26.4685 18.1115C26.2363 18.1808 26.0036 18.2504 25.7663 18.2756C24.4354 18.4164 23.2316 18.0672 22.1732 17.2608C21.0592 16.4122 20.3706 15.2953 20.1906 13.9119C20.1225 13.3876 20.1343 12.8508 20.1459 12.3182C20.1473 12.2527 20.1487 12.1874 20.15 12.1221C20.1732 10.9253 20.6148 9.88112 21.4037 8.98352C22.1893 8.08982 23.171 7.50738 24.3518 7.30395C25.9521 7.02854 27.3834 7.42401 28.6133 8.47719C29.5648 9.29169 30.1345 10.328 30.3377 11.5571C30.3761 11.7908 30.3951 12.0303 30.3955 12.2673C30.3991 13.7903 30.3988 15.3134 30.3985 16.8365L30.3983 18.1216C30.3983 18.2211 30.3175 18.3019 30.218 18.3019H29.5715C29.4652 18.3019 29.3791 18.2157 29.3791 18.1094C29.3791 17.5131 29.3803 16.9168 29.3815 16.3205C29.3842 14.9654 29.387 13.6103 29.3755 12.2551C29.3581 10.2038 27.8618 8.63514 26.0266 8.29554C23.8069 7.88479 21.6716 9.38822 21.231 11.5379C21.187 11.7521 21.1597 11.9734 21.157 12.1918C21.1555 12.3004 21.1528 12.4092 21.15 12.518C21.1381 12.984 21.1262 13.4511 21.2199 13.9119C21.5249 15.4106 22.4071 16.4483 23.8255 17.0276C24.7673 17.4122 25.7254 17.3825 26.6782 17.0423C26.7106 17.0307 26.7431 17.02 26.7812 17.0074ZM10.5771 13.0092C10.5771 12.93 10.5129 12.8658 10.4337 12.8658H7.33319C7.19393 12.8658 7.08122 12.9787 7.08221 13.118C7.08365 13.3181 7.08504 13.5146 7.07805 13.7107C7.0735 13.838 7.11627 13.8676 7.23845 13.8671C7.58401 13.8647 7.92961 13.8647 8.27527 13.8647C8.66939 13.8648 9.06352 13.8649 9.45772 13.8614C9.59887 13.8599 9.63592 13.9069 9.63374 14.0389C9.62722 14.4614 9.62894 14.8841 9.63292 15.3067C9.63374 15.402 9.59984 15.4526 9.50894 15.4854C8.61232 15.8084 7.68836 15.9397 6.74478 15.7924C5.40813 15.5837 4.46475 14.8361 3.89009 13.6307C3.60117 13.0247 3.53444 12.3772 3.54751 11.7137C3.55919 11.1411 3.67939 10.5966 3.96533 10.1021C4.78991 8.67557 6.06616 7.97546 7.70084 7.90641C8.16421 7.88699 8.63354 7.93446 9.09652 7.9839C9.78757 8.05787 10.4276 8.28384 10.9886 8.70362C11.0123 8.72132 11.0372 8.73752 11.0667 8.75679C11.0896 8.77172 11.1203 8.75537 11.1203 8.72799C11.1204 8.66004 11.1205 8.59284 11.1206 8.52639C11.1211 8.23817 11.1215 7.96211 11.1165 7.68651C11.116 7.6461 11.0716 7.58901 11.0323 7.56979C10.85 7.48035 10.6652 7.39383 10.4757 7.32027C9.80287 7.05938 9.10027 6.9507 8.38162 6.90597C7.53509 6.85321 6.70616 6.92088 5.90774 7.21611C4.58099 7.70691 3.57365 8.55827 2.95285 9.83214C2.61423 10.5266 2.51581 11.2657 2.52888 12.0309C2.54255 12.8217 2.69819 13.5763 3.07997 14.27C3.95267 15.8552 5.30219 16.731 7.12637 16.8503C7.74698 16.8907 8.36737 16.8254 8.97569 16.6896C9.51374 16.5692 10.027 16.3854 10.469 16.0415C10.5472 15.9805 10.5799 15.9158 10.5795 15.8145C10.5764 15.0874 10.5767 14.3602 10.5769 13.6328L10.5771 13.0092ZM34.982 12.8956C35.0155 13.0584 35.0465 13.2083 35.0887 13.3547C35.2612 13.9521 35.5597 14.4773 36.0106 14.9174C36.9608 15.8455 38.2918 15.5873 39.0331 14.8367C39.4429 14.422 39.669 13.9225 39.6793 13.3391C39.6808 13.2556 39.6829 13.172 39.6849 13.0883C39.6936 12.7316 39.7023 12.3739 39.6696 12.0205C39.5823 11.0803 38.8658 10.2955 37.9349 10.0858C37.1153 9.90137 36.4015 10.1261 35.7865 10.6751C34.9687 11.4053 34.2577 12.2357 33.5511 13.0676C32.9868 13.7317 32.4348 14.4059 31.8828 15.0803C31.6492 15.3656 31.4153 15.6513 31.1807 15.9359L31.1773 15.9403C31.1742 15.9443 31.171 15.9486 31.1659 15.9525C31.1512 15.9638 31.1328 15.9488 31.1308 15.9305C31.1283 15.906 31.1257 15.8816 31.1257 15.8573C31.1256 15.7662 31.1254 15.6751 31.1251 15.584C31.1242 15.239 31.1232 14.894 31.1289 14.549C31.1301 14.4751 31.1581 14.389 31.2029 14.3302C31.9309 13.3695 32.7222 12.4609 33.543 11.5781L33.5568 11.5634C34.0007 11.0857 34.4452 10.6074 34.9147 10.155C35.4513 9.63752 36.0733 9.23837 36.8165 9.08079C37.7017 8.89344 38.5193 9.09257 39.2537 9.60414C40.0094 10.1306 40.4881 10.8457 40.6597 11.7508C40.6896 11.9085 40.7021 12.0719 40.7011 12.2326C40.7002 12.3553 40.701 12.4783 40.7018 12.6013C40.7041 12.964 40.7064 13.3274 40.667 13.6858C40.5268 14.9557 39.5613 16.0401 38.2991 16.3961C36.9175 16.7859 35.5096 16.2359 34.6948 14.9894C34.4465 14.6091 34.267 14.1991 34.1632 13.7589C34.1485 13.6965 34.1697 13.6055 34.2095 13.5547C34.3585 13.3639 34.5132 13.1774 34.6678 12.9909C34.7349 12.9101 34.8022 12.8289 34.8688 12.7477C34.8813 12.7325 34.8911 12.715 34.9042 12.6916C34.9132 12.6758 34.9365 12.6794 34.9404 12.6972C34.9552 12.7658 34.9688 12.8317 34.982 12.8956ZM26.8347 15.2761V15.2743C26.8345 15.2081 26.8342 15.1412 26.8342 15.0734C26.8342 15.05 26.8082 15.0361 26.7887 15.0488C26.7521 15.0729 26.7248 15.0908 26.6971 15.1082C26.1541 15.4467 25.5595 15.5783 24.9289 15.4891C23.7776 15.326 22.9673 14.3798 22.9673 13.2279C22.9673 13.1331 22.9666 13.0382 22.9659 12.9434C22.9642 12.719 22.9625 12.4945 22.9703 12.2705C22.9766 12.0882 22.9959 11.9022 23.0404 11.7255C23.3146 10.6344 24.3169 10.0091 25.264 10.0257C26.0725 10.04 26.708 10.3608 27.1729 11.0099C27.469 11.423 27.5771 11.896 27.5771 12.3964C27.5776 13.401 27.5775 14.4056 27.5774 15.4101L27.5773 16.6174C27.5773 16.7546 27.5775 16.8917 27.5776 17.0288C27.5782 17.4087 27.5787 17.7885 27.5753 18.1683C27.5743 18.2764 27.6022 18.3201 27.7197 18.3156C27.8776 18.3096 28.036 18.3108 28.1943 18.312C28.2629 18.3126 28.3317 18.3131 28.4003 18.3131C28.5868 18.3131 28.5872 18.3131 28.5872 18.1316L28.5875 16.9741C28.5879 15.4314 28.5883 13.8888 28.5847 12.3464C28.5841 12.1186 28.5664 11.8877 28.5241 11.6643C28.0558 9.19772 25.128 8.22062 23.2354 9.72774C22.3883 10.4027 21.94 11.2802 21.9491 12.3707C21.9515 12.6584 21.9511 12.9462 21.9491 13.2338C21.9451 13.8233 22.1035 14.369 22.4053 14.8737C23.1204 16.0701 24.4363 16.6871 25.8268 16.475C26.1458 16.4264 26.4547 16.3346 26.7256 16.1511C26.7724 16.1198 26.8282 16.0601 26.8296 16.0121C26.8363 15.7703 26.8355 15.5285 26.8347 15.2761ZM21.0688 7.79067C21.1783 7.8492 21.2041 7.99653 21.1198 8.08749L20.766 8.46864C20.6556 8.58752 20.4846 8.62742 20.3349 8.56502C20.1575 8.49114 19.981 8.41757 19.7971 8.37617C18.1834 8.01408 16.7445 8.31654 15.5841 9.54647C15.0663 10.0954 14.778 10.7696 14.6668 11.5091C14.6142 11.8579 14.5942 12.2145 14.5928 12.5678C14.5877 13.9191 14.5884 15.2704 14.589 16.6217C14.5893 17.1224 14.5895 17.6231 14.5894 18.1238C14.5894 18.3138 14.5892 18.3138 14.3977 18.314C14.3303 18.314 14.2628 18.3137 14.1954 18.3133C14.0314 18.3125 13.8673 18.3116 13.7035 18.3158C13.6066 18.3183 13.5702 18.2828 13.5795 18.1913C13.5811 18.1763 13.5807 18.161 13.5802 18.1457C13.5799 18.1384 13.5797 18.131 13.5797 18.1238L13.5799 16.4709C13.5802 15.0935 13.5804 13.716 13.5791 12.3385C13.5781 11.2271 13.854 10.1966 14.5057 9.28284C15.276 8.20217 16.3392 7.56741 17.6428 7.32299C18.6562 7.13291 19.6537 7.19568 20.6191 7.57212C20.7721 7.63179 20.9176 7.70974 21.0688 7.79067ZM19.5052 10.133C19.6168 10.1624 19.7323 10.1089 19.7845 10.006L20.0906 9.40149C20.1158 9.35177 20.0941 9.29072 20.0436 9.26694C19.9771 9.23567 19.9106 9.20454 19.8412 9.18302C19.2515 8.99882 18.6507 8.96274 18.0428 9.07142C16.5247 9.34314 15.4093 10.5926 15.3915 12.1946C15.3757 13.5945 15.3794 14.9948 15.3831 16.395C15.3847 16.982 15.3862 17.5694 15.3863 18.1563C15.3863 18.1879 15.3885 18.2195 15.3907 18.2508C15.3925 18.2772 15.4144 18.298 15.4409 18.298H16.2184C16.3207 18.298 16.4038 18.215 16.4038 18.1126L16.4037 16.6457C16.4035 15.1787 16.4034 13.7119 16.4046 12.245C16.4047 11.8616 16.4915 11.4956 16.6759 11.158C17.1814 10.2327 18.1198 9.93039 19.0901 10.044C19.2298 10.0603 19.3672 10.0967 19.5052 10.133ZM32.1973 3.23183C32.1973 2.94882 32.4268 2.71939 32.7098 2.71939H33.166C33.1852 2.71939 33.2008 2.73444 33.202 2.75353C33.2024 2.76101 33.2029 2.76838 33.2033 2.77567C33.2053 2.80797 33.2071 2.83861 33.2071 2.86926L33.2073 4.34238C33.2073 5.56883 33.2074 6.79531 33.2089 8.0217C33.2091 8.10917 33.1813 8.16744 33.1183 8.23097C32.916 8.43444 32.7183 8.64234 32.5207 8.85024C32.4509 8.92359 32.3811 8.99702 32.3111 9.07022C32.2904 9.09204 32.2703 9.11447 32.2463 9.14132C32.2291 9.16044 32.1973 9.14867 32.1973 9.12294V3.23183ZM34.0039 7.51421V7.53656C34.0039 7.59912 34.0741 7.63607 34.1257 7.60072C34.1971 7.55207 34.2682 7.50289 34.3393 7.45371C34.5212 7.32799 34.7031 7.20224 34.8906 7.0852C34.9848 7.02635 35.017 6.96554 35.0167 6.85981C35.0144 6.08515 35.0146 5.31061 35.0149 4.53609C35.015 4.28996 35.0151 4.04383 35.0151 3.7977C35.0151 3.50091 35.0151 3.20411 35.0149 2.90731C35.0149 2.70723 35.0147 2.70723 34.8194 2.70703H34.1923C34.0045 2.70723 34.0041 2.70723 34.0041 2.8875C34.0039 4.42974 34.0039 5.97198 34.0039 7.51421Z" fill="#00B041"/>
</g>
</g>
</g>
<defs>
<clipPath id="clip0_428_59330">
<rect width="77.25" height="24" fill="white" transform="translate(0.699219 0.550781)"/>
</clipPath>
<clipPath id="clip1_428_59330">
<rect width="77.25" height="24" fill="white" transform="translate(0.699219 0.550781)"/>
</clipPath>
<clipPath id="clip2_428_59330">
<rect width="77.25" height="24" fill="white" transform="translate(0.699219 0.550781)"/>
</clipPath>
</defs>
</svg>
