<svg width="35" height="22" viewBox="0 0 35 22" fill="none" xmlns="http://www.w3.org/2000/svg">
<g clip-path="url(#clip0_428_55683)">
<g clip-path="url(#clip1_428_55683)">
<g clip-path="url(#clip2_428_55683)">
<path d="M33.25 0.0625H1.75C0.783502 0.0625 0 0.846002 0 1.8125V20.1875C0 21.154 0.783502 21.9375 1.75 21.9375H33.25C34.2165 21.9375 35 21.154 35 20.1875V1.8125C35 0.846002 34.2165 0.0625 33.25 0.0625Z" fill="white"/>
<path d="M8.75 2.25V10.9727V19.75H17.4997H26.25V11.0002V2.25H17.5031H8.75Z" fill="white"/>
<path d="M23.1291 6.54334L23.6891 5.02084H26.25V2.25H8.75V19.75H26.25V16.985H23.835L22.9425 15.9408L22.015 16.985H15.155V11.4258H12.8917L15.7208 5.02084H18.4741L19.1392 6.47334V5.02084H22.5575L23.1291 6.54334ZM21.1983 7.5525L21.1925 6.94L21.4258 7.5525L22.5634 10.5917H23.695L24.8384 7.5525L25.06 6.94584V10.5917H26.25V5.925H24.2725L23.3741 8.29336L23.135 8.935L22.89 8.29336L21.9859 5.925H20.0083V10.5917H21.1983V7.5525ZM18.6375 10.5917H20.0083L17.955 5.925H16.3625L14.2975 10.5917H15.6508L16.0125 9.69334H18.2758L18.6375 10.5917ZM16.9109 7.50586L17.1442 6.9225L17.3775 7.50586L17.8617 8.68416H16.4267L16.9109 7.50586ZM16.1116 11.4316V16.0808H20.0083V15.0717H17.3017V14.2608H19.9558V13.2575H17.3017V12.4408H20.0083V11.4316H16.1116ZM24.3425 16.0808H25.8884L23.7066 13.7475L25.8884 11.4316H24.3659L22.96 12.9425L21.56 11.4316H20.0083L22.1841 13.765L20.0083 16.0808H21.5133L22.9309 14.5642L24.3425 16.0808ZM24.9316 13.7417L26.25 15.0833V12.4175L24.9316 13.7417Z" fill="#006FCF"/>
<path fill-rule="evenodd" clip-rule="evenodd" d="M33.25 0.5H1.75C1.02513 0.5 0.4375 1.08763 0.4375 1.8125V20.1875C0.4375 20.9124 1.02513 21.5 1.75 21.5H33.25C33.9749 21.5 34.5625 20.9124 34.5625 20.1875V1.8125C34.5625 1.08763 33.9749 0.5 33.25 0.5ZM1.75 0.0625C0.783501 0.0625 0 0.846001 0 1.8125V20.1875C0 21.154 0.783501 21.9375 1.75 21.9375H33.25C34.2164 21.9375 35 21.154 35 20.1875V1.8125C35 0.846001 34.2164 0.0625 33.25 0.0625H1.75Z" fill="#DDDDD8"/>
</g>
</g>
</g>
<defs>
<clipPath id="clip0_428_55683">
<rect width="35" height="22" rx="5" fill="white"/>
</clipPath>
<clipPath id="clip1_428_55683">
<rect width="35" height="22" fill="white"/>
</clipPath>
<clipPath id="clip2_428_55683">
<rect width="35" height="21.875" fill="white" transform="translate(0 0.0625)"/>
</clipPath>
</defs>
</svg>
