<svg width="39" height="25" viewBox="0 0 39 25" fill="none" xmlns="http://www.w3.org/2000/svg">
<g clip-path="url(#clip0_428_59207)">
<g clip-path="url(#clip1_428_59207)">
<g clip-path="url(#clip2_428_59207)">
<path d="M36.6424 0.554688H2.09137C1.03126 0.554688 0.171875 1.41408 0.171875 2.47419V22.6289C0.171875 23.689 1.03126 24.5484 2.09137 24.5484H36.6424C37.7025 24.5484 38.5619 23.689 38.5619 22.6289V2.47419C38.5619 1.41408 37.7025 0.554688 36.6424 0.554688Z" fill="white"/>
<path d="M9.76953 2.95312V12.5207V22.1481H19.3667H28.9645V12.5509V2.95312H19.3705H9.76953Z" fill="white"/>
<path d="M25.5413 7.66231L26.1556 5.99234H28.9645V2.95312H9.76953V22.1481H28.9645V19.1153H26.3156L25.3367 17.97L24.3193 19.1153H16.7949V13.0177H14.3123L17.4155 5.99234H20.4355L21.165 7.58553V5.99234H24.9144L25.5413 7.66231ZM23.4236 8.76921L23.4172 8.09739L23.6731 8.76921L24.9209 12.1027H26.1621L27.4162 8.76921L27.6593 8.10379V12.1027H28.9645V6.98407H26.7955L25.8101 9.58183L25.5478 10.2856L25.2791 9.58183L24.2874 6.98407H22.1183V12.1027H23.4236V8.76921ZM20.6147 12.1027H22.1183L19.8661 6.98407H18.1194L15.8543 12.1027H17.3388L17.7355 11.1174H20.218L20.6147 12.1027ZM18.7208 8.71805L18.9767 8.07819L19.2327 8.71805L19.7637 10.0105H18.1897L18.7208 8.71805ZM17.8442 13.0241V18.1236H22.1183V17.0167H19.1495V16.1273H22.0607V15.0268H19.1495V14.131H22.1183V13.0241H17.8442ZM26.8723 18.1236H28.5679L26.1748 15.5642L28.5679 13.0241H26.8979L25.3559 14.6813L23.8203 13.0241H22.1183L24.5048 15.5834L22.1183 18.1236H23.7691L25.324 16.46L26.8723 18.1236ZM27.5184 15.5578L28.9645 17.0295V14.1054L27.5184 15.5578Z" fill="#006FCF"/>
<path fill-rule="evenodd" clip-rule="evenodd" d="M36.6424 1.03456H2.09137C1.29629 1.03456 0.65175 1.6791 0.65175 2.47419V22.6289C0.65175 23.424 1.29629 24.0686 2.09137 24.0686H36.6424C37.4375 24.0686 38.082 23.424 38.082 22.6289V2.47419C38.082 1.6791 37.4375 1.03456 36.6424 1.03456ZM2.09137 0.554688C1.03126 0.554688 0.171875 1.41408 0.171875 2.47419V22.6289C0.171875 23.6891 1.03126 24.5484 2.09137 24.5484H36.6424C37.7024 24.5484 38.5619 23.6891 38.5619 22.6289V2.47419C38.5619 1.41408 37.7024 0.554688 36.6424 0.554688H2.09137Z" fill="#DDDDD8"/>
</g>
</g>
</g>
<defs>
<clipPath id="clip0_428_59207">
<rect width="38.39" height="24" fill="white" transform="translate(0.171875 0.550781)"/>
</clipPath>
<clipPath id="clip1_428_59207">
<rect width="38.39" height="24" fill="white" transform="translate(0.171875 0.550781)"/>
</clipPath>
<clipPath id="clip2_428_59207">
<rect width="38.39" height="23.9937" fill="white" transform="translate(0.171875 0.554688)"/>
</clipPath>
</defs>
</svg>
