<svg width="40" height="25" viewBox="0 0 40 25" fill="none" xmlns="http://www.w3.org/2000/svg">
<g clip-path="url(#clip0_428_59222)">
<g clip-path="url(#clip1_428_59222)">
<g clip-path="url(#clip2_428_59222)">
<path d="M37.4181 0.792969H2.86706C1.93947 0.792969 1.1875 1.54493 1.1875 2.47253V22.6273C1.1875 23.5549 1.93947 24.3068 2.86706 24.3068H37.4181C38.3457 24.3068 39.0976 23.5549 39.0976 22.6273V2.47253C39.0976 1.54493 38.3457 0.792969 37.4181 0.792969Z" fill="white"/>
<path d="M3.80469 9.85697C3.80469 9.80533 3.81848 9.7643 3.84536 9.7334C3.87271 9.703 3.91312 9.6875 3.96734 9.6875H6.32115C6.49026 9.6875 6.64987 9.71068 6.79983 9.75747C6.9494 9.80423 7.08703 9.8687 7.2123 9.95088C7.33724 10.0332 7.45054 10.1314 7.55141 10.246C7.6518 10.3598 7.73714 10.4833 7.80711 10.6161C7.87695 10.7485 7.93056 10.8881 7.96744 11.0341C8.00431 11.1799 8.02265 11.3282 8.02265 11.4779C8.02265 11.6991 7.98246 11.915 7.90308 12.1264C7.82311 12.3375 7.70931 12.5256 7.56228 12.69C7.41488 12.8543 7.23795 12.9878 7.03194 13.0894C6.82521 13.1916 6.59698 13.2439 6.34654 13.2462H5.23056V14.9997C5.23056 15.1052 5.17415 15.1575 5.06122 15.1575H3.96734C3.91789 15.1575 3.87868 15.1447 3.84927 15.1195C3.81971 15.0935 3.80469 15.0534 3.80469 14.9997V9.85697ZM6.5788 11.4703C6.5788 11.3966 6.56598 11.3229 6.54009 11.2493C6.51409 11.1758 6.47709 11.1098 6.42788 11.0523C6.37879 10.9947 6.31906 10.9474 6.24922 10.9104C6.17901 10.8738 6.09988 10.8551 6.01158 10.8551H5.23071V12.0855H6.01158C6.09988 12.0855 6.17949 12.0677 6.25092 12.0321C6.32211 11.9965 6.38195 11.9507 6.42958 11.8943C6.47745 11.8375 6.51409 11.7727 6.54022 11.699C6.56598 11.6251 6.5788 11.5492 6.5788 11.4703Z" fill="#941F7F"/>
<path d="M10.2033 9.83098C10.2055 9.81644 10.2134 9.80058 10.2271 9.78311C10.2405 9.76589 10.2575 9.75003 10.2769 9.73525C10.2963 9.72023 10.3176 9.709 10.3398 9.70031C10.3615 9.69177 10.3825 9.6875 10.402 9.6875H11.3454C11.3869 9.6875 11.4224 9.70031 11.4522 9.72608C11.4815 9.75197 11.5034 9.77457 11.5182 9.79446L11.6101 10.0042L13.5442 14.992C13.564 15.0412 13.56 15.0808 13.533 15.1116C13.5064 15.1422 13.4596 15.1577 13.3932 15.1577H12.3363C12.2794 15.1577 12.2359 15.1473 12.2055 15.1265C12.1746 15.1052 12.1505 15.0705 12.1336 15.0213C12.0844 14.8963 12.0365 14.7716 11.99 14.6475C11.943 14.5234 11.8962 14.3992 11.8497 14.2736H9.8936C9.84708 14.3992 9.79981 14.5236 9.75194 14.6475C9.70407 14.7715 9.65683 14.8961 9.61007 15.0213C9.57794 15.1123 9.51592 15.1577 9.42239 15.1577H8.33559C8.28883 15.1577 8.25048 15.1452 8.21958 15.1209C8.18882 15.0963 8.18306 15.0594 8.20322 15.0101L10.2033 9.83098ZM10.8738 11.4077C10.827 11.533 10.7796 11.668 10.7318 11.8127C10.6839 11.9578 10.6366 12.1038 10.5899 12.251C10.5436 12.3986 10.4962 12.5439 10.4484 12.6876C10.4005 12.8315 10.3532 12.9658 10.3065 13.0911H11.4373L10.8738 11.4077Z" fill="#941F7F"/>
<path d="M15.1784 11.706L16.068 9.80142C16.0825 9.77213 16.095 9.75063 16.1046 9.73719C16.1148 9.72351 16.1244 9.71375 16.1342 9.70741C16.144 9.70142 16.1546 9.69774 16.1653 9.69654C16.1766 9.69544 16.1894 9.69263 16.2042 9.6875H17.6222C17.6398 9.6875 17.6539 9.69323 17.665 9.7041C17.6758 9.71509 17.6813 9.72817 17.6813 9.74269C17.6813 9.76968 17.6641 9.8007 17.6302 9.83465L15.884 12.9253V14.9848C15.884 15.0998 15.8276 15.1576 15.7149 15.1576H14.6123C14.5634 15.1576 14.5259 15.1421 14.4985 15.1115C14.4717 15.0805 14.4581 15.0385 14.4581 14.9848V12.9182L12.7158 9.83465C12.6839 9.80289 12.668 9.77225 12.668 9.74269C12.668 9.72817 12.6731 9.71509 12.6827 9.7041C12.6926 9.69323 12.706 9.6875 12.7233 9.6875H14.1416C14.1586 9.69263 14.1721 9.69544 14.1818 9.69654C14.1919 9.69774 14.2016 9.70142 14.2116 9.70741C14.2213 9.71375 14.231 9.72351 14.2408 9.73719C14.2509 9.75063 14.2643 9.77225 14.2814 9.80142L15.1784 11.706Z" fill="#941F7F"/>
<path d="M18.1953 9.84953C18.1953 9.80533 18.2087 9.76723 18.2357 9.73549C18.2626 9.70324 18.3034 9.68762 18.3572 9.68762H19.5621C19.596 9.68762 19.6319 9.69616 19.6688 9.71301C19.7057 9.73059 19.7374 9.76003 19.7646 9.80166C20.0764 10.305 20.3857 10.8009 20.6927 11.2897C20.9998 11.7785 21.3106 12.2747 21.6247 12.778V9.82731C21.6344 9.78321 21.6537 9.74842 21.6836 9.72412C21.7131 9.69969 21.7478 9.6875 21.7865 9.6875H22.8363C22.8884 9.6875 22.9314 9.70118 22.9657 9.72961C23 9.75795 23.0172 9.79787 23.0172 9.84941V15.0138C23.0172 15.063 23.0026 15.099 22.973 15.1225C22.9433 15.146 22.9031 15.1578 22.8515 15.1578H21.6763C21.6443 15.1578 21.6164 15.1466 21.5918 15.1242C21.5672 15.1024 21.5414 15.0731 21.5145 15.0361C21.1875 14.4957 20.8649 13.9616 20.5455 13.4336C20.2265 12.9057 19.9023 12.3715 19.5732 11.8311V14.9954C19.5732 15.0494 19.5609 15.09 19.5361 15.1171C19.5117 15.1441 19.4673 15.1578 19.4037 15.1578H18.3575C18.3011 15.1578 18.26 15.1424 18.2341 15.1113C18.2084 15.0807 18.1956 15.0433 18.1956 14.9993L18.1953 9.84953Z" fill="#941F7F"/>
<path d="M31.6621 15.0806C31.6374 15.0389 31.6141 14.9958 31.5923 14.9518C31.5705 14.9072 31.5506 14.863 31.5335 14.8191C31.2163 13.984 30.9011 13.1565 30.5867 12.3362C30.2724 11.5158 29.9569 10.6884 29.6395 9.85344C29.6395 9.84099 29.6378 9.83024 29.6344 9.82023C29.6306 9.81032 29.6289 9.80068 29.6289 9.79091C29.6289 9.72217 29.6743 9.68774 29.7652 9.68774H30.9514C31.045 9.68774 31.1081 9.7345 31.1429 9.82755L32.2699 13.1833L33.3124 9.82755C33.3467 9.7345 33.4142 9.68774 33.5149 9.68774H34.7127C34.7686 9.68774 34.8089 9.69811 34.8319 9.71886C34.8555 9.73964 34.8672 9.76735 34.8672 9.80178C34.8672 9.82119 34.8658 9.83487 34.8634 9.84245V9.85332L34.2076 11.7317L34.7014 13.1794L35.8951 9.82731C35.9292 9.73426 35.9966 9.6875 36.0971 9.6875H37.258C37.3141 9.6875 37.3537 9.69787 37.3774 9.71862C37.4007 9.73938 37.4125 9.76711 37.4125 9.80154C37.4125 9.82095 37.4115 9.83463 37.4086 9.84221V9.85308C37.2419 10.2851 37.071 10.7162 36.8969 11.1459C36.7222 11.5756 36.5473 12.0053 36.3724 12.4349C36.196 12.8648 36.0218 13.2955 35.8488 13.7259C35.6756 14.1571 35.5067 14.5877 35.3423 15.017C35.3327 15.0445 35.3109 15.0742 35.2761 15.1077C35.2415 15.1408 35.2 15.1576 35.1508 15.1576H35.1398H34.2482C34.1942 15.1576 34.1529 15.1469 34.1249 15.1259C34.0968 15.1052 34.0764 15.0775 34.0639 15.043L33.4821 13.5103C33.3988 13.7342 33.3165 13.9532 33.2354 14.1682C33.1541 14.3831 33.0732 14.6025 32.9923 14.8255C32.9801 14.8602 32.9657 14.896 32.9496 14.9341C32.934 14.9724 32.9148 15.0083 32.8925 15.0411C32.8705 15.0742 32.8453 15.1021 32.817 15.124C32.7891 15.1464 32.756 15.1576 32.7195 15.1576H32.7085H31.8171C31.7387 15.1581 31.6866 15.1322 31.6621 15.0806Z" fill="#941F7F"/>
<path fill-rule="evenodd" clip-rule="evenodd" d="M26.8204 12.5042L28.3737 10.3961L28.5717 10.1266C28.6108 10.0736 28.6854 10.0619 28.737 10.1026C29.4597 10.6733 29.9237 11.5573 29.9237 12.5497C29.9237 14.2707 28.5285 15.6658 26.8076 15.6658C25.0866 15.6658 23.6914 14.2707 23.6914 12.5497C23.6914 10.8287 25.0866 9.43359 26.8076 9.43359C27.3077 9.43359 27.7806 9.55147 28.1993 9.76096C28.2638 9.79312 28.2816 9.87546 28.2391 9.93341L27.8562 10.4544C27.8219 10.501 27.7592 10.516 27.7062 10.4928C27.4312 10.3724 27.1272 10.3057 26.8076 10.3057C25.5684 10.3057 24.5636 11.3103 24.5636 12.5497C24.5636 13.789 25.5684 14.7937 26.8076 14.7937C28.0469 14.7937 29.0518 13.789 29.0518 12.5497C29.0518 12.1755 28.9601 11.8227 28.7982 11.5125L26.9842 13.9811C26.9396 14.042 26.8504 14.0466 26.7995 13.9906L26.6934 13.8736C26.6922 13.8724 26.691 13.8711 26.6898 13.8698L25.2207 12.2567C25.1799 12.2119 25.1792 12.1435 25.2193 12.0978L25.7078 11.5388C25.7538 11.4862 25.8349 11.4841 25.8836 11.5344L26.8204 12.5042Z" fill="url(#paint0_linear_428_59222)"/>
<path d="M37.4181 0.792969H2.86706C1.93947 0.792969 1.1875 1.54493 1.1875 2.47253V22.6273C1.1875 23.5549 1.93947 24.3068 2.86706 24.3068H37.4181C38.3457 24.3068 39.0976 23.5549 39.0976 22.6273V2.47253C39.0976 1.54493 38.3457 0.792969 37.4181 0.792969Z" stroke="#D8D8D8" stroke-width="0.479875"/>
</g>
</g>
</g>
<defs>
<linearGradient id="paint0_linear_428_59222" x1="28.3466" y1="11.018" x2="25.7478" y2="13.6002" gradientUnits="userSpaceOnUse">
<stop stop-color="#E83762"/>
<stop offset="1" stop-color="#9A1F81"/>
</linearGradient>
<clipPath id="clip0_428_59222">
<rect width="38.39" height="24" fill="white" transform="translate(0.949219 0.550781)"/>
</clipPath>
<clipPath id="clip1_428_59222">
<rect width="38.39" height="24" fill="white" transform="translate(0.949219 0.550781)"/>
</clipPath>
<clipPath id="clip2_428_59222">
<rect width="38.39" height="23.9937" fill="white" transform="translate(0.949219 0.554688)"/>
</clipPath>
</defs>
</svg>
