<svg width="39" height="25" viewBox="0 0 39 25" fill="none" xmlns="http://www.w3.org/2000/svg">
<g clip-path="url(#clip0_428_59283)">
<g clip-path="url(#clip1_428_59283)">
<g clip-path="url(#clip2_428_59283)">
<path d="M36.4884 0.792969H1.93737C1.00978 0.792969 0.257812 1.54493 0.257812 2.47253V22.6273C0.257812 23.5549 1.00978 24.3068 1.93737 24.3068H36.4884C37.416 24.3068 38.1679 23.5549 38.1679 22.6273V2.47253C38.1679 1.54493 37.416 0.792969 36.4884 0.792969Z" fill="#113566"/>
<path fill-rule="evenodd" clip-rule="evenodd" d="M16.4844 9.63498H17.504V12.2859H18.2177V9.63498H19.2372V9.07422H16.4844V9.63498ZM19.5941 12.2859H20.3078V10.9604H21.7352V12.2859H22.3979V9.07422H21.7352V10.3487H20.3078V9.07422H19.5941V12.2859ZM23.4722 10.4383C23.1798 11.1881 22.8988 11.9106 22.8479 12.0438L22.7552 12.2859H23.4621L23.7464 11.5212L24.8703 11.5223L25.1566 12.2859H25.8658L25.7977 12.1202C25.7603 12.0291 25.4791 11.3065 25.1727 10.5145L24.6155 9.07458L24.0038 9.07499L23.4722 10.4383ZM26.1194 12.2859H26.833V9.07422H26.1194V12.2859ZM29.2914 9.22955C28.5505 9.59985 28.2131 10.4465 28.4848 11.2542C28.605 11.6117 28.9903 12.0312 29.3428 12.1884C29.6866 12.3417 30.2665 12.3563 30.5993 12.22C30.8006 12.1375 30.8306 12.1363 30.9091 12.2073C30.9679 12.2605 31.0991 12.2859 31.3153 12.2859H31.6347L31.222 11.793L31.3376 11.6188C31.5418 11.3117 31.5996 11.1039 31.5989 10.68C31.5979 10.1947 31.4897 9.91518 31.1668 9.56472C30.8395 9.20988 30.5218 9.07422 30.0175 9.07422C29.6568 9.07422 29.5616 9.09461 29.2914 9.22955ZM32.0329 12.2859H32.7468V11.2153H33.301L33.6223 11.7314C33.7989 12.0152 33.969 12.2572 34.0002 12.2692C34.0314 12.2811 34.2089 12.2841 34.3947 12.2757L34.7325 12.2604L34.3961 11.7251C34.2111 11.4307 34.0506 11.1664 34.0395 11.1377C34.0283 11.109 34.0863 11.0458 34.1686 10.9972C34.3505 10.8898 34.582 10.4458 34.582 10.2044C34.582 9.76869 34.3184 9.3388 33.9484 9.17072C33.7732 9.09118 33.6072 9.07626 32.8869 9.07532L32.0329 9.07422V12.2859ZM30.3889 9.74312C30.7824 9.93355 31.0075 10.44 30.9069 10.9078C30.8292 11.2684 30.7874 11.3111 30.6432 11.1758C30.5477 11.086 30.4621 11.0624 30.2327 11.0624C30.0734 11.0624 29.9429 11.0771 29.9429 11.0951C29.9429 11.1131 30.0458 11.2482 30.1713 11.3953C30.3903 11.6516 30.3951 11.664 30.286 11.6932C30.0547 11.7553 29.7605 11.7213 29.5606 11.6096C29.1592 11.3855 28.9608 10.7236 29.1554 10.2579C29.3819 9.71588 29.8925 9.5028 30.3889 9.74312ZM33.6134 9.69988C33.6835 9.7347 33.7828 9.84895 33.8342 9.95371C33.9126 10.114 33.9179 10.1725 33.8685 10.3227C33.7783 10.5956 33.654 10.6546 33.1686 10.6546H32.7468V9.63498L33.1163 9.63574C33.3195 9.63615 33.5434 9.66502 33.6134 9.69988ZM24.5131 10.4273C24.6184 10.7229 24.693 10.9763 24.6791 10.9904C24.6649 11.0044 24.4824 11.0092 24.2731 11.0009L23.8927 10.9859L24.0963 10.4379C24.2083 10.1365 24.3048 9.88989 24.3108 9.88989C24.3168 9.88989 24.4077 10.1317 24.5131 10.4273Z" fill="white"/>
<path fill-rule="evenodd" clip-rule="evenodd" d="M16.5156 16.0773H17.1314V15.1537H17.5783C17.977 15.1537 18.0458 15.1417 18.2149 15.0425C18.7864 14.7076 18.799 13.8564 18.2383 13.4623L18.0478 13.3284L16.5156 13.3008V16.0773ZM19.1577 14.4833C18.9054 15.1302 18.663 15.7535 18.6191 15.8684L18.5391 16.0773H19.149L19.3943 15.4176L20.364 15.4185L20.6109 16.0773H21.2229L21.1641 15.9344C21.1318 15.8557 20.889 15.2324 20.6247 14.5491L20.1441 13.3068L19.6163 13.3071L19.1577 14.4833ZM20.9138 13.3239C20.9138 13.3335 21.1414 13.7387 21.4196 14.2244L21.9254 15.1074V16.0773H22.4971V15.1629L22.985 14.3116C23.2532 13.8435 23.4914 13.4257 23.5143 13.3834C23.5521 13.3134 23.527 13.3064 23.2349 13.3064H22.9139L22.6066 13.8839C22.4375 14.2015 22.2795 14.4884 22.2552 14.5216C22.2222 14.567 22.1294 14.4238 21.8814 13.9449L21.5515 13.3079L21.2327 13.3072C21.0573 13.3068 20.9138 13.3143 20.9138 13.3239ZM23.7726 16.0773H24.3865L24.4103 14.4111L25.0699 15.6375H25.3926L26.0817 14.3428L26.1054 16.0773H26.6755V13.3026L26.0433 13.3284L25.6462 14.0651C25.4279 14.4703 25.2386 14.8015 25.2256 14.8012C25.2126 14.8008 25.0238 14.4645 24.8062 14.0537L24.4103 13.3069L23.7726 13.3064V16.0773ZM27.2471 16.0773H29.2705V15.5935H27.863V14.8898H29.0504V14.45H27.863V13.7903H29.2263V13.3064H27.2471V16.0773ZM29.6222 16.0773H30.236L30.26 14.4137L31.6206 16.0773H32.1291V13.3064H31.5153L31.4913 15.0198L30.097 13.3064H29.6222V16.0773ZM32.4372 13.7903H33.3168V16.0773H33.9324V13.7903H34.8121V13.3064H32.4372V13.7903ZM17.9493 13.9362C18.098 14.1091 18.0969 14.412 17.947 14.5619C17.8503 14.6587 17.8023 14.6699 17.4852 14.6699H17.1314V13.7809L17.4875 13.7971C17.8131 13.8119 17.8526 13.8238 17.9493 13.9362ZM20.0558 14.4739C20.1467 14.7289 20.2111 14.9474 20.1989 14.9596C20.1868 14.9717 20.0292 14.9758 19.8486 14.9687L19.5205 14.9558L19.6962 14.483C19.7928 14.2229 19.8761 14.0102 19.8813 14.0102C19.8864 14.0102 19.9649 14.2188 20.0558 14.4739Z" fill="white"/>
<path fill-rule="evenodd" clip-rule="evenodd" d="M5.60831 8.02996C5.285 8.08932 4.89246 8.22579 4.63765 8.36743C4.36318 8.51998 3.99241 8.89025 3.85886 9.14519C3.65242 9.53924 3.64563 9.60582 3.62341 11.4533C3.61242 12.3695 3.61638 13.5773 3.63224 14.1372C3.65757 15.0309 3.66909 15.1829 3.72682 15.3809C3.94651 16.135 4.48531 16.7142 5.1968 16.9612C5.70203 17.1366 5.35069 17.1256 10.7521 17.1365C15.3095 17.1239 15.7239 17.1384 15.7414 17.093C15.7681 17.0233 15.7583 17.0145 15.3428 16.6195C14.2299 15.5618 12.9846 14.3533 12.9631 14.3101C12.9495 14.2829 12.9309 13.3096 12.9217 12.1474C12.9055 10.085 12.9035 10.0282 12.8366 9.78731C12.5906 8.90129 12.0124 8.32374 11.1182 8.07094C10.8721 8.00136 10.8645 8.00116 8.35709 7.99404C6.31491 7.98823 5.79875 7.995 5.60831 8.02996ZM7.73687 9.13559C7.76158 9.16537 7.7696 9.39311 7.76379 9.89914L7.75551 10.6203L7.29275 10.6367C6.78897 10.6546 6.64492 10.6954 6.5302 10.8526C6.45057 10.9618 6.40284 11.3097 6.42225 11.6396C6.43132 11.7941 6.42549 11.9419 6.40913 11.9712C6.38254 12.0187 6.30512 12.024 5.62909 12.024C5.0167 12.024 4.87183 12.0158 4.84203 11.9799C4.81503 11.9474 4.80812 11.6674 4.81558 10.9079C4.82528 9.92222 4.82859 9.87263 4.89596 9.70482C4.97092 9.51807 5.14742 9.3124 5.30069 9.23315C5.53362 9.1127 5.69097 9.09732 6.71054 9.09521C7.51575 9.09355 7.70827 9.10113 7.73687 9.13559ZM11.2148 9.17429C11.4626 9.27516 11.5851 9.38666 11.6964 9.6127L11.7969 9.81668V12.0085H10.2235L10.2061 11.5149C10.1879 10.998 10.1687 10.9102 10.0494 10.7997C9.92455 10.684 9.8059 10.6575 9.32888 10.6386L8.86611 10.6203L8.85781 9.89914C8.85176 9.3737 8.85959 9.16592 8.88648 9.1335C8.9177 9.09588 9.08916 9.09058 9.98996 9.09941C10.987 9.10915 11.0668 9.11402 11.2148 9.17429ZM6.38118 13.133C6.417 13.1557 6.42648 13.2562 6.42835 13.6338C6.4302 14.0072 6.44119 14.1258 6.48065 14.199C6.59856 14.4176 6.73048 14.4611 7.27576 14.4611C7.56217 14.4611 7.70873 14.473 7.7339 14.4981C7.7606 14.5248 7.77092 14.7358 7.77092 15.2529C7.77092 15.9454 7.76871 15.9718 7.70753 16.0045C7.66367 16.028 7.34285 16.0343 6.66634 16.0249C5.76566 16.0124 5.67315 16.0061 5.49338 15.9447C5.16265 15.8317 4.98227 15.6757 4.86597 15.4021C4.81057 15.2718 4.78845 13.2123 4.84176 13.148C4.87187 13.1118 5.01085 13.1038 5.60745 13.1042C6.00839 13.1045 6.35654 13.1174 6.38118 13.133ZM12.9538 15.9804C12.9538 15.9932 12.0514 16.0037 10.9485 16.0037C8.98435 16.0037 8.94198 16.0024 8.88154 15.9419C8.82367 15.8841 8.81983 15.8391 8.81983 15.2192C8.81983 14.6593 8.82727 14.5507 8.8683 14.5096C8.9082 14.4697 9.00129 14.4611 9.39378 14.4611C10.1614 14.4611 10.1876 14.4368 10.2032 13.7082L10.2137 13.2175L11.5837 14.5873C12.3373 15.3407 12.9538 15.9676 12.9538 15.9804Z" fill="white"/>
<path d="M10.949 16.0049C12.0519 16.0049 12.9543 15.9944 12.9543 15.9816C12.9543 15.9688 12.3377 15.3419 11.5842 14.5885L10.2142 13.2188L10.2037 13.7094C10.1881 14.438 10.1619 14.4623 9.39427 14.4623C9.00178 14.4623 8.90868 14.4709 8.86878 14.5108C8.82775 14.5519 8.82031 14.6605 8.82031 15.2204C8.82031 15.8403 8.82415 15.8853 8.88202 15.9431C8.94246 16.0036 8.98484 16.0049 10.949 16.0049Z" fill="#21AA97"/>
<path d="M36.4884 0.792969H1.93737C1.00978 0.792969 0.257812 1.54493 0.257812 2.47253V22.6273C0.257812 23.5549 1.00978 24.3068 1.93737 24.3068H36.4884C37.416 24.3068 38.1679 23.5549 38.1679 22.6273V2.47253C38.1679 1.54493 37.416 0.792969 36.4884 0.792969Z" stroke="#DDDDD8" stroke-width="0.479875"/>
</g>
</g>
</g>
<defs>
<clipPath id="clip0_428_59283">
<rect width="38.39" height="24" fill="white" transform="translate(0.0195312 0.550781)"/>
</clipPath>
<clipPath id="clip1_428_59283">
<rect width="38.39" height="24" fill="white" transform="translate(0.0195312 0.550781)"/>
</clipPath>
<clipPath id="clip2_428_59283">
<rect width="38.39" height="23.9937" fill="white" transform="translate(0.0195312 0.554688)"/>
</clipPath>
</defs>
</svg>
