<svg width="35" height="22" viewBox="0 0 35 22" fill="none" xmlns="http://www.w3.org/2000/svg">
<g clip-path="url(#clip0_428_55700)">
<g clip-path="url(#clip1_428_55700)">
<g clip-path="url(#clip2_428_55700)">
<path d="M33.25 0.0625H1.75C0.783502 0.0625 0 0.846002 0 1.8125V20.1875C0 21.154 0.783502 21.9375 1.75 21.9375H33.25C34.2165 21.9375 35 21.154 35 20.1875V1.8125C35 0.846002 34.2165 0.0625 33.25 0.0625Z" fill="white"/>
<path fill-rule="evenodd" clip-rule="evenodd" d="M33.25 0.5H1.75C1.02513 0.5 0.4375 1.08763 0.4375 1.8125V20.1875C0.4375 20.9124 1.02513 21.5 1.75 21.5H33.25C33.9749 21.5 34.5625 20.9124 34.5625 20.1875V1.8125C34.5625 1.08763 33.9749 0.5 33.25 0.5ZM1.75 0.0625C0.783501 0.0625 0 0.846001 0 1.8125V20.1875C0 21.154 0.783501 21.9375 1.75 21.9375H33.25C34.2164 21.9375 35 21.154 35 20.1875V1.8125C35 0.846001 34.2164 0.0625 33.25 0.0625H1.75Z" fill="#DDDDD8"/>
<path d="M10.477 10.9155V14.9178C10.477 15.2423 10.2607 15.2423 9.93616 15.1341C7.88096 14.2688 6.69109 11.5646 7.44827 9.29301C7.88096 8.10316 8.74629 7.12963 9.93616 6.69697C10.3688 6.48063 10.477 6.5888 10.477 6.91331V10.9155ZM12.6404 10.9155V6.91331C12.6404 6.5888 12.6404 6.5888 12.9649 6.69697C15.2364 7.56232 16.4263 10.2665 15.5609 12.5381C15.1282 13.7279 14.2629 14.7014 13.073 15.1341C12.6404 15.3504 12.6404 15.2423 12.6404 14.9178V10.9155ZM20.4285 3.34375H11.5587C15.6691 3.34375 18.9141 6.69697 18.9141 10.9155C18.9141 15.1341 15.6691 18.4873 11.5587 18.4873H20.4285C24.5389 18.4873 27.7839 15.1341 27.7839 10.9155C27.7839 6.69697 24.5389 3.34375 20.4285 3.34375Z" fill="#3086C8"/>
</g>
</g>
</g>
<defs>
<clipPath id="clip0_428_55700">
<rect width="35" height="22" rx="5" fill="white"/>
</clipPath>
<clipPath id="clip1_428_55700">
<rect width="35" height="22" fill="white"/>
</clipPath>
<clipPath id="clip2_428_55700">
<rect width="35" height="21.875" fill="white" transform="translate(0 0.0625)"/>
</clipPath>
</defs>
</svg>
