<svg width="39" height="25" viewBox="0 0 39 25" fill="none" xmlns="http://www.w3.org/2000/svg">
<g clip-path="url(#clip0_428_59270)">
<g clip-path="url(#clip1_428_59270)">
<g clip-path="url(#clip2_428_59270)">
<path d="M35.3255 24.5508C36.311 24.5508 37.1195 23.7342 37.1195 22.7389V2.35791C37.1195 1.36737 36.311 0.550781 35.3255 0.550781H2.31365C1.32808 0.550781 0.519531 1.36737 0.519531 2.35791V22.7389C0.519531 23.7342 1.32808 24.5508 2.31365 24.5508H35.3255Z" fill="#0047BA"/>
<path d="M14.8883 12.9971H12.9957C12.4399 12.9971 11.7212 13.3934 11.5152 13.92L11.7021 12.9102H9.38779L8.36719 18.7181H10.6814L11.3235 15.0411H13.815C13.815 15.0411 13.4988 16.8627 13.3551 17.6793C13.2161 18.4958 13.7624 18.6939 14.0355 18.6939H15.2477L16.0383 14.1761C15.9616 13.5286 15.5304 12.9971 14.8883 12.9971Z" fill="white"/>
<path d="M7.72509 12.9102L7.28906 15.4035L9.04754 12.9102H7.72509Z" fill="white"/>
<path d="M10.4729 3.8125H2.72992L2.39453 5.73561H5.0969L4.01404 11.9397H6.34749L7.43035 5.73561H10.1375L10.4729 3.8125Z" fill="#FFCD00"/>
<path d="M12.0723 10.0376L12.4125 8.09517H10.3377L9.99754 10.0376H12.0723ZM8.80444 11.9413C8.16244 11.9413 7.73121 11.4098 7.84141 10.7624L8.44032 7.36557C8.55049 6.71808 9.16864 6.19141 9.81072 6.19141H13.6055C14.2476 6.19141 14.6788 6.71808 14.5638 7.36557L13.9696 10.7624C13.8546 11.4098 13.2366 11.9413 12.5945 11.9413H8.80444Z" fill="#FFCD00"/>
<path d="M24.0796 10.0376L24.4198 8.09514H27.424L27.7594 6.19141H23.8927C23.2507 6.19141 22.6326 6.71808 22.5176 7.36557L21.9234 10.7624C21.8133 11.4098 22.2445 11.9414 22.8866 11.9414H26.6478L26.9784 10.0376H24.0796Z" fill="#FFCD00"/>
<path d="M19.3555 10.0376H16.8112L17.482 6.19141H15.4553L14.6551 10.7624C14.5402 11.4098 14.9761 11.9413 15.6182 11.9413H17.5923C18.2344 11.9413 18.7566 11.5548 19.1734 11.0571C19.1734 11.0571 19.3987 11.7239 19.7245 11.8737C20.0503 12.0235 21.0421 11.9896 21.0421 11.9896L22.0579 6.19626H20.0311L19.3555 10.0376Z" fill="#FFCD00"/>
<path d="M33.9674 6.21805H32.0747C31.5189 6.21805 30.9823 6.61425 30.7715 7.14093L31.3177 4.01953H29.1855L27.8008 11.939H29.9378L30.5798 8.26196H32.8941C32.8941 8.26196 32.5778 10.0836 32.4341 10.9002C32.2904 11.7119 32.8414 11.91 33.1097 11.91H34.1399L34.9304 7.39221C35.0406 6.74472 34.6094 6.21805 33.9674 6.21805Z" fill="#FFCD00"/>
<path d="M26.369 20.6499C25.5065 20.6499 24.9219 19.9348 25.0752 19.065L25.8754 14.4989C26.024 13.6292 26.8577 12.9141 27.7249 12.9141H32.5547C33.4172 12.9141 34.0016 13.6292 33.8483 14.4989L33.053 19.065C32.8997 19.9348 32.0708 20.6499 31.2035 20.6499H26.369ZM30.8681 18.5142L31.4766 15.0498H28.0508L27.4422 18.5142H30.8681Z" fill="#FFCD00"/>
<path d="M21.6832 18.5142H18.2574L18.8659 15.0498H24.4192L24.7833 12.9141H18.5353C17.6728 12.9141 16.8391 13.6292 16.6906 14.4989L15.8904 19.065C15.7419 19.9348 16.3216 20.6499 17.1841 20.6499H22.0138C22.8763 20.6499 23.71 19.9348 23.8585 19.065L24.3473 16.2626H22.0714L21.6832 18.5142Z" fill="#FFCD00"/>
</g>
</g>
</g>
<defs>
<clipPath id="clip0_428_59270">
<rect width="37.5" height="24" fill="white" transform="translate(0.519531 0.550781)"/>
</clipPath>
<clipPath id="clip1_428_59270">
<rect width="37.5" height="24" fill="white" transform="translate(0.519531 0.550781)"/>
</clipPath>
<clipPath id="clip2_428_59270">
<rect width="37.5" height="24" fill="white" transform="translate(0.519531 0.550781)"/>
</clipPath>
</defs>
</svg>
