<svg width="16" height="17" viewBox="0 0 16 17" fill="none" xmlns="http://www.w3.org/2000/svg">
<g clip-path="url(#clip0_428_65744)">
<path d="M9.68661 6.43438L6.31328 9.80771C5.87995 9.37437 5.61328 8.78104 5.61328 8.12104C5.61328 6.80104 6.67995 5.73438 7.99995 5.73438C8.65995 5.73438 9.25328 6.00104 9.68661 6.43438Z" stroke="#262626" stroke-linecap="round" stroke-linejoin="round"/>
<path d="M11.8799 3.96156C10.7132 3.08156 9.3799 2.60156 7.9999 2.60156C5.64656 2.60156 3.45323 3.98823 1.92656 6.38823C1.32656 7.32823 1.32656 8.90823 1.92656 9.84823C2.45323 10.6749 3.06656 11.3882 3.73323 11.9616" stroke="#262626" stroke-linecap="round" stroke-linejoin="round"/>
<path d="M5.61328 13.1396C6.37328 13.4596 7.17995 13.6329 7.99995 13.6329C10.3533 13.6329 12.5466 12.2463 14.0733 9.84625C14.6733 8.90625 14.6733 7.32625 14.0733 6.38625C13.8533 6.03958 13.6133 5.71292 13.3666 5.40625" stroke="#262626" stroke-linecap="round" stroke-linejoin="round"/>
<path d="M10.3409 8.58594C10.1676 9.52594 9.40094 10.2926 8.46094 10.4659" stroke="#262626" stroke-linecap="round" stroke-linejoin="round"/>
<path d="M6.31203 9.80469L1.33203 14.7847" stroke="#262626" stroke-linecap="round" stroke-linejoin="round"/>
<path d="M14.6675 1.45312L9.6875 6.43312" stroke="#262626" stroke-linecap="round" stroke-linejoin="round"/>
</g>
<defs>
<clipPath id="clip0_428_65744">
<rect width="16" height="16" fill="white" transform="translate(0 0.117188)"/>
</clipPath>
</defs>
</svg>
