<svg width="46" height="46" viewBox="0 0 46 46" fill="none" xmlns="http://www.w3.org/2000/svg">
<rect x="0.5" y="0.117188" width="45" height="45" rx="15" fill="#282828"/>
<g clip-path="url(#clip0_428_65749)">
<path d="M32.7392 22.1872C32.6892 21.6772 32.2592 21.2972 31.7492 21.2972H24.1992C23.6492 21.2972 23.1992 21.7472 23.1992 22.2972V24.0072C23.1992 24.5572 23.6492 25.0072 24.1992 25.0072H28.7092C28.5992 25.9272 27.9992 27.3172 26.6692 28.2472C25.8192 28.8372 24.6892 29.2472 23.1992 29.2472C23.1292 29.2472 23.0692 29.2472 22.9992 29.2372C20.4492 29.1572 18.2892 27.4472 17.5092 25.0972C17.2992 24.4672 17.1792 23.8072 17.1792 23.1172C17.1792 22.4272 17.2992 21.7572 17.4992 21.1372C17.5592 20.9572 17.6292 20.7772 17.7092 20.5972C18.6292 18.5272 20.6392 17.0672 22.9992 16.9972C23.0592 16.9872 23.1292 16.9872 23.1992 16.9872C24.6292 16.9872 25.6992 17.4572 26.4492 17.9772C26.8392 18.2472 27.3592 18.1872 27.6992 17.8572L29.0892 16.4972C29.5292 16.0672 29.4892 15.3372 28.9892 14.9772C27.3992 13.8072 25.4592 13.1172 23.1992 13.1172C23.1292 13.1172 23.0692 13.1172 22.9992 13.1272C19.1692 13.1972 15.8792 15.4172 14.2692 18.6272C13.5892 19.9872 13.1992 21.5072 13.1992 23.1172C13.1992 24.7272 13.5892 26.2472 14.2692 27.6072H14.2792C15.8892 30.8172 19.1792 33.0372 22.9992 33.1072C23.0692 33.1172 23.1292 33.1172 23.1992 33.1172C25.8992 33.1172 28.1692 32.2272 29.8192 30.6972C31.7092 28.9472 32.7992 26.3872 32.7992 23.3372C32.7992 22.9072 32.7792 22.5372 32.7392 22.1872Z" fill="#D3E7EB"/>
</g>
<defs>
<clipPath id="clip0_428_65749">
<rect width="24" height="24" fill="white" transform="translate(11.5 11.1172)"/>
</clipPath>
</defs>
</svg>
