<svg width="16" height="17" viewBox="0 0 16 17" fill="none" xmlns="http://www.w3.org/2000/svg">
<g clip-path="url(#clip0_428_65787)">
<path d="M9.68661 6.93438L6.31328 10.3077C5.87995 9.87437 5.61328 9.28104 5.61328 8.62104C5.61328 7.30104 6.67995 6.23438 7.99995 6.23438C8.65995 6.23438 9.25328 6.50104 9.68661 6.93438Z" stroke="#262626" stroke-linecap="round" stroke-linejoin="round"/>
<path d="M11.8799 4.46156C10.7132 3.58156 9.3799 3.10156 7.9999 3.10156C5.64656 3.10156 3.45323 4.48823 1.92656 6.88823C1.32656 7.82823 1.32656 9.40823 1.92656 10.3482C2.45323 11.1749 3.06656 11.8882 3.73323 12.4616" stroke="#262626" stroke-linecap="round" stroke-linejoin="round"/>
<path d="M5.61328 13.6396C6.37328 13.9596 7.17995 14.1329 7.99995 14.1329C10.3533 14.1329 12.5466 12.7463 14.0733 10.3463C14.6733 9.40625 14.6733 7.82625 14.0733 6.88625C13.8533 6.53958 13.6133 6.21292 13.3666 5.90625" stroke="#262626" stroke-linecap="round" stroke-linejoin="round"/>
<path d="M10.3409 9.08594C10.1676 10.0259 9.40094 10.7926 8.46094 10.9659" stroke="#262626" stroke-linecap="round" stroke-linejoin="round"/>
<path d="M6.31203 10.3047L1.33203 15.2847" stroke="#262626" stroke-linecap="round" stroke-linejoin="round"/>
<path d="M14.6675 1.95312L9.6875 6.93312" stroke="#262626" stroke-linecap="round" stroke-linejoin="round"/>
</g>
<defs>
<clipPath id="clip0_428_65787">
<rect width="16" height="16" fill="white" transform="translate(0 0.617188)"/>
</clipPath>
</defs>
</svg>
