<svg width="13" height="20" viewBox="0 0 13 20" fill="none" xmlns="http://www.w3.org/2000/svg">
<path d="M4.10409 14.3867C4.2369 14.5273 4.39901 14.5977 4.59042 14.5977C4.78182 14.5977 4.94784 14.5273 5.08847 14.3867L9.2369 10.2383L5.08847 6.08984C5.00253 5.99609 4.89706 5.93164 4.77206 5.89648C4.64706 5.86133 4.52401 5.85937 4.40292 5.89062C4.28182 5.92188 4.17636 5.98242 4.08651 6.07227C3.99667 6.16211 3.93612 6.26758 3.90487 6.38867C3.87362 6.50977 3.87557 6.63086 3.91073 6.75195C3.94589 6.87305 4.01034 6.98047 4.10409 7.07422L7.26815 10.2383L4.10409 13.4141C3.96347 13.5469 3.89315 13.709 3.89315 13.9004C3.89315 14.0918 3.96347 14.2539 4.10409 14.3867Z" fill="#193170"/>
</svg>
