<svg width="39" height="25" viewBox="0 0 39 25" fill="none" xmlns="http://www.w3.org/2000/svg">
<g clip-path="url(#clip0_428_59214)">
<g clip-path="url(#clip1_428_59214)">
<g clip-path="url(#clip2_428_59214)">
<path d="M0.558594 2.47419C0.558594 1.41408 1.41798 0.554688 2.47809 0.554688H37.0291C38.0891 0.554688 38.9486 1.41408 38.9486 2.47419V22.6289C38.9486 23.6891 38.0891 24.5484 37.0291 24.5484H2.47809C1.41798 24.5484 0.558594 23.6891 0.558594 22.6289V2.47419Z" fill="white"/>
<path fill-rule="evenodd" clip-rule="evenodd" d="M37.0291 1.03456H2.47809C1.68301 1.03456 1.03847 1.6791 1.03847 2.47419V22.6289C1.03847 23.424 1.68301 24.0686 2.47809 24.0686H37.0291C37.8242 24.0686 38.4687 23.424 38.4687 22.6289V2.47419C38.4687 1.6791 37.8242 1.03456 37.0291 1.03456ZM2.47809 0.554688C1.41798 0.554688 0.558594 1.41408 0.558594 2.47419V22.6289C0.558594 23.6891 1.41798 24.5484 2.47809 24.5484H37.0291C38.0891 24.5484 38.9486 23.6891 38.9486 22.6289V2.47419C38.9486 1.41408 38.0891 0.554688 37.0291 0.554688H2.47809Z" fill="#DDDDD8"/>
<path fill-rule="evenodd" clip-rule="evenodd" d="M11.8369 4.875C10.5117 4.875 9.4375 5.94925 9.4375 7.27437V13.8699C10.0972 14.1641 10.7786 14.3466 11.4681 14.3466C12.3726 14.3466 12.8742 13.7962 12.8742 13.0588V10.0308H15.116V13.0588C15.116 14.2384 14.3878 15.1923 11.8909 15.1923C11.8909 15.1923 10.5745 15.1923 9.4375 14.924V20.231H13.2765C14.6016 20.231 15.6759 19.1568 15.6759 17.8316V4.875H11.8369Z" fill="#1E4F8F"/>
<path fill-rule="evenodd" clip-rule="evenodd" d="M19.0322 4.875C17.7071 4.875 16.6328 5.94925 16.6328 7.27437V10.5802C17.3163 10.1079 18.4112 9.82649 20.087 9.90251C20.087 9.90251 21.0802 9.9419 22.1323 10.2078V11.3086C21.612 11.0435 20.9728 10.7976 20.1658 10.7381C18.7511 10.6306 17.9054 11.3187 17.9054 12.5377C17.9054 13.7568 18.7511 14.4448 20.1658 14.3373C20.9728 14.2778 21.6221 14.0227 22.1323 13.7568V14.8677C21.0802 15.1336 20.087 15.1729 20.087 15.1729C18.4112 15.249 17.3163 14.9676 16.6328 14.4952V20.231H20.4718C21.7969 20.231 22.8712 19.1568 22.8712 17.8316V4.875H19.0322Z" fill="#D8203B"/>
<path fill-rule="evenodd" clip-rule="evenodd" d="M26.2314 4.875C24.9062 4.875 23.832 5.94925 23.832 7.27437V10.0308H27.3354C27.3845 10.0308 27.4393 10.0336 27.4882 10.0362C27.528 10.0382 27.5643 10.0401 27.5907 10.0401C28.4264 10.0795 29.0454 10.5124 29.0454 11.2599C29.0454 11.8397 28.6226 12.3414 27.8558 12.4496V12.479C28.7016 12.5377 29.3508 13.01 29.3508 13.7374C29.3508 14.5337 28.6428 15.0447 27.6895 15.0447H23.832V20.231H27.671C28.9962 20.231 30.0704 19.1568 30.0704 17.8316V4.875H26.2314ZM26.2933 10.807H24.9259V12.0755H26.2933C26.3423 12.0755 26.4109 12.0755 26.4411 12.0654C26.7262 12.0167 26.9613 11.7902 26.9613 11.4462C26.9613 11.1023 26.7264 10.8665 26.4411 10.817C26.4277 10.817 26.407 10.8151 26.3838 10.8129C26.3543 10.8101 26.3207 10.807 26.2933 10.807ZM26.431 14.2291C26.4797 14.2291 26.5685 14.2191 26.6074 14.209C26.9025 14.1503 27.1391 13.8944 27.1391 13.5404C27.1391 13.1964 26.9025 12.9312 26.6074 12.8717C26.5685 12.8624 26.4797 12.8524 26.431 12.8524H24.9259V14.2291H26.431Z" fill="#4DAD47"/>
</g>
</g>
</g>
<defs>
<clipPath id="clip0_428_59214">
<rect width="38.39" height="24" fill="white" transform="translate(0.558594 0.550781)"/>
</clipPath>
<clipPath id="clip1_428_59214">
<rect width="38.39" height="24" fill="white" transform="translate(0.558594 0.550781)"/>
</clipPath>
<clipPath id="clip2_428_59214">
<rect width="38.39" height="23.9937" fill="white" transform="translate(0.558594 0.554688)"/>
</clipPath>
</defs>
</svg>
