<svg width="35" height="22" viewBox="0 0 35 22" fill="none" xmlns="http://www.w3.org/2000/svg">
<g clip-path="url(#clip0_428_55758)">
<g clip-path="url(#clip1_428_55758)">
<g clip-path="url(#clip2_428_55758)">
<path d="M33.25 0.0625H1.75C0.783502 0.0625 0 0.846002 0 1.8125V20.1875C0 21.154 0.783502 21.9375 1.75 21.9375H33.25C34.2165 21.9375 35 21.154 35 20.1875V1.8125C35 0.846002 34.2165 0.0625 33.25 0.0625Z" fill="white"/>
<path fill-rule="evenodd" clip-rule="evenodd" d="M10.2812 4C9.07314 4 8.09375 4.97939 8.09375 6.1875V12.2007C8.69522 12.4688 9.31643 12.6352 9.94505 12.6352C10.7696 12.6352 11.227 12.1334 11.227 11.4611V8.70054H13.2708V11.4611C13.2708 12.5366 12.607 13.4062 10.3305 13.4062C10.3305 13.4062 9.13034 13.4063 8.09375 13.1617V18H11.5938C12.8019 18 13.7812 17.0206 13.7812 15.8125V4H10.2812Z" fill="#1E4F8F"/>
<path fill-rule="evenodd" clip-rule="evenodd" d="M16.8438 4C15.6356 4 14.6562 4.97939 14.6562 6.1875V9.20144C15.2794 8.77078 16.2776 8.51426 17.8054 8.58356C17.8054 8.58356 18.711 8.61947 19.6702 8.86189V9.8655C19.1958 9.62376 18.613 9.39965 17.8772 9.3454C16.5875 9.2474 15.8165 9.87466 15.8165 10.9861C15.8165 12.0975 16.5875 12.7248 17.8772 12.6267C18.613 12.5725 19.2049 12.3399 19.6702 12.0975V13.1103C18.711 13.3527 17.8054 13.3886 17.8054 13.3886C16.2776 13.4579 15.2794 13.2014 14.6562 12.7707V18H18.1562C19.3644 18 20.3438 17.0206 20.3438 15.8125V4H16.8438Z" fill="#D8203B"/>
<path fill-rule="evenodd" clip-rule="evenodd" d="M23.4062 4C22.1981 4 21.2188 4.97939 21.2188 6.1875V8.7005H24.4127C24.4576 8.7005 24.5074 8.70308 24.5521 8.7054C24.5884 8.7073 24.6214 8.70901 24.6455 8.70901C25.4074 8.74495 25.9717 9.1396 25.9717 9.82107C25.9717 10.3497 25.5863 10.807 24.8872 10.9057V10.9325C25.6583 10.9861 26.2502 11.4167 26.2502 12.0798C26.2502 12.8058 25.6047 13.2716 24.7356 13.2716H21.2188V18H24.7188C25.9269 18 26.9062 17.0206 26.9062 15.8125V4H23.4062ZM23.4627 9.40816H22.216V10.5646H23.4627C23.5073 10.5646 23.5699 10.5646 23.5974 10.5555C23.8573 10.5111 24.0717 10.3046 24.0717 9.99097C24.0717 9.67737 23.8575 9.46238 23.5974 9.4173C23.5852 9.4173 23.5664 9.41553 23.5452 9.41354C23.5183 9.41102 23.4876 9.40816 23.4627 9.40816ZM23.5883 12.5281C23.6327 12.5281 23.7136 12.5189 23.749 12.5098C24.0181 12.4562 24.2338 12.2229 24.2338 11.9002C24.2338 11.5866 24.0181 11.3448 23.749 11.2906C23.7136 11.2821 23.6327 11.2729 23.5883 11.2729H22.216V12.5281H23.5883Z" fill="#4DAD47"/>
<path fill-rule="evenodd" clip-rule="evenodd" d="M33.25 0.5H1.75C1.02513 0.5 0.4375 1.08763 0.4375 1.8125V20.1875C0.4375 20.9124 1.02513 21.5 1.75 21.5H33.25C33.9749 21.5 34.5625 20.9124 34.5625 20.1875V1.8125C34.5625 1.08763 33.9749 0.5 33.25 0.5ZM1.75 0.0625C0.783501 0.0625 0 0.846001 0 1.8125V20.1875C0 21.154 0.783501 21.9375 1.75 21.9375H33.25C34.2164 21.9375 35 21.154 35 20.1875V1.8125C35 0.846001 34.2164 0.0625 33.25 0.0625H1.75Z" fill="#DDDDD8"/>
</g>
</g>
</g>
<defs>
<clipPath id="clip0_428_55758">
<rect width="35" height="22" rx="5" fill="white"/>
</clipPath>
<clipPath id="clip1_428_55758">
<rect width="35" height="22" fill="white"/>
</clipPath>
<clipPath id="clip2_428_55758">
<rect width="35" height="21.875" fill="white" transform="translate(0 0.0625)"/>
</clipPath>
</defs>
</svg>
