<svg width="21" height="21" viewBox="0 0 21 21" fill="none" xmlns="http://www.w3.org/2000/svg">
<g clip-path="url(#clip0_428_55323)">
<g clip-path="url(#clip1_428_55323)">
<g clip-path="url(#clip2_428_55323)">
<path d="M10.9219 0.359375C5.4056 0.359375 0.921875 4.8431 0.921875 10.3594C0.921875 15.8757 5.4056 20.3594 10.9219 20.3594C16.4382 20.3594 20.9219 15.8757 20.9219 10.3594C20.9219 4.8431 16.4382 0.359375 10.9219 0.359375ZM19.4893 9.6617H15.294C15.1079 6.8524 14.1405 4.17333 12.494 1.90356C16.2614 2.60124 19.173 5.76403 19.4893 9.6617ZM7.93583 11.057H13.8986C13.694 13.8198 12.6614 16.4431 10.9219 18.5919C9.17304 16.4431 8.14048 13.8012 7.94513 11.057H7.93583ZM7.93583 9.6617C8.14048 6.89891 9.17304 4.27565 10.9126 2.12682C12.6614 4.27565 13.694 6.91751 13.8893 9.6617H7.92653H7.93583ZM9.34048 1.90356C7.70327 4.16403 6.73583 6.8431 6.54048 9.6617H2.35443C2.67071 5.77333 5.58234 2.61054 9.34978 1.90356H9.34048ZM2.35443 11.057H6.54978C6.73583 13.8664 7.70327 16.5454 9.34978 18.8152C5.58234 18.1175 2.67071 14.9547 2.35443 11.057ZM12.494 18.8152C14.1312 16.5547 15.0986 13.8757 15.294 11.057H19.4893C19.173 14.9454 16.2614 18.1082 12.494 18.8152Z" fill="white"/>
</g>
</g>
</g>
<defs>
<clipPath id="clip0_428_55323">
<rect x="0.921875" y="0.359375" width="20" height="20" rx="8" fill="white"/>
</clipPath>
<clipPath id="clip1_428_55323">
<rect width="20" height="20" fill="white" transform="translate(0.921875 0.359375)"/>
</clipPath>
<clipPath id="clip2_428_55323">
<rect width="20" height="20" fill="white" transform="translate(0.921875 0.359375)"/>
</clipPath>
</defs>
</svg>
