<svg width="101" height="19" viewBox="0 0 101 19" fill="none" xmlns="http://www.w3.org/2000/svg">
<path d="M0.230469 18.4921H18.6925V0.0507812H0.230469V18.4921Z" fill="#00B67A"/>
<path d="M15.9706 7.89558L5.49917 15.4939L7.02715 10.7979L3.02734 7.89558H7.97131L9.49898 3.19922L11.0266 7.89558H15.9706ZM9.49936 12.592L12.3591 11.9911L13.4985 15.4939L9.49936 12.592Z" fill="white"/>
<path d="M20.6328 18.4921H39.0948V0.0507812H20.6328V18.4921Z" fill="#00B67A"/>
<path d="M20.6328 18.4921H29.8638V0.0507812H20.6328V18.4921Z" fill="#00B67A"/>
<path d="M30.0844 12.5207L32.5366 11.9913L33.6709 15.5737L29.8251 12.7067L25.8294 15.5737L27.3803 10.8606L23.3203 7.94779H28.3386L29.8888 3.23438L31.4396 7.94779H36.4575L30.0844 12.5207Z" fill="white"/>
<path d="M41.0469 18.4921H59.5089V0.0507812H41.0469V18.4921Z" fill="#00B67A"/>
<path d="M41.0469 18.4921H50.2779V0.0507812H41.0469V18.4921Z" fill="#00B67A"/>
<path d="M56.787 7.89558L46.3156 15.4939L47.8436 10.7979L43.8438 7.89558H48.7877L50.3154 3.19922L51.8431 7.89558L56.787 7.89558ZM50.3158 12.592L53.1755 11.9911L54.3149 15.4939L50.3158 12.592Z" fill="white"/>
<path d="M61.4648 18.4921H79.9269V0.0507812H61.4648V18.4921Z" fill="#00B67A"/>
<path d="M61.4648 18.4921H70.6959V0.0507812H61.4648V18.4921Z" fill="#00B67A"/>
<path d="M77.2011 7.89558L66.73 15.4939L68.2576 10.7979L64.2578 7.89558H69.2018L70.7294 3.19922L72.2571 7.89558L77.2011 7.89558ZM70.7298 12.592L73.5896 11.9911L74.729 15.4939L70.7298 12.592Z" fill="white"/>
<path d="M81.8672 18.4921H100.329V0.0507812H81.8672V18.4921Z" fill="#DCDCE6"/>
<path d="M81.8672 18.4921H91.0982V0.0507812H81.8672V18.4921Z" fill="#00B67A"/>
<path d="M97.6034 7.89558L87.1323 15.4939L88.66 10.7979L84.6602 7.89558H89.6041L91.1318 3.19922L92.6595 7.89558H97.6034ZM91.1322 12.592L93.9919 11.9911L95.1313 15.4939L91.1322 12.592Z" fill="white"/>
</svg>
