<svg width="71" height="18" viewBox="0 0 71 18" fill="none" xmlns="http://www.w3.org/2000/svg">
<path d="M18.7874 6.73828H25.8656V8.05146H23.0825V15.4335H21.5521V8.05146H18.7812V6.73828H18.7874ZM25.5632 9.1376H26.8715V10.3526H26.8962C26.9394 10.1808 27.0196 10.0151 27.1369 9.85555C27.2541 9.69601 27.396 9.5426 27.5627 9.41373C27.7293 9.27873 27.9144 9.17442 28.1181 9.08851C28.3217 9.00873 28.5315 8.96578 28.7413 8.96578C28.9018 8.96578 29.019 8.97192 29.0807 8.97805C29.1424 8.98419 29.2042 8.99646 29.272 9.0026V10.3403C29.1733 10.3219 29.0746 10.3096 28.9697 10.2974C28.8647 10.2851 28.766 10.279 28.6673 10.279C28.4328 10.279 28.2106 10.3281 28.0008 10.4201C27.791 10.5121 27.612 10.6533 27.4577 10.8312C27.3035 11.0153 27.1801 11.2362 27.0875 11.5062C26.9949 11.7762 26.9517 12.0831 26.9517 12.4328V15.4274H25.5571V9.1376L25.5632 9.1376ZM35.6838 15.4335H34.3138V14.556H34.2891C34.1163 14.8751 33.8633 15.1267 33.5239 15.3169C33.1845 15.5071 32.8389 15.6053 32.4872 15.6053C31.6541 15.6053 31.0493 15.4028 30.679 14.9917C30.3088 14.5806 30.1236 13.9608 30.1236 13.1324V9.1376H31.5183V12.9974C31.5183 13.5496 31.6232 13.9424 31.8392 14.1694C32.049 14.3965 32.3514 14.5131 32.734 14.5131C33.0302 14.5131 33.2709 14.4701 33.4684 14.3781C33.6658 14.286 33.8263 14.1694 33.9435 14.016C34.0669 13.8687 34.1533 13.6846 34.2089 13.476C34.2644 13.2674 34.2891 13.0403 34.2891 12.7949V9.14374H35.6838V15.4335ZM38.0596 13.4146C38.1028 13.8196 38.2571 14.1019 38.5224 14.2676C38.794 14.4271 39.1149 14.5131 39.4913 14.5131C39.6209 14.5131 39.769 14.5008 39.9356 14.4824C40.1022 14.464 40.2627 14.421 40.4046 14.3658C40.5527 14.3106 40.67 14.2246 40.7687 14.1142C40.8613 14.0037 40.9045 13.8626 40.8983 13.6846C40.8921 13.5067 40.8242 13.3594 40.7008 13.249C40.5774 13.1324 40.4231 13.0465 40.2318 12.9728C40.0405 12.9053 39.8245 12.844 39.5777 12.7949C39.3309 12.7458 39.084 12.6906 38.831 12.6353C38.5718 12.5801 38.3188 12.5065 38.0781 12.4267C37.8375 12.3469 37.6215 12.2365 37.4302 12.0953C37.2389 11.9603 37.0846 11.7824 36.9735 11.5676C36.8563 11.3528 36.8007 11.089 36.8007 10.7699C36.8007 10.4262 36.8871 10.144 37.0537 9.91078C37.2204 9.6776 37.4363 9.49351 37.6894 9.35237C37.9485 9.21124 38.2324 9.11305 38.5471 9.05169C38.8619 8.99646 39.1642 8.96578 39.4481 8.96578C39.7752 8.96578 40.0899 9.0026 40.3861 9.0701C40.6823 9.1376 40.9538 9.24805 41.1945 9.4076C41.4352 9.56101 41.6327 9.76351 41.7931 10.009C41.9536 10.2544 42.0523 10.5551 42.0955 10.9049H40.6391C40.5712 10.5735 40.4231 10.3465 40.1825 10.236C39.9418 10.1194 39.6641 10.0642 39.3555 10.0642C39.2568 10.0642 39.1395 10.0703 39.0038 10.0887C38.868 10.1071 38.7446 10.1378 38.6212 10.1808C38.5039 10.2237 38.4052 10.2912 38.3188 10.3771C38.2386 10.4631 38.1954 10.5735 38.1954 10.7146C38.1954 10.8865 38.2571 11.0215 38.3743 11.1258C38.4916 11.2301 38.6459 11.316 38.8372 11.3896C39.0285 11.4571 39.2445 11.5185 39.4913 11.5676C39.7381 11.6167 39.9912 11.6719 40.2503 11.7271C40.5034 11.7824 40.7502 11.856 40.997 11.9358C41.2439 12.0156 41.4599 12.126 41.6512 12.2671C41.8425 12.4083 41.9967 12.5801 42.114 12.7887C42.2312 12.9974 42.293 13.2612 42.293 13.5681C42.293 13.9424 42.2066 14.2553 42.0338 14.5192C41.861 14.7769 41.6388 14.9917 41.3673 15.1512C41.0958 15.3108 40.7872 15.4335 40.454 15.5071C40.1207 15.5808 39.7875 15.6176 39.4604 15.6176C39.0593 15.6176 38.6891 15.5746 38.3497 15.4826C38.0103 15.3905 37.714 15.2555 37.4672 15.0776C37.2204 14.8935 37.0229 14.6665 36.8809 14.3965C36.739 14.1265 36.665 13.8012 36.6526 13.4269H38.0596V13.4146ZM42.6632 9.1376H43.7185V7.2476H45.1131V9.1376H46.372V10.1746H45.1131V13.5374C45.1131 13.6846 45.1193 13.8074 45.1316 13.9178C45.144 14.0221 45.1748 14.1142 45.218 14.1878C45.2612 14.2615 45.3291 14.3167 45.4217 14.3535C45.5142 14.3903 45.6315 14.4087 45.7919 14.4087C45.8907 14.4087 45.9894 14.4087 46.0882 14.4026C46.1869 14.3965 46.2856 14.3842 46.3844 14.3596V15.4335C46.2301 15.4519 46.0758 15.4642 45.9339 15.4826C45.7858 15.501 45.6377 15.5071 45.4834 15.5071C45.1131 15.5071 44.8169 15.4703 44.5948 15.4028C44.3726 15.3353 44.1936 15.231 44.0702 15.096C43.9406 14.961 43.8604 14.7953 43.811 14.5928C43.7678 14.3903 43.737 14.1571 43.7308 13.8994V10.1869H42.6756V9.1376H42.6632ZM47.3594 9.1376H48.68V9.99055H48.7047C48.9022 9.62237 49.1737 9.36464 49.5254 9.2051C49.8772 9.04555 50.2536 8.96578 50.6671 8.96578C51.1669 8.96578 51.5989 9.05169 51.9692 9.22964C52.3394 9.40146 52.648 9.64078 52.8948 9.9476C53.1417 10.2544 53.3206 10.6103 53.4441 11.0153C53.5675 11.4203 53.6292 11.856 53.6292 12.3162C53.6292 12.7396 53.5736 13.1508 53.4626 13.5435C53.3515 13.9424 53.1849 14.2921 52.9627 14.599C52.7405 14.9058 52.4567 15.1451 52.1111 15.3292C51.7655 15.5133 51.3644 15.6053 50.8954 15.6053C50.6918 15.6053 50.4881 15.5869 50.2845 15.5501C50.0808 15.5133 49.8834 15.4519 49.6982 15.3721C49.5131 15.2924 49.3341 15.188 49.1799 15.0592C49.0194 14.9303 48.8898 14.783 48.7787 14.6174H48.754V17.7592H47.3594V9.1376ZM52.2345 12.2917C52.2345 12.0094 52.1975 11.7333 52.1234 11.4633C52.0494 11.1933 51.9383 10.9601 51.7902 10.7515C51.6421 10.5428 51.457 10.3771 51.241 10.2544C51.0188 10.1317 50.7658 10.0642 50.4819 10.0642C49.8957 10.0642 49.4514 10.2667 49.1552 10.6717C48.859 11.0767 48.7109 11.6167 48.7109 12.2917C48.7109 12.6108 48.7479 12.9053 48.8281 13.1753C48.9083 13.4453 49.0194 13.6785 49.1799 13.8749C49.3341 14.0712 49.5193 14.2246 49.7352 14.3351C49.9512 14.4517 50.2042 14.5069 50.4881 14.5069C50.809 14.5069 51.0744 14.4394 51.2965 14.3106C51.5187 14.1817 51.6976 14.0099 51.8396 13.8074C51.9815 13.5987 52.0864 13.3656 52.1481 13.1017C52.2037 12.8378 52.2345 12.5678 52.2345 12.2917ZM54.6968 6.73828H56.0914V8.05146H54.6968V6.73828ZM54.6968 9.1376H56.0914V15.4335H54.6968V9.1376ZM57.338 6.73828H58.7326V15.4335H57.338V6.73828ZM63.0092 15.6053C62.5032 15.6053 62.0527 15.5194 61.6577 15.3537C61.2628 15.188 60.9295 14.9549 60.6518 14.6665C60.3803 14.3719 60.1705 14.0221 60.0286 13.6171C59.8866 13.2121 59.8126 12.7642 59.8126 12.2794C59.8126 11.8008 59.8866 11.359 60.0286 10.954C60.1705 10.549 60.3803 10.1992 60.6518 9.90464C60.9234 9.6101 61.2628 9.38305 61.6577 9.21737C62.0527 9.05169 62.5032 8.96578 63.0092 8.96578C63.5152 8.96578 63.9657 9.05169 64.3606 9.21737C64.7556 9.38305 65.0888 9.61623 65.3665 9.90464C65.638 10.1992 65.8479 10.549 65.9898 10.954C66.1317 11.359 66.2058 11.8008 66.2058 12.2794C66.2058 12.7642 66.1317 13.2121 65.9898 13.6171C65.8479 14.0221 65.638 14.3719 65.3665 14.6665C65.095 14.961 64.7556 15.188 64.3606 15.3537C63.9657 15.5194 63.5152 15.6053 63.0092 15.6053ZM63.0092 14.5069C63.3177 14.5069 63.5893 14.4394 63.8176 14.3106C64.0459 14.1817 64.231 14.0099 64.3792 13.8012C64.5273 13.5926 64.6322 13.3533 64.7062 13.0894C64.7741 12.8256 64.8111 12.5556 64.8111 12.2794C64.8111 12.0094 64.7741 11.7456 64.7062 11.4756C64.6383 11.2056 64.5273 10.9724 64.3792 10.7637C64.231 10.5551 64.0459 10.3894 63.8176 10.2606C63.5893 10.1317 63.3177 10.0642 63.0092 10.0642C62.7006 10.0642 62.4291 10.1317 62.2008 10.2606C61.9724 10.3894 61.7873 10.5612 61.6392 10.7637C61.4911 10.9724 61.3862 11.2056 61.3121 11.4756C61.2443 11.7456 61.2072 12.0094 61.2072 12.2794C61.2072 12.5556 61.2443 12.8256 61.3121 13.0894C61.38 13.3533 61.4911 13.5926 61.6392 13.8012C61.7873 14.0099 61.9724 14.1817 62.2008 14.3106C62.4291 14.4455 62.7006 14.5069 63.0092 14.5069ZM66.6131 9.1376H67.6683V7.2476H69.063V9.1376H70.3219V10.1746H69.063V13.5374C69.063 13.6846 69.0692 13.8074 69.0815 13.9178C69.0938 14.0221 69.1247 14.1142 69.1679 14.1878C69.2111 14.2615 69.279 14.3167 69.3715 14.3535C69.4641 14.3903 69.5814 14.4087 69.7418 14.4087C69.8405 14.4087 69.9393 14.4087 70.038 14.4026C70.1367 14.3965 70.2355 14.3842 70.3342 14.3596V15.4335C70.1799 15.4519 70.0257 15.4642 69.8837 15.4826C69.7356 15.501 69.5875 15.5071 69.4332 15.5071C69.063 15.5071 68.7668 15.4703 68.5446 15.4028C68.3225 15.3353 68.1435 15.231 68.0201 15.096C67.8905 14.961 67.8103 14.7953 67.7609 14.5928C67.7177 14.3903 67.6868 14.1571 67.6807 13.8994V10.1869H66.6254V9.1376L66.6131 9.1376Z" fill="#191919"/>
<path d="M17.16 6.73837H10.7668L8.79209 0.6875L6.81118 6.73837L0.417969 6.73224L5.59548 10.4757L3.61457 16.5204L8.79209 12.7831L13.9634 16.5204L11.9887 10.4757L17.16 6.73837Z" fill="#00B67A"/>
<path d="M12.4339 11.845L11.9896 10.4766L8.79297 12.7838L12.4339 11.845Z" fill="#005128"/>
</svg>
