<svg width="91" height="17" viewBox="0 0 91 17" fill="none" xmlns="http://www.w3.org/2000/svg">
<g clip-path="url(#clip0_428_55572)">
<g opacity="0.15">
<path d="M8.14625 2.07874C8.30346 1.76021 8.75768 1.76021 8.91489 2.07874L10.782 5.86193C10.8445 5.98842 10.9651 6.07609 11.1047 6.09637L15.2797 6.70303C15.6312 6.75411 15.7716 7.1861 15.5172 7.43404L12.4962 10.3788C12.3952 10.4773 12.3491 10.6191 12.3729 10.7582L13.0861 14.9163C13.1461 15.2664 12.7787 15.5333 12.4643 15.368L8.73 13.4048C8.60515 13.3392 8.45599 13.3392 8.33114 13.4048L4.59692 15.368C4.28251 15.5333 3.91504 15.2664 3.97508 14.9163L4.68826 10.7582C4.7121 10.6191 4.66601 10.4773 4.565 10.3788L1.54395 7.43404C1.28959 7.1861 1.42995 6.75411 1.78147 6.70303L5.95646 6.09637C6.09605 6.07609 6.21672 5.98842 6.27915 5.86193L8.14625 2.07874Z" fill="#FDB457"/>
</g>
<path d="M8.14625 2.07874C8.30346 1.76021 8.75768 1.76021 8.91489 2.07874L10.782 5.86193C10.8445 5.98842 10.9651 6.07609 11.1047 6.09637L15.2797 6.70303C15.6312 6.75411 15.7716 7.1861 15.5172 7.43404L12.4962 10.3788C12.3952 10.4773 12.3491 10.6191 12.3729 10.7582L13.0861 14.9163C13.1461 15.2664 12.7787 15.5333 12.4643 15.368L8.73 13.4048C8.60515 13.3392 8.45599 13.3392 8.33114 13.4048L4.59692 15.368C4.28251 15.5333 3.91504 15.2664 3.97508 14.9163L4.68826 10.7582C4.7121 10.6191 4.66601 10.4773 4.565 10.3788L1.54395 7.43404C1.28959 7.1861 1.42995 6.75411 1.78147 6.70303L5.95646 6.09637C6.09605 6.07609 6.21672 5.98842 6.27915 5.86193L8.14625 2.07874Z" fill="#FDB457"/>
</g>
<g clip-path="url(#clip1_428_55572)">
<g opacity="0.15">
<path d="M26.5369 2.07874C26.6941 1.76021 27.1483 1.76021 27.3055 2.07874L29.1726 5.86193C29.2351 5.98842 29.3557 6.07609 29.4953 6.09637L33.6703 6.70303C34.0218 6.75411 34.1622 7.1861 33.9078 7.43404L30.8868 10.3788C30.7858 10.4773 30.7397 10.6191 30.7635 10.7582L31.4767 14.9163C31.5367 15.2664 31.1693 15.5333 30.8549 15.368L27.1206 13.4048C26.9958 13.3392 26.8466 13.3392 26.7218 13.4048L22.9875 15.368C22.6731 15.5333 22.3057 15.2664 22.3657 14.9163L23.0789 10.7582C23.1027 10.6191 23.0566 10.4773 22.9556 10.3788L19.9346 7.43404C19.6802 7.1861 19.8206 6.75411 20.1721 6.70303L24.3471 6.09637C24.4867 6.07609 24.6073 5.98842 24.6698 5.86193L26.5369 2.07874Z" fill="#FDB457"/>
</g>
<path d="M26.5369 2.07874C26.6941 1.76021 27.1483 1.76021 27.3055 2.07874L29.1726 5.86193C29.2351 5.98842 29.3557 6.07609 29.4953 6.09637L33.6703 6.70303C34.0218 6.75411 34.1622 7.1861 33.9078 7.43404L30.8868 10.3788C30.7858 10.4773 30.7397 10.6191 30.7635 10.7582L31.4767 14.9163C31.5367 15.2664 31.1693 15.5333 30.8549 15.368L27.1206 13.4048C26.9958 13.3392 26.8466 13.3392 26.7218 13.4048L22.9875 15.368C22.6731 15.5333 22.3057 15.2664 22.3657 14.9163L23.0789 10.7582C23.1027 10.6191 23.0566 10.4773 22.9556 10.3788L19.9346 7.43404C19.6802 7.1861 19.8206 6.75411 20.1721 6.70303L24.3471 6.09637C24.4867 6.07609 24.6073 5.98842 24.6698 5.86193L26.5369 2.07874Z" fill="#FDB457"/>
</g>
<g clip-path="url(#clip2_428_55572)">
<g opacity="0.15">
<path d="M44.9275 2.07874C45.0847 1.76021 45.5389 1.76021 45.6961 2.07874L47.5632 5.86193C47.6257 5.98842 47.7463 6.07609 47.8859 6.09637L52.0609 6.70303C52.4124 6.75411 52.5528 7.1861 52.2984 7.43404L49.2774 10.3788C49.1764 10.4773 49.1303 10.6191 49.1541 10.7582L49.8673 14.9163C49.9273 15.2664 49.5599 15.5333 49.2455 15.368L45.5113 13.4048C45.3864 13.3392 45.2372 13.3392 45.1124 13.4048L41.3782 15.368C41.0638 15.5333 40.6963 15.2664 40.7563 14.9163L41.4695 10.7582C41.4934 10.6191 41.4473 10.4773 41.3463 10.3788L38.3252 7.43404C38.0708 7.1861 38.2112 6.75411 38.5627 6.70303L42.7377 6.09637C42.8773 6.07609 42.998 5.98842 43.0604 5.86193L44.9275 2.07874Z" fill="#FDB457"/>
</g>
<path d="M44.9275 2.07874C45.0847 1.76021 45.5389 1.76021 45.6961 2.07874L47.5632 5.86193C47.6257 5.98842 47.7463 6.07609 47.8859 6.09637L52.0609 6.70303C52.4124 6.75411 52.5528 7.1861 52.2984 7.43404L49.2774 10.3788C49.1764 10.4773 49.1303 10.6191 49.1541 10.7582L49.8673 14.9163C49.9273 15.2664 49.5599 15.5333 49.2455 15.368L45.5113 13.4048C45.3864 13.3392 45.2372 13.3392 45.1124 13.4048L41.3782 15.368C41.0638 15.5333 40.6963 15.2664 40.7563 14.9163L41.4695 10.7582C41.4934 10.6191 41.4473 10.4773 41.3463 10.3788L38.3252 7.43404C38.0708 7.1861 38.2112 6.75411 38.5627 6.70303L42.7377 6.09637C42.8773 6.07609 42.998 5.98842 43.0604 5.86193L44.9275 2.07874Z" fill="#FDB457"/>
</g>
<g clip-path="url(#clip3_428_55572)">
<g opacity="0.15">
<path d="M63.3181 2.07874C63.4753 1.76021 63.9296 1.76021 64.0868 2.07874L65.9538 5.86193C66.0163 5.98842 66.1369 6.07609 66.2765 6.09637L70.4515 6.70303C70.803 6.75411 70.9434 7.1861 70.689 7.43404L67.668 10.3788C67.567 10.4773 67.5209 10.6191 67.5447 10.7582L68.2579 14.9163C68.3179 15.2664 67.9505 15.5333 67.6361 15.368L63.9019 13.4048C63.777 13.3392 63.6279 13.3392 63.503 13.4048L59.7688 15.368C59.4544 15.5333 59.0869 15.2664 59.147 14.9163L59.8601 10.7582C59.884 10.6191 59.8379 10.4773 59.7369 10.3788L56.7158 7.43404C56.4615 7.1861 56.6018 6.75411 56.9533 6.70303L61.1283 6.09637C61.2679 6.07609 61.3886 5.98842 61.451 5.86193L63.3181 2.07874Z" fill="#FDB457"/>
</g>
<path d="M63.3181 2.07874C63.4753 1.76021 63.9296 1.76021 64.0868 2.07874L65.9538 5.86193C66.0163 5.98842 66.1369 6.07609 66.2765 6.09637L70.4515 6.70303C70.803 6.75411 70.9434 7.1861 70.689 7.43404L67.668 10.3788C67.567 10.4773 67.5209 10.6191 67.5447 10.7582L68.2579 14.9163C68.3179 15.2664 67.9505 15.5333 67.6361 15.368L63.9019 13.4048C63.777 13.3392 63.6279 13.3392 63.503 13.4048L59.7688 15.368C59.4544 15.5333 59.0869 15.2664 59.147 14.9163L59.8601 10.7582C59.884 10.6191 59.8379 10.4773 59.7369 10.3788L56.7158 7.43404C56.4615 7.1861 56.6018 6.75411 56.9533 6.70303L61.1283 6.09637C61.2679 6.07609 61.3886 5.98842 61.451 5.86193L63.3181 2.07874Z" fill="#FDB457"/>
</g>
<g clip-path="url(#clip4_428_55572)">
<g opacity="0.15">
<path d="M81.7048 2.07874C81.8621 1.76021 82.3163 1.76021 82.4735 2.07874L84.3406 5.86193C84.4031 5.98842 84.5237 6.07609 84.6633 6.09637L88.8383 6.70303C89.1898 6.75411 89.3302 7.1861 89.0758 7.43404L86.0548 10.3788C85.9538 10.4773 85.9077 10.6191 85.9315 10.7582L86.6447 14.9163C86.7047 15.2664 86.3373 15.5333 86.0229 15.368L82.2886 13.4048C82.1637 13.3392 82.0146 13.3392 81.8897 13.4048L78.1555 15.368C77.8411 15.5333 77.4736 15.2664 77.5337 14.9163L78.2469 10.7582C78.2707 10.6191 78.2246 10.4773 78.1236 10.3788L75.1025 7.43404C74.8482 7.1861 74.9885 6.75411 75.3401 6.70303L79.5151 6.09637C79.6546 6.07609 79.7753 5.98842 79.8377 5.86193L81.7048 2.07874Z" fill="#FDB457"/>
</g>
<path d="M81.7048 2.07874C81.8621 1.76021 82.3163 1.76021 82.4735 2.07874L84.3406 5.86193C84.4031 5.98842 84.5237 6.07609 84.6633 6.09637L88.8383 6.70303C89.1898 6.75411 89.3302 7.1861 89.0758 7.43404L86.0548 10.3788C85.9538 10.4773 85.9077 10.6191 85.9315 10.7582L86.6447 14.9163C86.7047 15.2664 86.3373 15.5333 86.0229 15.368L82.2886 13.4048C82.1637 13.3392 82.0146 13.3392 81.8897 13.4048L78.1555 15.368C77.8411 15.5333 77.4736 15.2664 77.5337 14.9163L78.2469 10.7582C78.2707 10.6191 78.2246 10.4773 78.1236 10.3788L75.1025 7.43404C74.8482 7.1861 74.9885 6.75411 75.3401 6.70303L79.5151 6.09637C79.6546 6.07609 79.7753 5.98842 79.8377 5.86193L81.7048 2.07874Z" fill="#FDB457"/>
</g>
<defs>
<clipPath id="clip0_428_55572">
<rect width="16" height="16" fill="white" transform="translate(0.53125 0.800781)"/>
</clipPath>
<clipPath id="clip1_428_55572">
<rect width="16" height="16" fill="white" transform="translate(18.9219 0.800781)"/>
</clipPath>
<clipPath id="clip2_428_55572">
<rect width="16" height="16" fill="white" transform="translate(37.3125 0.800781)"/>
</clipPath>
<clipPath id="clip3_428_55572">
<rect width="16" height="16" fill="white" transform="translate(55.7031 0.800781)"/>
</clipPath>
<clipPath id="clip4_428_55572">
<rect width="16" height="16" fill="white" transform="translate(74.0898 0.800781)"/>
</clipPath>
</defs>
</svg>
