<svg width="91" height="17" viewBox="0 0 91 17" fill="none" xmlns="http://www.w3.org/2000/svg">
<g clip-path="url(#clip0_428_55510)">
<g opacity="0.15">
<path d="M8.49391 2.07874C8.65112 1.76021 9.10534 1.76021 9.26255 2.07874L11.1296 5.86193C11.1921 5.98842 11.3127 6.07609 11.4523 6.09637L15.6273 6.70303C15.9788 6.75411 16.1192 7.1861 15.8648 7.43404L12.8438 10.3788C12.7428 10.4773 12.6967 10.6191 12.7205 10.7582L13.4337 14.9163C13.4937 15.2664 13.1263 15.5333 12.8119 15.368L9.07766 13.4048C8.95281 13.3392 8.80365 13.3392 8.6788 13.4048L4.94458 15.368C4.63017 15.5333 4.2627 15.2664 4.32274 14.9163L5.03592 10.7582C5.05976 10.6191 5.01367 10.4773 4.91266 10.3788L1.89161 7.43404C1.63725 7.1861 1.77761 6.75411 2.12913 6.70303L6.30412 6.09637C6.44371 6.07609 6.56438 5.98842 6.62681 5.86193L8.49391 2.07874Z" fill="#FDB457"/>
</g>
<path d="M8.49391 2.07874C8.65112 1.76021 9.10534 1.76021 9.26255 2.07874L11.1296 5.86193C11.1921 5.98842 11.3127 6.07609 11.4523 6.09637L15.6273 6.70303C15.9788 6.75411 16.1192 7.1861 15.8648 7.43404L12.8438 10.3788C12.7428 10.4773 12.6967 10.6191 12.7205 10.7582L13.4337 14.9163C13.4937 15.2664 13.1263 15.5333 12.8119 15.368L9.07766 13.4048C8.95281 13.3392 8.80365 13.3392 8.6788 13.4048L4.94458 15.368C4.63017 15.5333 4.2627 15.2664 4.32274 14.9163L5.03592 10.7582C5.05976 10.6191 5.01367 10.4773 4.91266 10.3788L1.89161 7.43404C1.63725 7.1861 1.77761 6.75411 2.12913 6.70303L6.30412 6.09637C6.44371 6.07609 6.56438 5.98842 6.62681 5.86193L8.49391 2.07874Z" fill="#FDB457"/>
</g>
<g clip-path="url(#clip1_428_55510)">
<g opacity="0.15">
<path d="M26.8845 2.07874C27.0417 1.76021 27.496 1.76021 27.6532 2.07874L29.5203 5.86193C29.5828 5.98842 29.7034 6.07609 29.843 6.09637L34.018 6.70303C34.3695 6.75411 34.5099 7.1861 34.2555 7.43404L31.2345 10.3788C31.1335 10.4773 31.0874 10.6191 31.1112 10.7582L31.8244 14.9163C31.8844 15.2664 31.517 15.5333 31.2026 15.368L27.4683 13.4048C27.3434 13.3392 27.1943 13.3392 27.0694 13.4048L23.3352 15.368C23.0208 15.5333 22.6533 15.2664 22.7134 14.9163L23.4265 10.7582C23.4504 10.6191 23.4043 10.4773 23.3033 10.3788L20.2822 7.43404C20.0279 7.1861 20.1682 6.75411 20.5198 6.70303L24.6947 6.09637C24.8343 6.07609 24.955 5.98842 25.0174 5.86193L26.8845 2.07874Z" fill="#FDB457"/>
</g>
<path d="M26.8845 2.07874C27.0417 1.76021 27.496 1.76021 27.6532 2.07874L29.5203 5.86193C29.5828 5.98842 29.7034 6.07609 29.843 6.09637L34.018 6.70303C34.3695 6.75411 34.5099 7.1861 34.2555 7.43404L31.2345 10.3788C31.1335 10.4773 31.0874 10.6191 31.1112 10.7582L31.8244 14.9163C31.8844 15.2664 31.517 15.5333 31.2026 15.368L27.4683 13.4048C27.3434 13.3392 27.1943 13.3392 27.0694 13.4048L23.3352 15.368C23.0208 15.5333 22.6533 15.2664 22.7134 14.9163L23.4265 10.7582C23.4504 10.6191 23.4043 10.4773 23.3033 10.3788L20.2822 7.43404C20.0279 7.1861 20.1682 6.75411 20.5198 6.70303L24.6947 6.09637C24.8343 6.07609 24.955 5.98842 25.0174 5.86193L26.8845 2.07874Z" fill="#FDB457"/>
</g>
<g clip-path="url(#clip2_428_55510)">
<g opacity="0.15">
<path d="M45.2752 2.07874C45.4324 1.76021 45.8866 1.76021 46.0438 2.07874L47.9109 5.86193C47.9734 5.98842 48.094 6.07609 48.2336 6.09637L52.4086 6.70303C52.7601 6.75411 52.9005 7.1861 52.6461 7.43404L49.6251 10.3788C49.5241 10.4773 49.478 10.6191 49.5018 10.7582L50.215 14.9163C50.275 15.2664 49.9076 15.5333 49.5932 15.368L45.8589 13.4048C45.7341 13.3392 45.5849 13.3392 45.46 13.4048L41.7258 15.368C41.4114 15.5333 41.0439 15.2664 41.104 14.9163L41.8172 10.7582C41.841 10.6191 41.7949 10.4773 41.6939 10.3788L38.6729 7.43404C38.4185 7.1861 38.5589 6.75411 38.9104 6.70303L43.0854 6.09637C43.225 6.07609 43.3456 5.98842 43.4081 5.86193L45.2752 2.07874Z" fill="#FDB457"/>
</g>
<path d="M45.2752 2.07874C45.4324 1.76021 45.8866 1.76021 46.0438 2.07874L47.9109 5.86193C47.9734 5.98842 48.094 6.07609 48.2336 6.09637L52.4086 6.70303C52.7601 6.75411 52.9005 7.1861 52.6461 7.43404L49.6251 10.3788C49.5241 10.4773 49.478 10.6191 49.5018 10.7582L50.215 14.9163C50.275 15.2664 49.9076 15.5333 49.5932 15.368L45.8589 13.4048C45.7341 13.3392 45.5849 13.3392 45.46 13.4048L41.7258 15.368C41.4114 15.5333 41.0439 15.2664 41.104 14.9163L41.8172 10.7582C41.841 10.6191 41.7949 10.4773 41.6939 10.3788L38.6729 7.43404C38.4185 7.1861 38.5589 6.75411 38.9104 6.70303L43.0854 6.09637C43.225 6.07609 43.3456 5.98842 43.4081 5.86193L45.2752 2.07874Z" fill="#FDB457"/>
</g>
<g clip-path="url(#clip3_428_55510)">
<g opacity="0.15">
<path d="M63.6658 2.07874C63.823 1.76021 64.2772 1.76021 64.4344 2.07874L66.3015 5.86193C66.364 5.98842 66.4846 6.07609 66.6242 6.09637L70.7992 6.70303C71.1507 6.75411 71.2911 7.1861 71.0367 7.43404L68.0157 10.3788C67.9147 10.4773 67.8686 10.6191 67.8924 10.7582L68.6056 14.9163C68.6656 15.2664 68.2982 15.5333 67.9838 15.368L64.2495 13.4048C64.1247 13.3392 63.9755 13.3392 63.8507 13.4048L60.1165 15.368C59.802 15.5333 59.4346 15.2664 59.4946 14.9163L60.2078 10.7582C60.2316 10.6191 60.1855 10.4773 60.0845 10.3788L57.0635 7.43404C56.8091 7.1861 56.9495 6.75411 57.301 6.70303L61.476 6.09637C61.6156 6.07609 61.7363 5.98842 61.7987 5.86193L63.6658 2.07874Z" fill="#FDB457"/>
</g>
<path d="M63.6658 2.07874C63.823 1.76021 64.2772 1.76021 64.4344 2.07874L66.3015 5.86193C66.364 5.98842 66.4846 6.07609 66.6242 6.09637L70.7992 6.70303C71.1507 6.75411 71.2911 7.1861 71.0367 7.43404L68.0157 10.3788C67.9147 10.4773 67.8686 10.6191 67.8924 10.7582L68.6056 14.9163C68.6656 15.2664 68.2982 15.5333 67.9838 15.368L64.2495 13.4048C64.1247 13.3392 63.9755 13.3392 63.8507 13.4048L60.1165 15.368C59.802 15.5333 59.4346 15.2664 59.4946 14.9163L60.2078 10.7582C60.2316 10.6191 60.1855 10.4773 60.0845 10.3788L57.0635 7.43404C56.8091 7.1861 56.9495 6.75411 57.301 6.70303L61.476 6.09637C61.6156 6.07609 61.7363 5.98842 61.7987 5.86193L63.6658 2.07874Z" fill="#FDB457"/>
</g>
<g clip-path="url(#clip4_428_55510)">
<g opacity="0.15">
<path d="M82.0525 2.07874C82.2097 1.76021 82.6639 1.76021 82.8211 2.07874L84.6882 5.86193C84.7507 5.98842 84.8713 6.07609 85.0109 6.09637L89.1859 6.70303C89.5374 6.75411 89.6778 7.1861 89.4234 7.43404L86.4024 10.3788C86.3014 10.4773 86.2553 10.6191 86.2791 10.7582L86.9923 14.9163C87.0523 15.2664 86.6849 15.5333 86.3705 15.368L82.6363 13.4048C82.5114 13.3392 82.3622 13.3392 82.2374 13.4048L78.5032 15.368C78.1888 15.5333 77.8213 15.2664 77.8813 14.9163L78.5945 10.7582C78.6184 10.6191 78.5723 10.4773 78.4713 10.3788L75.4502 7.43404C75.1958 7.1861 75.3362 6.75411 75.6877 6.70303L79.8627 6.09637C80.0023 6.07609 80.123 5.98842 80.1854 5.86193L82.0525 2.07874Z" fill="#FDB457"/>
</g>
<path d="M82.0525 2.07874C82.2097 1.76021 82.6639 1.76021 82.8211 2.07874L84.6882 5.86193C84.7507 5.98842 84.8713 6.07609 85.0109 6.09637L89.1859 6.70303C89.5374 6.75411 89.6778 7.1861 89.4234 7.43404L86.4024 10.3788C86.3014 10.4773 86.2553 10.6191 86.2791 10.7582L86.9923 14.9163C87.0523 15.2664 86.6849 15.5333 86.3705 15.368L82.6363 13.4048C82.5114 13.3392 82.3622 13.3392 82.2374 13.4048L78.5032 15.368C78.1888 15.5333 77.8213 15.2664 77.8813 14.9163L78.5945 10.7582C78.6184 10.6191 78.5723 10.4773 78.4713 10.3788L75.4502 7.43404C75.1958 7.1861 75.3362 6.75411 75.6877 6.70303L79.8627 6.09637C80.0023 6.07609 80.123 5.98842 80.1854 5.86193L82.0525 2.07874Z" fill="#FDB457"/>
</g>
<defs>
<clipPath id="clip0_428_55510">
<rect width="16" height="16" fill="white" transform="translate(0.878906 0.800781)"/>
</clipPath>
<clipPath id="clip1_428_55510">
<rect width="16" height="16" fill="white" transform="translate(19.2695 0.800781)"/>
</clipPath>
<clipPath id="clip2_428_55510">
<rect width="16" height="16" fill="white" transform="translate(37.6602 0.800781)"/>
</clipPath>
<clipPath id="clip3_428_55510">
<rect width="16" height="16" fill="white" transform="translate(56.0508 0.800781)"/>
</clipPath>
<clipPath id="clip4_428_55510">
<rect width="16" height="16" fill="white" transform="translate(74.4375 0.800781)"/>
</clipPath>
</defs>
</svg>
