<svg width="90" height="17" viewBox="0 0 90 17" fill="none" xmlns="http://www.w3.org/2000/svg">
<g clip-path="url(#clip0_428_55541)">
<g opacity="0.15">
<path d="M7.81422 2.07874C7.97143 1.76021 8.42565 1.76021 8.58286 2.07874L10.4499 5.86193C10.5124 5.98842 10.633 6.07609 10.7726 6.09637L14.9476 6.70303C15.2991 6.75411 15.4395 7.1861 15.1851 7.43404L12.1641 10.3788C12.0631 10.4773 12.017 10.6191 12.0408 10.7582L12.754 14.9163C12.814 15.2664 12.4466 15.5333 12.1322 15.368L8.39797 13.4048C8.27312 13.3392 8.12396 13.3392 7.99911 13.4048L4.26489 15.368C3.95048 15.5333 3.58301 15.2664 3.64305 14.9163L4.35623 10.7582C4.38007 10.6191 4.33398 10.4773 4.23297 10.3788L1.21192 7.43404C0.957559 7.1861 1.09792 6.75411 1.44944 6.70303L5.62443 6.09637C5.76402 6.07609 5.88469 5.98842 5.94712 5.86193L7.81422 2.07874Z" fill="#FDB457"/>
</g>
<path d="M7.81422 2.07874C7.97143 1.76021 8.42565 1.76021 8.58286 2.07874L10.4499 5.86193C10.5124 5.98842 10.633 6.07609 10.7726 6.09637L14.9476 6.70303C15.2991 6.75411 15.4395 7.1861 15.1851 7.43404L12.1641 10.3788C12.0631 10.4773 12.017 10.6191 12.0408 10.7582L12.754 14.9163C12.814 15.2664 12.4466 15.5333 12.1322 15.368L8.39797 13.4048C8.27312 13.3392 8.12396 13.3392 7.99911 13.4048L4.26489 15.368C3.95048 15.5333 3.58301 15.2664 3.64305 14.9163L4.35623 10.7582C4.38007 10.6191 4.33398 10.4773 4.23297 10.3788L1.21192 7.43404C0.957559 7.1861 1.09792 6.75411 1.44944 6.70303L5.62443 6.09637C5.76402 6.07609 5.88469 5.98842 5.94712 5.86193L7.81422 2.07874Z" fill="#FDB457"/>
</g>
<g clip-path="url(#clip1_428_55541)">
<g opacity="0.15">
<path d="M26.2048 2.07874C26.3621 1.76021 26.8163 1.76021 26.9735 2.07874L28.8406 5.86193C28.9031 5.98842 29.0237 6.07609 29.1633 6.09637L33.3383 6.70303C33.6898 6.75411 33.8302 7.1861 33.5758 7.43404L30.5548 10.3788C30.4538 10.4773 30.4077 10.6191 30.4315 10.7582L31.1447 14.9163C31.2047 15.2664 30.8373 15.5333 30.5229 15.368L26.7886 13.4048C26.6637 13.3392 26.5146 13.3392 26.3897 13.4048L22.6555 15.368C22.3411 15.5333 21.9736 15.2664 22.0337 14.9163L22.7469 10.7582C22.7707 10.6191 22.7246 10.4773 22.6236 10.3788L19.6025 7.43404C19.3482 7.1861 19.4885 6.75411 19.8401 6.70303L24.0151 6.09637C24.1546 6.07609 24.2753 5.98842 24.3377 5.86193L26.2048 2.07874Z" fill="#FDB457"/>
</g>
<path d="M26.2048 2.07874C26.3621 1.76021 26.8163 1.76021 26.9735 2.07874L28.8406 5.86193C28.9031 5.98842 29.0237 6.07609 29.1633 6.09637L33.3383 6.70303C33.6898 6.75411 33.8302 7.1861 33.5758 7.43404L30.5548 10.3788C30.4538 10.4773 30.4077 10.6191 30.4315 10.7582L31.1447 14.9163C31.2047 15.2664 30.8373 15.5333 30.5229 15.368L26.7886 13.4048C26.6637 13.3392 26.5146 13.3392 26.3897 13.4048L22.6555 15.368C22.3411 15.5333 21.9736 15.2664 22.0337 14.9163L22.7469 10.7582C22.7707 10.6191 22.7246 10.4773 22.6236 10.3788L19.6025 7.43404C19.3482 7.1861 19.4885 6.75411 19.8401 6.70303L24.0151 6.09637C24.1546 6.07609 24.2753 5.98842 24.3377 5.86193L26.2048 2.07874Z" fill="#FDB457"/>
</g>
<g clip-path="url(#clip2_428_55541)">
<g opacity="0.15">
<path d="M44.5955 2.07874C44.7527 1.76021 45.2069 1.76021 45.3641 2.07874L47.2312 5.86193C47.2937 5.98842 47.4143 6.07609 47.5539 6.09637L51.7289 6.70303C52.0804 6.75411 52.2208 7.1861 51.9664 7.43404L48.9454 10.3788C48.8444 10.4773 48.7983 10.6191 48.8221 10.7582L49.5353 14.9163C49.5953 15.2664 49.2279 15.5333 48.9135 15.368L45.1792 13.4048C45.0544 13.3392 44.9052 13.3392 44.7804 13.4048L41.0461 15.368C40.7317 15.5333 40.3643 15.2664 40.4243 14.9163L41.1375 10.7582C41.1613 10.6191 41.1152 10.4773 41.0142 10.3788L37.9932 7.43404C37.7388 7.1861 37.8792 6.75411 38.2307 6.70303L42.4057 6.09637C42.5453 6.07609 42.6659 5.98842 42.7284 5.86193L44.5955 2.07874Z" fill="#FDB457"/>
</g>
<path d="M44.5955 2.07874C44.7527 1.76021 45.2069 1.76021 45.3641 2.07874L47.2312 5.86193C47.2937 5.98842 47.4143 6.07609 47.5539 6.09637L51.7289 6.70303C52.0804 6.75411 52.2208 7.1861 51.9664 7.43404L48.9454 10.3788C48.8444 10.4773 48.7983 10.6191 48.8221 10.7582L49.5353 14.9163C49.5953 15.2664 49.2279 15.5333 48.9135 15.368L45.1792 13.4048C45.0544 13.3392 44.9052 13.3392 44.7804 13.4048L41.0461 15.368C40.7317 15.5333 40.3643 15.2664 40.4243 14.9163L41.1375 10.7582C41.1613 10.6191 41.1152 10.4773 41.0142 10.3788L37.9932 7.43404C37.7388 7.1861 37.8792 6.75411 38.2307 6.70303L42.4057 6.09637C42.5453 6.07609 42.6659 5.98842 42.7284 5.86193L44.5955 2.07874Z" fill="#FDB457"/>
</g>
<g clip-path="url(#clip3_428_55541)">
<g opacity="0.15">
<path d="M62.9939 2.07874C63.1511 1.76021 63.6053 1.76021 63.7625 2.07874L65.6296 5.86193C65.6921 5.98842 65.8127 6.07609 65.9523 6.09637L70.1273 6.70303C70.4788 6.75411 70.6192 7.1861 70.3648 7.43404L67.3438 10.3788C67.2428 10.4773 67.1967 10.6191 67.2205 10.7582L67.9337 14.9163C67.9937 15.2664 67.6263 15.5333 67.3119 15.368L63.5777 13.4048C63.4528 13.3392 63.3036 13.3392 63.1788 13.4048L59.4446 15.368C59.1302 15.5333 58.7627 15.2664 58.8227 14.9163L59.5359 10.7582C59.5598 10.6191 59.5137 10.4773 59.4127 10.3788L56.3916 7.43404C56.1372 7.1861 56.2776 6.75411 56.6291 6.70303L60.8041 6.09637C60.9437 6.07609 61.0644 5.98842 61.1268 5.86193L62.9939 2.07874Z" fill="#FDB457"/>
</g>
<path d="M62.9939 2.07874C63.1511 1.76021 63.6053 1.76021 63.7625 2.07874L65.6296 5.86193C65.6921 5.98842 65.8127 6.07609 65.9523 6.09637L70.1273 6.70303C70.4788 6.75411 70.6192 7.1861 70.3648 7.43404L67.3438 10.3788C67.2428 10.4773 67.1967 10.6191 67.2205 10.7582L67.9337 14.9163C67.9937 15.2664 67.6263 15.5333 67.3119 15.368L63.5777 13.4048C63.4528 13.3392 63.3036 13.3392 63.1788 13.4048L59.4446 15.368C59.1302 15.5333 58.7627 15.2664 58.8227 14.9163L59.5359 10.7582C59.5598 10.6191 59.5137 10.4773 59.4127 10.3788L56.3916 7.43404C56.1372 7.1861 56.2776 6.75411 56.6291 6.70303L60.8041 6.09637C60.9437 6.07609 61.0644 5.98842 61.1268 5.86193L62.9939 2.07874Z" fill="#FDB457"/>
</g>
<g clip-path="url(#clip4_428_55541)">
<g opacity="0.15">
<path d="M81.3845 2.07874C81.5417 1.76021 81.996 1.76021 82.1532 2.07874L84.0203 5.86193C84.0828 5.98842 84.2034 6.07609 84.343 6.09637L88.518 6.70303C88.8695 6.75411 89.0099 7.1861 88.7555 7.43404L85.7345 10.3788C85.6335 10.4773 85.5874 10.6191 85.6112 10.7582L86.3244 14.9163C86.3844 15.2664 86.017 15.5333 85.7026 15.368L81.9683 13.4048C81.8434 13.3392 81.6943 13.3392 81.5694 13.4048L77.8352 15.368C77.5208 15.5333 77.1533 15.2664 77.2134 14.9163L77.9265 10.7582C77.9504 10.6191 77.9043 10.4773 77.8033 10.3788L74.7822 7.43404C74.5279 7.1861 74.6682 6.75411 75.0198 6.70303L79.1947 6.09637C79.3343 6.07609 79.455 5.98842 79.5174 5.86193L81.3845 2.07874Z" fill="#FDB457"/>
</g>
<path d="M81.3845 2.07874C81.5417 1.76021 81.996 1.76021 82.1532 2.07874L84.0203 5.86193C84.0828 5.98842 84.2034 6.07609 84.343 6.09637L88.518 6.70303C88.8695 6.75411 89.0099 7.1861 88.7555 7.43404L85.7345 10.3788C85.6335 10.4773 85.5874 10.6191 85.6112 10.7582L86.3244 14.9163C86.3844 15.2664 86.017 15.5333 85.7026 15.368L81.9683 13.4048C81.8434 13.3392 81.6943 13.3392 81.5694 13.4048L77.8352 15.368C77.5208 15.5333 77.1533 15.2664 77.2134 14.9163L77.9265 10.7582C77.9504 10.6191 77.9043 10.4773 77.8033 10.3788L74.7822 7.43404C74.5279 7.1861 74.6682 6.75411 75.0198 6.70303L79.1947 6.09637C79.3343 6.07609 79.455 5.98842 79.5174 5.86193L81.3845 2.07874Z" fill="#FDB457"/>
</g>
<defs>
<clipPath id="clip0_428_55541">
<rect width="16" height="16" fill="white" transform="translate(0.199219 0.800781)"/>
</clipPath>
<clipPath id="clip1_428_55541">
<rect width="16" height="16" fill="white" transform="translate(18.5898 0.800781)"/>
</clipPath>
<clipPath id="clip2_428_55541">
<rect width="16" height="16" fill="white" transform="translate(36.9805 0.800781)"/>
</clipPath>
<clipPath id="clip3_428_55541">
<rect width="16" height="16" fill="white" transform="translate(55.3789 0.800781)"/>
</clipPath>
<clipPath id="clip4_428_55541">
<rect width="16" height="16" fill="white" transform="translate(73.7695 0.800781)"/>
</clipPath>
</defs>
</svg>
