<svg width="35" height="22" viewBox="0 0 35 22" fill="none" xmlns="http://www.w3.org/2000/svg">
<g clip-path="url(#clip0_428_55766)">
<g clip-path="url(#clip1_428_55766)">
<g clip-path="url(#clip2_428_55766)">
<path d="M35 0.0625H0V21.9375H35V0.0625Z" fill="white"/>
<path fill-rule="evenodd" clip-rule="evenodd" d="M1.75 0.0625C0.783501 0.0625 0 0.846001 0 1.8125V20.1875C0 21.154 0.783501 21.9375 1.75 21.9375H33.25C34.2164 21.9375 35 21.154 35 20.1875V1.8125C35 0.846001 34.2164 0.0625 33.25 0.0625H1.75Z" fill="white"/>
<path fill-rule="evenodd" clip-rule="evenodd" d="M33.25 0.5H1.75C1.02513 0.5 0.4375 1.08763 0.4375 1.8125V20.1875C0.4375 20.9124 1.02513 21.5 1.75 21.5H33.25C33.9749 21.5 34.5625 20.9124 34.5625 20.1875V1.8125C34.5625 1.08763 33.9749 0.5 33.25 0.5ZM1.75 0.0625C0.783501 0.0625 0 0.846001 0 1.8125V20.1875C0 21.154 0.783501 21.9375 1.75 21.9375H33.25C34.2164 21.9375 35 21.154 35 20.1875V1.8125C35 0.846001 34.2164 0.0625 33.25 0.0625H1.75Z" fill="#DDDDD8"/>
<path d="M7.6875 10.1246C7.6875 11.719 8.32083 13.248 9.44818 14.3753C10.5755 15.5027 12.1045 16.136 13.6988 16.136C15.2932 16.136 16.8222 15.5027 17.9495 14.3753C19.0769 13.248 19.7102 11.719 19.7102 10.1246C19.7102 8.53032 19.0769 7.00133 17.9495 5.87398C16.8222 4.74663 15.2932 4.11328 13.6988 4.11328C12.1045 4.11328 10.5755 4.74663 9.44818 5.87398C8.32083 7.00133 7.6875 8.53032 7.6875 10.1246Z" fill="#EA001B"/>
<path d="M15.2891 10.1246C15.2891 10.9141 15.4446 11.6957 15.7466 12.4251C16.0487 13.1544 16.4915 13.8171 17.0497 14.3753C17.6079 14.9335 18.2706 15.3763 19 15.6784C19.7293 15.9805 20.511 16.136 21.3004 16.136C22.0899 16.136 22.8715 15.9805 23.6008 15.6784C24.3301 15.3763 24.9929 14.9335 25.551 14.3753C26.1092 13.8171 26.552 13.1544 26.8543 12.4251C27.1564 11.6957 27.3117 10.9141 27.3117 10.1246C27.3117 9.33522 27.1564 8.55353 26.8543 7.8242C26.552 7.09487 26.1092 6.43218 25.551 5.87398C24.9929 5.31577 24.3301 4.87298 23.6008 4.57088C22.8715 4.26877 22.0899 4.11328 21.3004 4.11328C20.511 4.11328 19.7293 4.26877 19 4.57088C18.2706 4.87298 17.6079 5.31577 17.0497 5.87398C16.4915 6.43218 16.0487 7.09487 15.7466 7.8242C15.4446 8.55353 15.2891 9.33522 15.2891 10.1246Z" fill="#00A5FF"/>
<path d="M15.3008 10.1361C15.3008 12.0072 16.1558 13.6787 17.4963 14.781C18.8529 13.6787 19.7196 11.9973 19.7196 10.1136C19.7196 8.24248 18.8645 6.57097 17.5241 5.46875C16.1675 6.57097 15.3008 8.25191 15.3008 10.1361Z" fill="#7475CF"/>
<path d="M26.8125 13.1385H26.8875V13.3337H26.9212V13.1385H26.996V13.1094H26.8125V13.1385ZM27.2198 13.1094L27.1424 13.2893H27.1415L27.0634 13.1094H27.0229V13.3337H27.0571V13.1735H27.0584L27.1271 13.3337H27.1562L27.2248 13.1735H27.2262V13.3337H27.2603V13.1094H27.2198Z" fill="#00A5FF"/>
<path d="M11.4219 17.5336C11.2694 17.5336 11.1119 17.5995 10.9504 17.7363C10.9248 17.6888 10.9598 17.6363 10.9159 17.5869C10.8634 17.5847 10.8082 17.582 10.7521 17.582C10.7005 17.582 10.6476 17.5843 10.5938 17.5919V19.1898H10.9221C10.9508 19.1441 10.9414 19.1073 10.9414 19.0723C10.9423 18.8309 10.9414 18.5891 10.9419 18.3478C10.9419 18.2827 10.9432 18.2181 10.9603 18.1549C11.0078 17.9781 11.1451 17.875 11.3313 17.875C11.3398 17.875 11.3488 17.8754 11.3573 17.8754C11.5345 17.8844 11.6444 17.9902 11.6749 18.184C11.6816 18.2267 11.6825 18.2702 11.683 18.3132C11.6839 18.5725 11.6839 18.8323 11.6843 19.0916C11.6843 19.1234 11.6758 19.1571 11.7117 19.1948C11.7274 19.1939 11.7431 19.1934 11.7592 19.1934C11.8063 19.1934 11.8552 19.1966 11.9037 19.1966C11.9436 19.1966 11.9835 19.1948 12.0221 19.1871C12.0486 19.1418 12.0401 19.105 12.0401 19.0696C12.041 18.8247 12.0405 18.5793 12.0405 18.3343C12.0405 18.2693 12.0441 18.2047 12.0625 18.1419C12.1118 17.9759 12.2518 17.8736 12.4254 17.8736C12.4366 17.8736 12.4479 17.8741 12.4591 17.875C12.6398 17.8884 12.748 17.992 12.7771 18.1845C12.7834 18.2271 12.7834 18.2706 12.7834 18.3137C12.7839 18.5658 12.7834 18.8184 12.7843 19.0705C12.7843 19.1091 12.7735 19.1504 12.8027 19.1871H13.1288C13.1356 19.1692 13.1427 19.1593 13.1427 19.1495C13.1423 18.8036 13.1504 18.4572 13.1369 18.1118C13.1266 17.8503 12.9907 17.6569 12.735 17.5793C12.6475 17.5528 12.5613 17.5381 12.4779 17.5381C12.3133 17.5381 12.1585 17.5941 12.0212 17.7269C11.9961 17.7516 11.9813 17.787 11.9427 17.8018C11.7749 17.6251 11.6013 17.5336 11.4219 17.5336ZM14.2082 17.5452C14.0117 17.5452 13.8273 17.626 13.6766 17.7861C13.389 18.0916 13.3679 18.6129 13.6313 18.94C13.7533 19.0916 13.9108 19.1907 14.1028 19.2226C14.1566 19.2316 14.2091 19.236 14.2607 19.236C14.441 19.236 14.6061 19.1773 14.7434 19.0297C14.7815 19.0849 14.7335 19.1427 14.7833 19.1885H15.1045V17.5838C15.0928 17.5843 15.0816 17.5843 15.0704 17.5843C15.0112 17.5843 14.9547 17.5807 14.9004 17.5807C14.8573 17.5807 14.8161 17.5829 14.7761 17.591C14.7429 17.6444 14.7775 17.696 14.7461 17.7368C14.5671 17.6089 14.3827 17.5452 14.2082 17.5452ZM14.3033 18.9014H14.2943C14.0041 18.8964 13.808 18.6829 13.8134 18.3787C13.8188 18.0827 14.0189 17.8745 14.2957 17.8741H14.3033C14.581 17.8781 14.7855 18.1011 14.7802 18.3931C14.7743 18.6914 14.5765 18.9014 14.3033 18.9014ZM16.2211 17.5367C15.9793 17.5367 15.7438 17.6471 15.5998 17.8417C15.4154 18.0907 15.3894 18.3729 15.4688 18.6645C15.554 18.9763 15.7676 19.1584 16.0802 19.219C16.1457 19.2316 16.2117 19.2383 16.2772 19.2383C16.3799 19.2383 16.4822 19.2226 16.5822 19.1916C16.7051 19.1535 16.8209 19.1005 16.9137 19.0014C16.8554 18.9148 16.8021 18.8359 16.7496 18.7578C16.5504 18.8525 16.3754 18.8996 16.2314 18.8996C15.9946 18.8996 15.842 18.7722 15.8061 18.52H16.9824C17.0093 18.407 17.0008 18.3101 16.9837 18.215C16.9268 17.8911 16.7594 17.656 16.4306 17.565C16.3619 17.5461 16.2911 17.5367 16.2211 17.5367ZM15.8147 18.232C15.8277 18.019 15.9874 17.8669 16.2018 17.8588C16.2085 17.8584 16.2157 17.8584 16.2225 17.8584C16.4405 17.8584 16.5854 17.9902 16.6199 18.232H15.8147ZM18.0523 17.5367C17.9105 17.5367 17.7683 17.565 17.6243 17.6287C17.435 17.7121 17.3462 17.8741 17.3552 18.0818C17.3637 18.2787 17.4817 18.3935 17.6531 18.468C17.7912 18.5277 17.9393 18.5358 18.0846 18.5604C18.1519 18.5721 18.2205 18.582 18.2806 18.617C18.3749 18.6712 18.3834 18.7677 18.3017 18.839C18.26 18.8753 18.2098 18.8951 18.1555 18.9041C18.0999 18.9135 18.0447 18.918 17.9891 18.918C17.937 18.918 17.885 18.9139 17.8329 18.9063C17.6961 18.8866 17.5745 18.8278 17.4525 18.7556L17.2964 19.0144C17.3067 19.0306 17.3094 19.0377 17.3144 19.0422C17.3224 19.0494 17.3318 19.0548 17.3408 19.0602C17.5382 19.1844 17.7486 19.2356 17.9666 19.2356C18.055 19.2356 18.1443 19.2271 18.2349 19.2118C18.3677 19.1894 18.4892 19.1351 18.5879 19.0377C18.8073 18.8206 18.7598 18.4721 18.4906 18.3245C18.43 18.2913 18.3659 18.2697 18.2995 18.2522C18.1703 18.2186 18.0362 18.2127 17.9061 18.1858C17.8258 18.1692 17.7369 18.1513 17.728 18.0441C17.7212 17.9642 17.7926 17.8947 17.9047 17.8705C17.9464 17.8615 17.9886 17.8579 18.0303 17.8579C18.0922 17.8579 18.1537 17.866 18.2156 17.8776C18.3251 17.8983 18.4269 17.9418 18.5355 17.9911C18.5866 17.8942 18.6342 17.8045 18.688 17.7022C18.474 17.6 18.2636 17.5367 18.0523 17.5367ZM19.6386 17.1016H19.2842V17.569C19.2429 17.5807 19.2025 17.5829 19.1626 17.5829C19.1353 17.5829 19.1083 17.582 19.0814 17.582C19.0406 17.582 19.0002 17.5847 18.9598 17.5968C18.9527 17.6977 18.9473 17.7964 18.9621 17.8951C18.998 17.9041 19.0334 17.9063 19.0689 17.9063C19.1007 17.9063 19.1317 17.9045 19.1626 17.9045C19.2008 17.9045 19.2375 17.9073 19.2734 17.9194C19.2923 17.9647 19.2846 18.005 19.2851 18.0436C19.286 18.2635 19.2824 18.4828 19.2869 18.7026C19.2905 18.8861 19.3385 19.0534 19.5067 19.158C19.5906 19.2105 19.7077 19.2356 19.8292 19.2356C19.9943 19.2356 20.168 19.1889 20.2796 19.1005C20.2492 19.0063 20.2267 18.9068 20.1756 18.8179C20.1069 18.8426 20.0509 18.8686 19.9916 18.8825C19.9454 18.8937 19.9042 18.8991 19.8674 18.8991C19.7144 18.8991 19.6422 18.8031 19.6417 18.6053C19.6413 18.4146 19.6408 18.2235 19.6422 18.0329C19.6422 17.9943 19.631 17.9535 19.6705 17.9041H20.2052C20.2204 17.7938 20.2164 17.6982 20.2065 17.5793H19.6399C19.6386 17.4124 19.6386 17.2599 19.6386 17.1016ZM21.368 17.5425C21.2145 17.5425 21.0791 17.5995 20.9638 17.7408C20.9324 17.6848 20.9687 17.6327 20.9288 17.5883C20.8794 17.5838 20.8288 17.5816 20.7772 17.5816C20.722 17.5816 20.6646 17.5838 20.6049 17.5878V19.1885C20.6641 19.1925 20.7206 19.1952 20.7776 19.1952C20.8346 19.1952 20.8911 19.1925 20.9508 19.1867V18.3366C20.9508 18.2679 20.9503 18.1998 20.9674 18.1329C21.0095 17.9674 21.1154 17.8808 21.2836 17.8808H21.2953C21.3657 17.8826 21.4362 17.896 21.5151 17.9054C21.5497 17.8005 21.5838 17.6968 21.621 17.5843C21.5313 17.5578 21.4474 17.5425 21.368 17.5425ZM24.2257 19.0404H24.1498V19.1974H24.1822V19.1315H24.2246L24.2817 19.1974H24.318L24.257 19.1293C24.2894 19.1239 24.3104 19.1095 24.3104 19.0848C24.3104 19.0521 24.2749 19.0404 24.2257 19.0404ZM24.1822 19.1149V19.0575H24.2215C24.2583 19.0575 24.2786 19.0647 24.2786 19.0848C24.2786 19.105 24.2583 19.1149 24.2215 19.1149H24.1822Z" fill="black"/>
<path d="M24.2346 18.9531C24.1419 18.9531 24.0664 19.0285 24.0664 19.1214C24.0664 19.2142 24.1419 19.2896 24.2346 19.2896C24.3276 19.2896 24.4031 19.2142 24.4031 19.1214C24.4031 19.0285 24.3276 18.9531 24.2346 18.9531ZM24.2346 19.2672C24.1543 19.2672 24.0889 19.2017 24.0889 19.1214C24.0889 19.0411 24.1543 18.9756 24.2346 18.9756C24.3151 18.9756 24.3805 19.0411 24.3805 19.1214C24.3805 19.2017 24.3156 19.2672 24.2346 19.2672Z" fill="black"/>
<path d="M22.4934 17.8414C22.7666 17.8414 22.9891 18.0827 22.9891 18.3797C22.9891 18.6767 22.7666 18.918 22.4934 18.918C22.2202 18.918 21.9977 18.6767 21.9977 18.3797C21.9977 18.0827 22.2202 17.8414 22.4934 17.8414ZM22.4934 17.5273C22.0461 17.5273 21.6836 17.9091 21.6836 18.3797C21.6836 18.8503 22.0461 19.2321 22.4934 19.2321C22.9405 19.2321 23.303 18.8503 23.303 18.3797C23.303 17.9091 22.9405 17.5273 22.4934 17.5273Z" fill="black"/>
</g>
</g>
</g>
<defs>
<clipPath id="clip0_428_55766">
<rect width="35" height="22" rx="5" fill="white"/>
</clipPath>
<clipPath id="clip1_428_55766">
<rect width="35" height="22" fill="white"/>
</clipPath>
<clipPath id="clip2_428_55766">
<rect width="35" height="21.875" fill="white" transform="translate(0 0.0625)"/>
</clipPath>
</defs>
</svg>
