<svg width="39" height="25" viewBox="0 0 39 25" fill="none" xmlns="http://www.w3.org/2000/svg">
<g clip-path="url(#clip0_428_59185)">
<g clip-path="url(#clip1_428_59185)">
<g clip-path="url(#clip2_428_59185)">
<path d="M0.390625 2.47419C0.390625 1.41408 1.25001 0.554688 2.31012 0.554688H36.8611C37.9212 0.554688 38.7806 1.41408 38.7806 2.47419V22.6289C38.7806 23.6891 37.9212 24.5484 36.8611 24.5484H2.31012C1.25001 24.5484 0.390625 23.6891 0.390625 22.6289V2.47419Z" fill="white"/>
<path d="M8.82031 12.5506C8.82031 14.2994 9.51498 15.9765 10.7515 17.213C11.9881 18.4495 13.6652 19.1442 15.4139 19.1442C17.1626 19.1442 18.8397 18.4495 20.0763 17.213C21.3128 15.9765 22.0075 14.2994 22.0075 12.5506C22.0075 10.8019 21.3128 9.12481 20.0763 7.88826C18.8397 6.65172 17.1626 5.95703 15.4139 5.95703C13.6652 5.95703 11.9881 6.65172 10.7515 7.88826C9.51498 9.12481 8.82031 10.8019 8.82031 12.5506Z" fill="#EB001B"/>
<path d="M17.1641 12.5506C17.1641 13.4165 17.3346 14.2739 17.666 15.0739C17.9973 15.8739 18.483 16.6007 19.0953 17.213C19.7075 17.8253 20.4344 18.311 21.2344 18.6423C22.0344 18.9737 22.8918 19.1442 23.7577 19.1442C24.6235 19.1442 25.481 18.9737 26.281 18.6423C27.0809 18.311 27.8077 17.8253 28.42 17.213C29.0324 16.6007 29.518 15.8739 29.8493 15.0739C30.1807 14.2739 30.3513 13.4165 30.3513 12.5506C30.3513 11.6847 30.1807 10.8274 29.8493 10.0274C29.518 9.2274 29.0324 8.50054 28.42 7.88826C27.8077 7.27599 27.0809 6.79031 26.281 6.45896C25.481 6.12758 24.6235 5.95703 23.7577 5.95703C22.8918 5.95703 22.0344 6.12758 21.2344 6.45896C20.4344 6.79031 19.7075 7.27599 19.0953 7.88826C18.483 8.50054 17.9973 9.2274 17.666 10.0274C17.3346 10.8274 17.1641 11.6847 17.1641 12.5506Z" fill="#F79E1B"/>
<path d="M17.1758 12.5647C17.1758 14.6171 18.1136 16.4505 19.5839 17.6595C21.0719 16.4505 22.0226 14.6063 22.0226 12.5401C22.0226 10.4877 21.0847 8.65431 19.6144 7.44531C18.1264 8.65431 17.1758 10.4981 17.1758 12.5647Z" fill="#FF5F00"/>
<path fill-rule="evenodd" clip-rule="evenodd" d="M36.8611 1.03456H2.31012C1.51504 1.03456 0.8705 1.6791 0.8705 2.47419V22.6289C0.8705 23.424 1.51504 24.0686 2.31012 24.0686H36.8611C37.6563 24.0686 38.3007 23.424 38.3007 22.6289V2.47419C38.3007 1.6791 37.6563 1.03456 36.8611 1.03456ZM2.31012 0.554688C1.25001 0.554688 0.390625 1.41408 0.390625 2.47419V22.6289C0.390625 23.6891 1.25001 24.5484 2.31012 24.5484H36.8611C37.9212 24.5484 38.7806 23.6891 38.7806 22.6289V2.47419C38.7806 1.41408 37.9212 0.554688 36.8611 0.554688H2.31012Z" fill="#DDDDD8"/>
</g>
</g>
</g>
<defs>
<clipPath id="clip0_428_59185">
<rect width="38.39" height="24" fill="white" transform="translate(0.390625 0.550781)"/>
</clipPath>
<clipPath id="clip1_428_59185">
<rect width="38.39" height="24" fill="white" transform="translate(0.390625 0.550781)"/>
</clipPath>
<clipPath id="clip2_428_59185">
<rect width="38.39" height="23.9937" fill="white" transform="translate(0.390625 0.554688)"/>
</clipPath>
</defs>
</svg>
