<svg width="35" height="22" viewBox="0 0 35 22" fill="none" xmlns="http://www.w3.org/2000/svg">
<g clip-path="url(#clip0_428_55791)">
<g clip-path="url(#clip1_428_55791)">
<g clip-path="url(#clip2_428_55791)">
<path d="M33.25 0.28125H1.75C0.904314 0.28125 0.21875 0.966814 0.21875 1.8125V20.1875C0.21875 21.0332 0.904314 21.7187 1.75 21.7187H33.25C34.0957 21.7187 34.7812 21.0332 34.7812 20.1875V1.8125C34.7812 0.966814 34.0957 0.28125 33.25 0.28125Z" fill="white"/>
<path d="M2.60156 8.54122C2.60156 8.49415 2.61414 8.45674 2.63864 8.42857C2.66358 8.40085 2.70042 8.38672 2.74985 8.38672H4.89581C5.04999 8.38672 5.1955 8.40785 5.33222 8.45051C5.46859 8.49314 5.59406 8.55192 5.70827 8.62684C5.82218 8.70187 5.92547 8.79138 6.01743 8.89593C6.10896 8.99968 6.18677 9.11223 6.25055 9.23335C6.31423 9.35403 6.3631 9.48128 6.39672 9.61443C6.43034 9.74737 6.44706 9.88251 6.44706 10.019C6.44706 10.2207 6.41042 10.4176 6.33805 10.6102C6.26514 10.8027 6.16139 10.9742 6.02734 11.124C5.89296 11.2739 5.73166 11.3956 5.54384 11.4882C5.35536 11.5814 5.14729 11.6291 4.91896 11.6311H3.90153V13.2298C3.90153 13.326 3.8501 13.3737 3.74713 13.3737H2.74985C2.70477 13.3737 2.66903 13.3621 2.64221 13.339C2.61526 13.3153 2.60156 13.2788 2.60156 13.2298V8.54122ZM5.13071 10.0121C5.13071 9.94485 5.11902 9.87772 5.09542 9.81058C5.07171 9.74358 5.03798 9.68345 4.99311 9.63101C4.94836 9.57847 4.89391 9.5354 4.83023 9.50167C4.76622 9.46826 4.69408 9.45122 4.61358 9.45122H3.90166V10.573H4.61358C4.69408 10.573 4.76666 10.5567 4.83178 10.5243C4.89669 10.4918 4.95124 10.4501 4.99467 10.3986C5.03831 10.3469 5.07171 10.2877 5.09553 10.2206C5.11903 10.1533 5.13071 10.084 5.13071 10.0121Z" fill="#941F7F"/>
<path d="M8.43577 8.51753C8.43778 8.50427 8.44502 8.48982 8.45749 8.47389C8.46974 8.45818 8.4852 8.44372 8.5029 8.43025C8.5206 8.41656 8.53998 8.40632 8.56023 8.3984C8.58005 8.39061 8.59919 8.38672 8.61691 8.38672H9.47701C9.51488 8.38672 9.54728 8.3984 9.57445 8.42189C9.60116 8.4455 9.62108 8.4661 9.63456 8.48424L9.71838 8.67549L11.4817 13.2228C11.4997 13.2677 11.4961 13.3037 11.4715 13.3319C11.4472 13.3597 11.4046 13.3739 11.344 13.3739H10.3805C10.3286 13.3739 10.2889 13.3644 10.2612 13.3455C10.2331 13.326 10.211 13.2944 10.1957 13.2495C10.1508 13.1355 10.1071 13.0219 10.0647 12.9087C10.0219 12.7956 9.97922 12.6824 9.9368 12.5679H8.15345C8.11103 12.6824 8.06794 12.7957 8.0243 12.9087C7.98066 13.0217 7.93758 13.1354 7.89495 13.2495C7.86566 13.3325 7.80911 13.3739 7.72384 13.3739H6.73301C6.69038 13.3739 6.65542 13.3625 6.62725 13.3404C6.59921 13.3179 6.59396 13.2842 6.61233 13.2393L8.43577 8.51753ZM9.04708 9.95498C9.00443 10.0692 8.96125 10.1923 8.91761 10.3243C8.87396 10.4565 8.83087 10.5897 8.78824 10.7238C8.74604 10.8584 8.70286 10.9909 8.65922 11.1219C8.61558 11.2531 8.57248 11.3755 8.52985 11.4898H9.56086L9.04708 9.95498Z" fill="#941F7F"/>
<path d="M12.9724 10.227L13.7834 8.49058C13.7966 8.46387 13.808 8.44427 13.8168 8.43202C13.826 8.41955 13.8348 8.41065 13.8437 8.40488C13.8526 8.39941 13.8623 8.39606 13.8721 8.39496C13.8824 8.39396 13.8941 8.3914 13.9075 8.38672H15.2004C15.2164 8.38672 15.2292 8.39195 15.2393 8.40186C15.2493 8.41187 15.2543 8.4238 15.2543 8.43703C15.2543 8.46164 15.2386 8.48993 15.2076 8.52088L13.6156 11.3386V13.2162C13.6156 13.3211 13.5642 13.3738 13.4614 13.3738H12.4563C12.4116 13.3738 12.3774 13.3596 12.3525 13.3318C12.328 13.3035 12.3157 13.2652 12.3157 13.2162V11.3321L10.7272 8.52088C10.6982 8.49192 10.6836 8.46398 10.6836 8.43703C10.6836 8.4238 10.6883 8.41187 10.6971 8.40186C10.7061 8.39195 10.7182 8.38672 10.734 8.38672H12.0271C12.0426 8.3914 12.0549 8.39396 12.0637 8.39496C12.073 8.39606 12.0818 8.39941 12.0909 8.40488C12.0998 8.41065 12.1086 8.41955 12.1175 8.43202C12.1267 8.44427 12.139 8.46398 12.1546 8.49058L12.9724 10.227Z" fill="#941F7F"/>
<path d="M15.7227 8.53444C15.7227 8.49415 15.7349 8.45941 15.7595 8.43047C15.784 8.40107 15.8212 8.38683 15.8703 8.38683H16.9687C16.9997 8.38683 17.0324 8.39462 17.066 8.40997C17.0997 8.42601 17.1286 8.45285 17.1533 8.4908C17.4377 8.94969 17.7196 9.40178 17.9995 9.84744C18.2795 10.2931 18.5629 10.7454 18.8492 11.2043V8.51418C18.8581 8.47398 18.8757 8.44226 18.903 8.4201C18.9298 8.39783 18.9614 8.38672 18.9967 8.38672H19.9538C20.0013 8.38672 20.0405 8.39919 20.0718 8.42511C20.1031 8.45094 20.1188 8.48734 20.1188 8.53433V13.2427C20.1188 13.2876 20.1054 13.3203 20.0785 13.3418C20.0514 13.3632 20.0147 13.374 19.9677 13.374H18.8963C18.8671 13.374 18.8416 13.3637 18.8192 13.3434C18.7967 13.3234 18.7733 13.2967 18.7488 13.263C18.4506 12.7704 18.1565 12.2834 17.8653 11.802C17.5745 11.3207 17.2789 10.8337 16.9789 10.3411V13.2259C16.9789 13.2751 16.9676 13.3122 16.945 13.3369C16.9228 13.3615 16.8824 13.374 16.8243 13.374H15.8705C15.8191 13.374 15.7817 13.3599 15.758 13.3316C15.7346 13.3037 15.7229 13.2695 15.7229 13.2295L15.7227 8.53444Z" fill="#941F7F"/>
<path d="M28.0021 13.3036C27.9796 13.2655 27.9584 13.2262 27.9385 13.1862C27.9186 13.1455 27.9004 13.1052 27.8849 13.0651C27.5957 12.3038 27.3082 11.5494 27.0217 10.8015C26.7351 10.0536 26.4475 9.29926 26.1581 8.53801C26.1581 8.52665 26.1565 8.51685 26.1535 8.50773C26.15 8.4987 26.1484 8.4899 26.1484 8.481C26.1484 8.41833 26.1898 8.38694 26.2727 8.38694H27.3542C27.4395 8.38694 27.497 8.42957 27.5287 8.5144L28.5562 11.5738L29.5067 8.5144C29.538 8.42957 29.5994 8.38694 29.6913 8.38694H30.7833C30.8343 8.38694 30.871 8.39639 30.892 8.41531C30.9135 8.43425 30.9242 8.45952 30.9242 8.49091C30.9242 8.50861 30.9229 8.52108 30.9207 8.52799V8.5379L30.3228 10.2504L30.773 11.5702L31.8613 8.51418C31.8924 8.42935 31.9538 8.38672 32.0455 8.38672H33.1038C33.155 8.38672 33.1911 8.39617 33.2127 8.41509C33.234 8.43401 33.2447 8.4593 33.2447 8.49069C33.2447 8.50839 33.2438 8.52086 33.2412 8.52777V8.53768C33.0892 8.93154 32.9334 9.32454 32.7746 9.7163C32.6153 10.1081 32.4559 10.4998 32.2964 10.8915C32.1356 11.2835 31.9768 11.6761 31.8191 12.0685C31.6612 12.4616 31.5072 12.8542 31.3573 13.2456C31.3486 13.2707 31.3287 13.2977 31.2969 13.3283C31.2654 13.3585 31.2276 13.3738 31.1827 13.3738H31.1727H30.3598C30.3106 13.3738 30.273 13.3641 30.2474 13.3449C30.2218 13.326 30.2032 13.3007 30.1918 13.2693L29.6613 11.8719C29.5854 12.0761 29.5104 12.2757 29.4365 12.4718C29.3623 12.6677 29.2886 12.8677 29.2149 13.0711C29.2037 13.1027 29.1906 13.1353 29.1759 13.17C29.1617 13.205 29.1442 13.2377 29.1239 13.2675C29.1037 13.2977 29.0808 13.3232 29.055 13.3431C29.0296 13.3636 28.9994 13.3738 28.9662 13.3738H28.9561H28.1434C28.0719 13.3742 28.0244 13.3506 28.0021 13.3036Z" fill="#941F7F"/>
<path fill-rule="evenodd" clip-rule="evenodd" d="M23.587 10.9557L25.0032 9.03372L25.1837 8.78804C25.2193 8.7397 25.2874 8.72905 25.3344 8.76621C25.9933 9.28649 26.4163 10.0925 26.4163 10.9972C26.4163 12.5662 25.1443 13.8381 23.5754 13.8381C22.0063 13.8381 20.7344 12.5662 20.7344 10.9972C20.7344 9.42819 22.0063 8.15625 23.5754 8.15625C24.0313 8.15625 24.4625 8.26372 24.8442 8.45471C24.903 8.48402 24.9192 8.5591 24.8805 8.61193L24.5314 9.0869C24.5001 9.1294 24.443 9.1431 24.3947 9.12197C24.144 9.0122 23.8668 8.95132 23.5754 8.95132C22.4456 8.95132 21.5296 9.86727 21.5296 10.9972C21.5296 12.1271 22.4456 13.0431 23.5754 13.0431C24.7053 13.0431 25.6214 12.1271 25.6214 10.9972C25.6214 10.6561 25.5378 10.3344 25.3902 10.0516L23.7364 12.3022C23.6957 12.3577 23.6144 12.3619 23.568 12.3109L23.4713 12.2042C23.4702 12.2031 23.4691 12.2019 23.468 12.2007L22.1286 10.7301C22.0914 10.6892 22.0908 10.6268 22.1273 10.5852L22.5727 10.0756C22.6147 10.0276 22.6886 10.0257 22.733 10.0716L23.587 10.9557Z" fill="url(#paint0_linear_428_55791)"/>
<path d="M33.25 0.28125H1.75C0.904314 0.28125 0.21875 0.966814 0.21875 1.8125V20.1875C0.21875 21.0332 0.904314 21.7187 1.75 21.7187H33.25C34.0957 21.7187 34.7812 21.0332 34.7812 20.1875V1.8125C34.7812 0.966814 34.0957 0.28125 33.25 0.28125Z" stroke="#D8D8D8" stroke-width="0.4375"/>
</g>
</g>
</g>
<defs>
<linearGradient id="paint0_linear_428_55791" x1="24.9785" y1="9.60079" x2="22.6092" y2="11.9549" gradientUnits="userSpaceOnUse">
<stop stop-color="#E83762"/>
<stop offset="1" stop-color="#9A1F81"/>
</linearGradient>
<clipPath id="clip0_428_55791">
<rect width="35" height="22" rx="5" fill="white"/>
</clipPath>
<clipPath id="clip1_428_55791">
<rect width="35" height="22" fill="white"/>
</clipPath>
<clipPath id="clip2_428_55791">
<rect width="35" height="21.875" fill="white" transform="translate(0 0.0625)"/>
</clipPath>
</defs>
</svg>
