<svg width="25" height="25" viewBox="0 0 25 25" fill="none" xmlns="http://www.w3.org/2000/svg">
<path d="M19.6094 18.0185V12.0155C19.6094 11.473 18.9959 11.1576 18.5547 11.4734L16.2344 13.1342" stroke="#1F1E1E" stroke-width="1.8" stroke-linecap="round"/>
<path d="M4.60939 18.0185L4.60938 12.0155C4.60938 11.473 5.22288 11.1576 5.66406 11.4734L7.98438 13.1342" stroke="#1F1E1E" stroke-width="1.8" stroke-linecap="round"/>
<path d="M3.85938 21.1355C3.85938 20.7673 4.15785 20.4688 4.52604 20.4688H19.6927C20.0609 20.4688 20.3594 20.7673 20.3594 21.1355V21.302C20.3594 21.6702 20.0609 21.9688 19.6927 21.9688H4.52604C4.15785 21.9688 3.85938 21.6702 3.85938 21.302V21.1355Z" fill="#1F1E1E"/>
<path d="M5.11317 18.6856C5.1131 18.6858 5.11325 18.6855 5.11317 18.6856ZM5.11317 18.6856L4.77734 18.4683M5.5126 18.0683L12.1083 7.875L18.704 18.0683H5.5126Z" stroke="#1F1E1E" stroke-width="1.8"/>
<path d="M11.8669 1.97636C11.9633 1.7735 12.2521 1.7735 12.3485 1.97636L12.9076 3.15202C12.9465 3.23377 13.0242 3.29021 13.1139 3.30192L14.4048 3.47036C14.6276 3.49943 14.7168 3.774 14.5537 3.92843L13.6083 4.82348C13.5426 4.88571 13.5129 4.97703 13.5295 5.06602L13.7682 6.34579C13.8094 6.5666 13.5759 6.7363 13.3786 6.62889L12.2352 6.00639C12.1557 5.96311 12.0597 5.96311 11.9802 6.00639L10.8368 6.62889C10.6395 6.7363 10.406 6.5666 10.4472 6.34579L10.6859 5.06602C10.7025 4.97703 10.6728 4.88571 10.6071 4.82348L9.66176 3.92843C9.49864 3.774 9.58787 3.49943 9.8106 3.47036L11.1015 3.30192C11.1912 3.29021 11.2689 3.23377 11.3078 3.15202L11.8669 1.97636Z" fill="#1F1E1E"/>
</svg>
