<svg width="25" height="25" viewBox="0 0 25 25" fill="none" xmlns="http://www.w3.org/2000/svg">
<path d="M19.6094 18.7685V12.7655C19.6094 12.223 18.9959 11.9076 18.5547 12.2234L16.2344 13.8842" stroke="#1F1E1E" stroke-width="1.8" stroke-linecap="round"/>
<path d="M4.60939 18.7685L4.60938 12.7655C4.60938 12.223 5.22288 11.9076 5.66406 12.2234L7.98438 13.8842" stroke="#1F1E1E" stroke-width="1.8" stroke-linecap="round"/>
<path d="M3.85938 21.8855C3.85938 21.5173 4.15785 21.2188 4.52604 21.2188H19.6927C20.0609 21.2188 20.3594 21.5173 20.3594 21.8855V22.052C20.3594 22.4202 20.0609 22.7188 19.6927 22.7188H4.52604C4.15785 22.7188 3.85938 22.4202 3.85938 22.052V21.8855Z" fill="#1F1E1E"/>
<path d="M5.11317 19.4356C5.1131 19.4358 5.11325 19.4355 5.11317 19.4356ZM5.11317 19.4356L4.77734 19.2183M5.5126 18.8183L12.1083 8.625L18.704 18.8183H5.5126Z" stroke="#1F1E1E" stroke-width="1.8"/>
<path d="M11.8669 2.72636C11.9633 2.5235 12.2521 2.5235 12.3485 2.72636L12.9076 3.90202C12.9465 3.98377 13.0242 4.04021 13.1139 4.05192L14.4048 4.22036C14.6276 4.24943 14.7168 4.524 14.5537 4.67843L13.6083 5.57348C13.5426 5.63571 13.5129 5.72703 13.5295 5.81602L13.7682 7.09579C13.8094 7.3166 13.5759 7.4863 13.3786 7.37889L12.2352 6.75639C12.1557 6.71311 12.0597 6.71311 11.9802 6.75639L10.8368 7.37889C10.6395 7.4863 10.406 7.3166 10.4472 7.09579L10.6859 5.81602C10.7025 5.72703 10.6728 5.63571 10.6071 5.57348L9.66176 4.67843C9.49864 4.524 9.58787 4.24943 9.8106 4.22036L11.1015 4.05192C11.1912 4.04021 11.2689 3.98377 11.3078 3.90202L11.8669 2.72636Z" fill="#1F1E1E"/>
</svg>
