<svg width="103" height="29" viewBox="0 0 103 29" fill="none" xmlns="http://www.w3.org/2000/svg">
<path d="M6.43424 16.2111C4.23642 16.2111 1.88162 15.4486 0.849994 13.946L2.80112 11.7257C3.60848 12.8695 5.15592 13.5199 6.65851 13.5199C8.18352 13.5199 8.96846 12.8247 8.96846 11.8155C8.96846 10.9857 8.43022 10.4026 7.15189 10.1335L5.38019 9.7522C2.84597 9.21396 1.50037 7.80108 1.50037 5.73782C1.50037 3.04662 3.8776 0.960938 7.26403 0.960938C9.41699 0.960938 11.5027 1.79073 12.3997 3.1139L10.3141 5.19958C9.66368 4.19038 8.38536 3.65214 7.12947 3.65214C5.69416 3.65214 4.8868 4.36979 4.8868 5.379C4.8868 6.27606 5.49232 6.79188 6.68093 7.03857L8.45264 7.41982C10.9644 7.95807 12.3325 9.37095 12.3325 11.4566C12.3325 14.1703 9.95523 16.2111 6.43424 16.2111Z" fill="#193170"/>
<path d="M17.8324 15.9868L13.1901 1.1852H16.5765L19.8508 12.107L22.4972 4.68377L21.4207 1.1852H24.7847L28.059 11.8603L31.109 1.1852H34.3609L29.6962 15.9868H26.3546L23.7979 8.4066L21.174 15.9868H17.8324Z" fill="#193170"/>
<path d="M35.9842 15.9868V1.1852H39.3482V15.9868H35.9842Z" fill="#193170"/>
<path d="M42.6202 15.9868V1.1852H52.5104V3.7867H45.9842V7.4871H51.5461V10.0886H45.9842V15.9868H42.6202Z" fill="#193170"/>
<path d="M57.9797 15.9868V3.7867H53.6962V1.1852H65.6272V3.7867H61.3437V15.9868H57.9797Z" fill="#193170"/>
<path d="M71.9403 16.2111C69.7425 16.2111 67.3877 15.4486 66.3561 13.946L68.3072 11.7257C69.1146 12.8695 70.662 13.5199 72.1646 13.5199C73.6896 13.5199 74.4745 12.8247 74.4745 11.8155C74.4745 10.9857 73.9363 10.4026 72.658 10.1335L70.8863 9.7522C68.3521 9.21396 67.0065 7.80108 67.0065 5.73782C67.0065 3.04662 69.3837 0.960938 72.7701 0.960938C74.9231 0.960938 77.0088 1.79073 77.9058 3.1139L75.8201 5.19958C75.1698 4.19038 73.8914 3.65214 72.6355 3.65214C71.2002 3.65214 70.3929 4.36979 70.3929 5.379C70.3929 6.27606 70.9984 6.79188 72.187 7.03857L73.9587 7.41982C76.4705 7.95807 77.8385 9.37095 77.8385 11.4566C77.8385 14.1703 75.4613 16.2111 71.9403 16.2111Z" fill="#193170"/>
<path d="M80.3558 15.9868V1.1852H83.7198V15.9868H80.3558Z" fill="#193170"/>
<path d="M86.9918 15.9868V1.1852H89.84L94.8636 8.98969L99.9096 1.1852H102.578V15.9868H99.5507V6.88158L95.6485 12.9368H93.9441L90.0418 6.90401V15.9868H86.9918Z" fill="#193170"/>
<path d="M3.40748 28.9998L0.341797 19.2251H2.57812L4.74039 26.4376L6.48798 21.5355L5.7771 19.2251H7.99861L10.1609 26.2747L12.1751 19.2251H14.3225L11.242 28.9998H9.03531L7.34696 23.9939L5.61419 28.9998H3.40748Z" fill="#193170"/>
<path d="M13.7924 28.9998L17.3616 19.2251H19.5535L23.1227 28.9998H20.7827L20.1607 27.0744H16.6655L16.0435 28.9998H13.7924ZM18.4131 21.6243L17.1246 25.4898H19.7016L18.4131 21.6243Z" fill="#193170"/>
<path d="M26.1551 28.9998L22.5858 19.2251H24.9406L27.2954 26.3784L29.6502 19.2251H31.9162L28.3322 28.9998H26.1551Z" fill="#193170"/>
<path d="M32.967 28.9998V19.2251H39.4983V20.9431H35.1885V23.1646H39.0688V24.8826H35.1885V27.2818H39.4983V28.9998H32.967Z" fill="#193170"/>
</svg>
