<svg width="103" height="29" viewBox="0 0 103 29" fill="none" xmlns="http://www.w3.org/2000/svg">
<path d="M6.43424 16.1837C4.23642 16.1837 1.88162 15.4212 0.849994 13.9186L2.80112 11.6984C3.60848 12.8422 5.15592 13.4925 6.65851 13.4925C8.18352 13.4925 8.96846 12.7973 8.96846 11.7881C8.96846 10.9583 8.43022 10.3752 7.15189 10.1061L5.38019 9.72486C2.84597 9.18662 1.50037 7.77373 1.50037 5.71048C1.50037 3.01928 3.8776 0.933594 7.26403 0.933594C9.41699 0.933594 11.5027 1.76338 12.3997 3.08656L10.3141 5.17224C9.66368 4.16304 8.38536 3.6248 7.12947 3.6248C5.69416 3.6248 4.8868 4.34245 4.8868 5.35165C4.8868 6.24872 5.49232 6.76453 6.68093 7.01123L8.45264 7.39248C10.9644 7.93072 12.3325 9.3436 12.3325 11.4293C12.3325 14.1429 9.95523 16.1837 6.43424 16.1837Z" fill="white"/>
<path d="M17.8324 15.9595L13.1901 1.15786H16.5765L19.8508 12.0797L22.4972 4.65642L21.4207 1.15786H24.7847L28.059 11.833L31.109 1.15786H34.3609L29.6962 15.9595H26.3546L23.7979 8.37925L21.174 15.9595H17.8324Z" fill="white"/>
<path d="M35.9842 15.9595V1.15786H39.3482V15.9595H35.9842Z" fill="white"/>
<path d="M42.6202 15.9595V1.15786H52.5104V3.75936H45.9842V7.45976H51.5461V10.0613H45.9842V15.9595H42.6202Z" fill="white"/>
<path d="M57.9797 15.9595V3.75936H53.6962V1.15786H65.6272V3.75936H61.3437V15.9595H57.9797Z" fill="white"/>
<path d="M71.9403 16.1837C69.7425 16.1837 67.3877 15.4212 66.3561 13.9186L68.3072 11.6984C69.1146 12.8422 70.662 13.4925 72.1646 13.4925C73.6896 13.4925 74.4745 12.7973 74.4745 11.7881C74.4745 10.9583 73.9363 10.3752 72.658 10.1061L70.8863 9.72486C68.3521 9.18662 67.0065 7.77373 67.0065 5.71048C67.0065 3.01928 69.3837 0.933594 72.7701 0.933594C74.9231 0.933594 77.0088 1.76338 77.9058 3.08656L75.8201 5.17224C75.1698 4.16304 73.8914 3.6248 72.6355 3.6248C71.2002 3.6248 70.3929 4.34245 70.3929 5.35165C70.3929 6.24872 70.9984 6.76453 72.187 7.01123L73.9587 7.39248C76.4705 7.93072 77.8385 9.3436 77.8385 11.4293C77.8385 14.1429 75.4613 16.1837 71.9403 16.1837Z" fill="white"/>
<path d="M80.3558 15.9595V1.15786H83.7198V15.9595H80.3558Z" fill="white"/>
<path d="M86.9918 15.9595V1.15786H89.84L94.8636 8.96235L99.9096 1.15786H102.578V15.9595H99.5507V6.85424L95.6485 12.9094H93.9441L90.0418 6.87667V15.9595H86.9918Z" fill="white"/>
<path d="M3.40748 28.9724L0.341797 19.1978H2.57812L4.74039 26.4103L6.48798 21.5081L5.7771 19.1978H7.99861L10.1609 26.2474L12.1751 19.1978H14.3225L11.242 28.9724H9.03531L7.34696 23.9666L5.61419 28.9724H3.40748Z" fill="#D3E7EB"/>
<path d="M13.7924 28.9724L17.3616 19.1978H19.5535L23.1227 28.9724H20.7827L20.1607 27.0471H16.6655L16.0435 28.9724H13.7924ZM18.4131 21.597L17.1246 25.4624H19.7016L18.4131 21.597Z" fill="#D3E7EB"/>
<path d="M26.1551 28.9724L22.5858 19.1978H24.9406L27.2954 26.351L29.6502 19.1978H31.9162L28.3322 28.9724H26.1551Z" fill="#D3E7EB"/>
<path d="M32.967 28.9724V19.1978H39.4983V20.9157H35.1885V23.1372H39.0688V24.8552H35.1885V27.2544H39.4983V28.9724H32.967Z" fill="#D3E7EB"/>
</svg>
